<svg version="1.1" viewBox="0.0 0.0 600.0 371.0" fill="none" stroke="none" stroke-linecap="square" stroke-miterlimit="10" width="600" height="371" xmlns:xlink="http://www.w3.org/1999/xlink" xmlns="http://www.w3.org/2000/svg"><path fill="#ffffff" d="M0 0L600.0 0L600.0 371.0L0 371.0L0 0Z" fill-rule="nonzero"/><path stroke="#333333" stroke-width="1.0" stroke-linecap="butt" d="M77.5 300.5L581.5 300.5" fill-rule="nonzero"/><path stroke="#cccccc" stroke-width="1.0" stroke-linecap="butt" d="M77.5 240.5L581.5 240.5" fill-rule="nonzero"/><path stroke="#cccccc" stroke-width="1.0" stroke-linecap="butt" d="M77.5 181.5L581.5 181.5" fill-rule="nonzero"/><path stroke="#cccccc" stroke-width="1.0" stroke-linecap="butt" d="M77.5 121.5L581.5 121.5" fill-rule="nonzero"/><path stroke="#cccccc" stroke-width="1.0" stroke-linecap="butt" d="M77.5 61.5L581.5 61.5" fill-rule="nonzero"/><clipPath id="id_0"><path d="M77.55 61.916668L581.45 61.916668L581.45 300.45L77.55 300.45L77.55 61.916668Z" clip-rule="nonzero"/></clipPath><path stroke="#4285f4" stroke-width="2.0" stroke-linecap="butt" clip-path="url(#id_0)" d="M100.454544 80.99934L146.26364 76.22867L192.07272 94.11867L237.88182 106.045334L283.69092 107.238L329.5 126.32066L375.30908 128.706L421.1182 128.706L466.92728 144.21066L512.7364 151.36667L558.5455 157.33" fill-rule="nonzero"/><path fill="#000000" fill-opacity="0.0" clip-path="url(#id_0)" d="M103.454544 80.99934C103.454544 82.65619 102.1114 83.99934 100.454544 83.99934C98.79769 83.99934 97.454544 82.65619 97.454544 80.99934C97.454544 79.342476 98.79769 77.99934 100.454544 77.99934C102.1114 77.99934 103.454544 79.342476 103.454544 80.99934Z" fill-rule="nonzero"/><path fill="#000000" fill-opacity="0.0" clip-path="url(#id_0)" d="M149.26364 76.22867C149.26364 77.88552 147.92049 79.22867 146.26364 79.22867C144.60678 79.22867 143.26364 77.88552 143.26364 76.22867C143.26364 74.571815 144.60678 73.22867 146.26364 73.22867C147.92049 73.22867 149.26364 74.571815 149.26364 76.22867Z" fill-rule="nonzero"/><path fill="#000000" fill-opacity="0.0" clip-path="url(#id_0)" d="M195.07272 94.11867C195.07272 95.77552 193.72958 97.11867 192.07272 97.11867C190.41588 97.11867 189.07272 95.77552 189.07272 94.11867C189.07272 92.461815 190.41588 91.11867 192.07272 91.11867C193.72958 91.11867 195.07272 92.461815 195.07272 94.11867Z" fill-rule="nonzero"/><path fill="#000000" fill-opacity="0.0" clip-path="url(#id_0)" d="M240.88182 106.045334C240.88182 107.70219 239.53867 109.045334 237.88182 109.045334C236.22496 109.045334 234.88182 107.70219 234.88182 106.045334C234.88182 104.38848 236.22496 103.045334 237.88182 103.045334C239.53867 103.045334 240.88182 104.38848 240.88182 106.045334Z" fill-rule="nonzero"/><path fill="#000000" fill-opacity="0.0" clip-path="url(#id_0)" d="M286.69092 107.238C286.69092 108.89485 285.34778 110.238 283.69092 110.238C282.03406 110.238 280.69092 108.89485 280.69092 107.238C280.69092 105.58115 282.03406 104.238 283.69092 104.238C285.34778 104.238 286.69092 105.58115 286.69092 107.238Z" fill-rule="nonzero"/><path fill="#000000" fill-opacity="0.0" clip-path="url(#id_0)" d="M332.5 126.32066C332.5 127.97752 331.15686 129.32066 329.5 129.32066C327.84314 129.32066 326.5 127.97752 326.5 126.32066C326.5 124.66381 327.84314 123.32066 329.5 123.32066C331.15686 123.32066 332.5 124.66381 332.5 126.32066Z" fill-rule="nonzero"/><path fill="#000000" fill-opacity="0.0" clip-path="url(#id_0)" d="M378.30908 128.706C378.30908 130.36285 376.96594 131.706 375.30908 131.706C373.65222 131.706 372.30908 130.36285 372.30908 128.706C372.30908 127.04915 373.65222 125.706 375.30908 125.706C376.96594 125.706 378.30908 127.04915 378.30908 128.706Z" fill-rule="nonzero"/><path fill="#000000" fill-opacity="0.0" clip-path="url(#id_0)" d="M424.1182 128.706C424.1182 130.36285 422.77502 131.706 421.1182 131.706C419.46133 131.706 418.1182 130.36285 418.1182 128.706C418.1182 127.04915 419.46133 125.706 421.1182 125.706C422.77502 125.706 424.1182 127.04915 424.1182 128.706Z" fill-rule="nonzero"/><path fill="#000000" fill-opacity="0.0" clip-path="url(#id_0)" d="M469.92728 144.21066C469.92728 145.86752 468.58414 147.21066 466.92728 147.21066C465.27042 147.21066 463.92728 145.86752 463.92728 144.21066C463.92728 142.55382 465.27042 141.21066 466.92728 141.21066C468.58414 141.21066 469.92728 142.55382 469.92728 144.21066Z" fill-rule="nonzero"/><path fill="#000000" fill-opacity="0.0" clip-path="url(#id_0)" d="M515.7364 151.36667C515.7364 153.02351 514.3932 154.36667 512.7364 154.36667C511.0795 154.36667 509.73636 153.02351 509.73636 151.36667C509.73636 149.70981 511.0795 148.36667 512.7364 148.36667C514.3932 148.36667 515.7364 149.70981 515.7364 151.36667Z" fill-rule="nonzero"/><path fill="#000000" fill-opacity="0.0" clip-path="url(#id_0)" d="M561.5455 157.33C561.5455 158.98685 560.20233 160.33 558.5455 160.33C556.8886 160.33 555.5455 158.98685 555.5455 157.33C555.5455 155.67314 556.8886 154.33 558.5455 154.33C560.20233 154.33 561.5455 155.67314 561.5455 157.33Z" fill-rule="nonzero"/><path fill="#000000" d="M310.48438 349.45L313.78125 340.85626L315.0 340.85626L318.51562 349.45L317.23438 349.45L316.21875 346.84064L312.64062 346.84064L311.6875 349.45L310.48438 349.45ZM312.96875 345.91876L315.875 345.91876L314.98438 343.54376Q314.5625 342.46564 314.375 341.7625Q314.20312 342.59064 313.90625 343.40314L312.96875 345.91876ZM318.26562 349.45L318.26562 340.85626L319.32812 340.85626L319.32812 349.45L318.26562 349.45ZM322.26562 349.45L321.28125 349.45L321.28125 340.85626L322.34375 340.85626L322.34375 343.91876Q323.01562 343.09064 324.04688 343.09064Q324.625 343.09064 325.125 343.325Q325.64062 343.54376 325.96875 343.96564Q326.3125 344.3875 326.5 344.98126Q326.6875 345.575 326.6875 346.2469Q326.6875 347.84064 325.89062 348.71564Q325.09375 349.59064 324.0 349.59064Q322.89062 349.59064 322.26562 348.66876L322.26562 349.45ZM322.25 346.29376Q322.25 347.40314 322.5625 347.90314Q323.0625 348.71564 323.90625 348.71564Q324.59375 348.71564 325.09375 348.1219Q325.60938 347.52814 325.60938 346.325Q325.60938 345.10626 325.125 344.52814Q324.64062 343.95 323.95312 343.95Q323.26562 343.95 322.75 344.5594Q322.25 345.15314 322.25 346.29376ZM332.54688 347.45L333.64062 347.575Q333.39062 348.52814 332.6875 349.0594Q331.98438 349.59064 330.90625 349.59064Q329.54688 349.59064 328.73438 348.7469Q327.9375 347.90314 327.9375 346.3875Q327.9375 344.825 328.75 343.96564Q329.5625 343.09064 330.84375 343.09064Q332.09375 343.09064 332.875 343.9344Q333.67188 344.77814 333.67188 346.325Q333.67188 346.41876 333.67188 346.60626L329.03125 346.60626Q329.09375 347.6375 329.60938 348.1844Q330.125 348.71564 330.90625 348.71564Q331.48438 348.71564 331.89062 348.41876Q332.3125 348.10626 332.54688 347.45ZM329.09375 345.7469L332.5625 345.7469Q332.5 344.95 332.17188 344.5594Q331.65625 343.95 330.85938 343.95Q330.125 343.95 329.625 344.4344Q329.14062 344.91876 329.09375 345.7469ZM339.32812 349.45L339.32812 348.66876Q338.73438 349.59064 337.59375 349.59064Q336.84375 349.59064 336.21875 349.1844Q335.59375 348.7625 335.25 348.02814Q334.90625 347.29376 334.90625 346.34064Q334.90625 345.41876 335.21875 344.65314Q335.53125 343.8875 336.15625 343.4969Q336.78125 343.09064 337.54688 343.09064Q338.10938 343.09064 338.54688 343.325Q338.98438 343.5594 339.26562 343.9344L339.26562 340.85626L340.3125 340.85626L340.3125 349.45L339.32812 349.45ZM336.0 346.34064Q336.0 347.54376 336.5 348.1375Q337.0 348.71564 337.6875 348.71564Q338.375 348.71564 338.85938 348.15314Q339.34375 347.59064 339.34375 346.4344Q339.34375 345.15314 338.84375 344.5594Q338.35938 343.96564 337.64062 343.96564Q336.9375 343.96564 336.46875 344.54376Q336.0 345.10626 336.0 346.34064ZM341.90625 346.34064Q341.90625 344.60626 342.85938 343.77814Q343.65625 343.09064 344.8125 343.09064Q346.09375 343.09064 346.90625 343.9344Q347.73438 344.7625 347.73438 346.2469Q347.73438 347.45 347.375 348.1375Q347.01562 348.825 346.3125 349.21564Q345.625 349.59064 344.8125 349.59064Q343.51562 349.59064 342.70312 348.7625Q341.90625 347.91876 341.90625 346.34064ZM342.98438 346.34064Q342.98438 347.52814 343.5 348.1219Q344.03125 348.71564 344.8125 348.71564Q345.60938 348.71564 346.125 348.1219Q346.64062 347.52814 346.64062 346.3094Q346.64062 345.15314 346.10938 344.5594Q345.59375 343.96564 344.8125 343.96564Q344.03125 343.96564 343.5 344.5594Q342.98438 345.1375 342.98438 346.34064Z" fill-rule="nonzero"/><path fill="#000000" d="M26.175013 237.73021L25.175013 237.73021L25.159388 234.10521L28.346888 234.10521Q29.018763 234.93333 29.362513 235.82396Q29.690638 236.71458 29.690638 237.65208Q29.690638 238.91771 29.159388 239.96458Q28.612513 240.99583 27.596888 241.52708Q26.565638 242.04271 25.300013 242.04271Q24.034388 242.04271 22.956263 241.52708Q21.862513 240.99583 21.346888 240.01146Q20.815638 239.02708 20.815638 237.74583Q20.815638 236.80833 21.112513 236.05833Q21.409388 235.30833 21.956263 234.88646Q22.487513 234.44896 23.362513 234.23021L23.643763 235.24583Q22.987513 235.44896 22.612513 235.74583Q22.237513 236.02708 22.018763 236.55833Q21.784388 237.08958 21.784388 237.73021Q21.784388 238.51146 22.018763 239.08958Q22.253138 239.65208 22.643763 240.01146Q23.034388 240.35521 23.503138 240.54271Q24.300013 240.87083 25.221888 240.87083Q26.378138 240.87083 27.159388 240.48021Q27.925013 240.07396 28.300013 239.32396Q28.675013 238.57396 28.675013 237.71458Q28.675013 236.98021 28.393763 236.27708Q28.096888 235.57396 27.784388 235.21458L26.175013 235.21458L26.175013 237.73021ZM29.550013 232.91771L20.956263 232.91771L20.956263 231.85521L29.550013 231.85521L29.550013 232.91771ZM26.440638 230.27708Q24.706263 230.27708 23.878138 229.32396Q23.190638 228.52708 23.190638 227.37083Q23.190638 226.08958 24.034388 225.27708Q24.862513 224.44896 26.346888 224.44896Q27.550013 224.44896 28.237513 224.80833Q28.925013 225.16771 29.315638 225.87083Q29.690638 226.55833 29.690638 227.37083Q29.690638 228.66771 28.862513 229.48021Q28.018763 230.27708 26.440638 230.27708ZM26.440638 229.19896Q27.628138 229.19896 28.221888 228.68333Q28.815638 228.15208 28.815638 227.37083Q28.815638 226.57396 28.221888 226.05833Q27.628138 225.54271 26.409388 225.54271Q25.253138 225.54271 24.659388 226.07396Q24.065638 226.58958 24.065638 227.37083Q24.065638 228.15208 24.659388 228.68333Q25.237513 229.19896 26.440638 229.19896ZM29.550013 221.91771L29.550013 222.90208L20.956263 222.90208L20.956263 221.83958L24.018763 221.83958Q23.190638 221.16771 23.190638 220.13646Q23.190638 219.55833 23.425013 219.05833Q23.643763 218.54271 24.065638 218.21458Q24.487513 217.87083 25.081263 217.68333Q25.675013 217.49583 26.346888 217.49583Q27.940638 217.49583 28.815638 218.29271Q29.690638 219.08958 29.690638 220.18333Q29.690638 221.29271 28.768763 221.91771L29.550013 221.91771ZM26.393763 221.93333Q27.503138 221.93333 28.003138 221.62083Q28.815638 221.12083 28.815638 220.27708Q28.815638 219.58958 28.221888 219.08958Q27.628138 218.57396 26.425013 218.57396Q25.206263 218.57396 24.628138 219.05833Q24.050013 219.54271 24.050013 220.23021Q24.050013 220.91771 24.659388 221.43333Q25.253138 221.93333 26.393763 221.93333ZM28.784388 211.82396Q29.284388 212.41771 29.487513 212.96458Q29.690638 213.49583 29.690638 214.12083Q29.690638 215.15208 29.190638 215.69896Q28.690638 216.24583 27.909388 216.24583Q27.456263 216.24583 27.081263 216.04271Q26.690638 215.83958 26.471888 215.49583Q26.237513 215.15208 26.128138 214.73021Q26.034388 214.43333 25.956263 213.79271Q25.815638 212.52708 25.596888 211.91771Q25.378138 211.91771 25.331263 211.91771Q24.675013 211.91771 24.409388 212.21458Q24.065638 212.62083 24.065638 213.41771Q24.065638 214.15208 24.331263 214.51146Q24.581263 214.87083 25.237513 215.04271L25.096888 216.07396Q24.440638 215.93333 24.034388 215.60521Q23.628138 215.27708 23.409388 214.66771Q23.190638 214.05833 23.190638 213.26146Q23.190638 212.46458 23.378138 211.96458Q23.565638 211.46458 23.846888 211.23021Q24.128138 210.99583 24.565638 210.90208Q24.831263 210.85521 25.534388 210.85521L26.940638 210.85521Q28.409388 210.85521 28.800013 210.79271Q29.190638 210.71458 29.550013 210.51146L29.550013 211.62083Q29.221888 211.77708 28.784388 211.82396ZM26.425013 211.91771Q26.659388 212.49583 26.831263 213.63646Q26.925013 214.29271 27.050013 214.55833Q27.159388 214.82396 27.378138 214.98021Q27.596888 215.12083 27.878138 215.12083Q28.300013 215.12083 28.581263 214.80833Q28.862513 214.48021 28.862513 213.87083Q28.862513 213.26146 28.596888 212.79271Q28.331263 212.30833 27.862513 212.08958Q27.503138 211.91771 26.815638 211.91771L26.425013 211.91771ZM29.550013 208.91771L20.956263 208.91771L20.956263 207.85521L29.550013 207.85521L29.550013 208.91771ZM29.550013 200.57396L21.971888 200.57396L21.971888 203.40208L20.956263 203.40208L20.956263 196.58958L21.971888 196.58958L21.971888 199.43333L29.550013 199.43333L29.550013 200.57396ZM27.550013 191.63646L27.675013 190.54271Q28.628138 190.79271 29.159388 191.49583Q29.690638 192.19896 29.690638 193.27708Q29.690638 194.63646 28.846888 195.44896Q28.003138 196.24583 26.487513 196.24583Q24.925013 196.24583 24.065638 195.43333Q23.190638 194.62083 23.190638 193.33958Q23.190638 192.08958 24.034388 191.30833Q24.878138 190.51146 26.425013 190.51146Q26.518763 190.51146 26.706263 190.51146L26.706263 195.15208Q27.737513 195.08958 28.284388 194.57396Q28.815638 194.05833 28.815638 193.27708Q28.815638 192.69896 28.518763 192.29271Q28.206263 191.87083 27.550013 191.63646ZM25.846888 195.08958L25.846888 191.62083Q25.050013 191.68333 24.659388 192.01146Q24.050013 192.52708 24.050013 193.32396Q24.050013 194.05833 24.534388 194.55833Q25.018763 195.04271 25.846888 195.08958ZM29.550013 188.88646L23.331263 188.88646L23.331263 187.94896L24.206263 187.94896Q23.737513 187.65208 23.471888 187.16771Q23.190638 186.68333 23.190638 186.05833Q23.190638 185.37083 23.471888 184.93333Q23.753138 184.48021 24.268763 184.30833Q23.190638 183.55833 23.190638 182.38646Q23.190638 181.44896 23.706263 180.96458Q24.206263 180.46458 25.284388 180.46458L29.550013 180.46458L29.550013 181.51146L25.628138 181.51146Q25.003138 181.51146 24.721888 181.62083Q24.440638 181.71458 24.268763 181.98021Q24.096888 182.24583 24.096888 182.62083Q24.096888 183.27708 24.534388 183.71458Q24.971888 184.13646 25.940638 184.13646L29.550013 184.13646L29.550013 185.19896L25.503138 185.19896Q24.800013 185.19896 24.456263 185.46458Q24.096888 185.71458 24.096888 186.29271Q24.096888 186.74583 24.331263 187.12083Q24.565638 187.49583 25.018763 187.66771Q25.471888 187.83958 26.315638 187.83958L29.550013 187.83958L29.550013 188.88646ZM31.940638 177.88646L23.331263 177.88646L23.331263 176.93333L24.128138 176.93333Q23.659388 176.58958 23.425013 176.16771Q23.190638 175.73021 23.190638 175.12083Q23.190638 174.32396 23.596888 173.71458Q24.003138 173.10521 24.753138 172.80833Q25.503138 172.49583 26.393763 172.49583Q27.346888 172.49583 28.112513 172.83958Q28.878138 173.16771 29.284388 173.82396Q29.690638 174.48021 29.690638 175.19896Q29.690638 175.73021 29.471888 176.15208Q29.237513 176.57396 28.909388 176.83958L31.940638 176.83958L31.940638 177.88646ZM26.471888 176.93333Q27.675013 176.93333 28.253138 176.44896Q28.815638 175.96458 28.815638 175.27708Q28.815638 174.57396 28.221888 174.07396Q27.628138 173.57396 26.378138 173.57396Q25.190638 173.57396 24.612513 174.05833Q24.018763 174.54271 24.018763 175.23021Q24.018763 175.90208 24.643763 176.41771Q25.268763 176.93333 26.471888 176.93333ZM27.550013 166.63646L27.675013 165.54271Q28.628138 165.79271 29.159388 166.49583Q29.690638 167.19896 29.690638 168.27708Q29.690638 169.63646 28.846888 170.44896Q28.003138 171.24583 26.487513 171.24583Q24.925013 171.24583 24.065638 170.43333Q23.190638 169.62083 23.190638 168.33958Q23.190638 167.08958 24.034388 166.30833Q24.878138 165.51146 26.425013 165.51146Q26.518763 165.51146 26.706263 165.51146L26.706263 170.15208Q27.737513 170.08958 28.284388 169.57396Q28.815638 169.05833 28.815638 168.27708Q28.815638 167.69896 28.518763 167.29271Q28.206263 166.87083 27.550013 166.63646ZM25.846888 170.08958L25.846888 166.62083Q25.050013 166.68333 24.659388 167.01146Q24.050013 167.52708 24.050013 168.32396Q24.050013 169.05833 24.534388 169.55833Q25.018763 170.04271 25.846888 170.08958ZM29.550013 163.90208L23.331263 163.90208L23.331263 162.94896L24.268763 162.94896Q23.612513 162.58958 23.409388 162.29271Q23.190638 161.98021 23.190638 161.60521Q23.190638 161.07396 23.518763 160.52708L24.503138 160.88646Q24.268763 161.27708 24.268763 161.65208Q24.268763 162.01146 24.487513 162.29271Q24.690638 162.55833 25.065638 162.66771Q25.628138 162.85521 26.284388 162.85521L29.550013 162.85521L29.550013 163.90208ZM28.784388 155.82396Q29.284388 156.41771 29.487513 156.96458Q29.690638 157.49583 29.690638 158.12083Q29.690638 159.15208 29.190638 159.69896Q28.690638 160.24583 27.909388 160.24583Q27.456263 160.24583 27.081263 160.04271Q26.690638 159.83958 26.471888 159.49583Q26.237513 159.15208 26.128138 158.73021Q26.034388 158.43333 25.956263 157.79271Q25.815638 156.52708 25.596888 155.91771Q25.378138 155.91771 25.331263 155.91771Q24.675013 155.91771 24.409388 156.21458Q24.065638 156.62083 24.065638 157.41771Q24.065638 158.15208 24.331263 158.51146Q24.581263 158.87083 25.237513 159.04271L25.096888 160.07396Q24.440638 159.93333 24.034388 159.60521Q23.628138 159.27708 23.409388 158.66771Q23.190638 158.05833 23.190638 157.26146Q23.190638 156.46458 23.378138 155.96458Q23.565638 155.46458 23.846888 155.23021Q24.128138 154.99583 24.565638 154.90208Q24.831263 154.85521 25.534388 154.85521L26.940638 154.85521Q28.409388 154.85521 28.800013 154.79271Q29.190638 154.71458 29.550013 154.51146L29.550013 155.62083Q29.221888 155.77708 28.784388 155.82396ZM26.425013 155.91771Q26.659388 156.49583 26.831263 157.63646Q26.925013 158.29271 27.050013 158.55833Q27.159388 158.82396 27.378138 158.98021Q27.596888 159.12083 27.878138 159.12083Q28.300013 159.12083 28.581263 158.80833Q28.862513 158.48021 28.862513 157.87083Q28.862513 157.26146 28.596888 156.79271Q28.331263 156.30833 27.862513 156.08958Q27.503138 155.91771 26.815638 155.91771L26.425013 155.91771ZM28.612513 150.58958L29.534388 150.43333Q29.628138 150.88646 29.628138 151.23021Q29.628138 151.80833 29.456263 152.12083Q29.268763 152.43333 28.971888 152.57396Q28.675013 152.69896 27.721888 152.69896L24.143763 152.69896L24.143763 153.46458L23.331263 153.46458L23.331263 152.69896L21.784388 152.69896L21.159388 151.65208L23.331263 151.65208L23.331263 150.58958L24.143763 150.58958L24.143763 151.65208L27.784388 151.65208Q28.237513 151.65208 28.362513 151.60521Q28.487513 151.54271 28.565638 151.41771Q28.643763 151.29271 28.643763 151.05833Q28.643763 150.87083 28.612513 150.58958ZM29.550013 145.80833L28.628138 145.80833Q29.690638 146.54271 29.690638 147.79271Q29.690638 148.33958 29.487513 148.82396Q29.268763 149.29271 28.956263 149.52708Q28.628138 149.76146 28.159388 149.85521Q27.862513 149.91771 27.175013 149.91771L23.331263 149.91771L23.331263 148.85521L26.784388 148.85521Q27.596888 148.85521 27.893763 148.79271Q28.300013 148.69896 28.550013 148.38646Q28.784388 148.05833 28.784388 147.57396Q28.784388 147.10521 28.550013 146.69896Q28.300013 146.27708 27.878138 146.10521Q27.456263 145.91771 26.659388 145.91771L23.331263 145.91771L23.331263 144.87083L29.550013 144.87083L29.550013 145.80833ZM29.550013 142.90208L23.331263 142.90208L23.331263 141.94896L24.268763 141.94896Q23.612513 141.58958 23.409388 141.29271Q23.190638 140.98021 23.190638 140.60521Q23.190638 140.07396 23.518763 139.52708L24.503138 139.88646Q24.268763 140.27708 24.268763 140.65208Q24.268763 141.01146 24.487513 141.29271Q24.690638 141.55833 25.065638 141.66771Q25.628138 141.85521 26.284388 141.85521L29.550013 141.85521L29.550013 142.90208ZM27.550013 134.63646L27.675013 133.54271Q28.628138 133.79271 29.159388 134.49583Q29.690638 135.19896 29.690638 136.27708Q29.690638 137.63646 28.846888 138.44896Q28.003138 139.24583 26.487513 139.24583Q24.925013 139.24583 24.065638 138.43333Q23.190638 137.62083 23.190638 136.33958Q23.190638 135.08958 24.034388 134.30833Q24.878138 133.51146 26.425013 133.51146Q26.518763 133.51146 26.706263 133.51146L26.706263 138.15208Q27.737513 138.08958 28.284388 137.57396Q28.815638 137.05833 28.815638 136.27708Q28.815638 135.69896 28.518763 135.29271Q28.206263 134.87083 27.550013 134.63646ZM25.846888 138.08958L25.846888 134.62083Q25.050013 134.68333 24.659388 135.01146Q24.050013 135.52708 24.050013 136.32396Q24.050013 137.05833 24.534388 137.55833Q25.018763 138.04271 25.846888 138.08958Z" fill-rule="nonzero"/><path fill="#000000" d="M65.05 300.21564Q65.05 298.6844 65.3625 297.7625Q65.675 296.825 66.28438 296.325Q66.90938 295.825 67.84688 295.825Q68.53438 295.825 69.05 296.10626Q69.58125 296.3875 69.925 296.91876Q70.26875 297.4344 70.45625 298.1844Q70.64375 298.9344 70.64375 300.21564Q70.64375 301.73126 70.33125 302.65314Q70.03438 303.575 69.40938 304.09064Q68.8 304.59064 67.84688 304.59064Q66.6125 304.59064 65.89375 303.7Q65.05 302.6375 65.05 300.21564ZM66.12813 300.21564Q66.12813 302.325 66.62813 303.02814Q67.12813 303.73126 67.84688 303.73126Q68.58125 303.73126 69.06563 303.02814Q69.56563 302.325 69.56563 300.21564Q69.56563 298.09064 69.06563 297.40314Q68.58125 296.7 67.83125 296.7Q67.1125 296.7 66.675 297.3094Q66.12813 298.09064 66.12813 300.21564Z" fill-rule="nonzero"/><path fill="#000000" d="M65.05 242.56667L66.15938 242.47292Q66.28438 243.28542 66.72188 243.69167Q67.175 244.09792 67.81563 244.09792Q68.56563 244.09792 69.09688 243.51979Q69.62813 242.94167 69.62813 242.00417Q69.62813 241.09792 69.1125 240.58229Q68.6125 240.05104 67.78438 240.05104Q67.28438 240.05104 66.8625 240.28542Q66.45625 240.51979 66.22188 240.87917L65.2375 240.75417L66.06563 236.34792L70.34688 236.34792L70.34688 237.34792L66.90938 237.34792L66.45625 239.66042Q67.22188 239.11354 68.06563 239.11354Q69.19063 239.11354 69.95625 239.89479Q70.7375 240.67604 70.7375 241.91042Q70.7375 243.06667 70.06563 243.92604Q69.2375 244.95729 67.81563 244.95729Q66.64375 244.95729 65.89375 244.30104Q65.15938 243.64479 65.05 242.56667Z" fill-rule="nonzero"/><path fill="#000000" d="M62.01875 185.18333L60.971874 185.18333L60.971874 178.46458Q60.58125 178.82396 59.95625 179.19896Q59.346874 179.55833 58.8625 179.73021L58.8625 178.71458Q59.7375 178.29271 60.39375 177.71458Q61.065624 177.12083 61.346874 176.55833L62.01875 176.55833L62.01875 185.18333ZM65.05 180.94896Q65.05 179.41771 65.3625 178.49583Q65.675 177.55833 66.28438 177.05833Q66.90938 176.55833 67.84688 176.55833Q68.53438 176.55833 69.05 176.83958Q69.58125 177.12083 69.925 177.65208Q70.26875 178.16771 70.45625 178.91771Q70.64375 179.66771 70.64375 180.94896Q70.64375 182.46458 70.33125 183.38646Q70.03438 184.30833 69.40938 184.82396Q68.8 185.32396 67.84688 185.32396Q66.6125 185.32396 65.89375 184.43333Q65.05 183.37083 65.05 180.94896ZM66.12813 180.94896Q66.12813 183.05833 66.62813 183.76146Q67.12813 184.46458 67.84688 184.46458Q68.58125 184.46458 69.06563 183.76146Q69.56563 183.05833 69.56563 180.94896Q69.56563 178.82396 69.06563 178.13646Q68.58125 177.43333 67.83125 177.43333Q67.1125 177.43333 66.675 178.04271Q66.12813 178.82396 66.12813 180.94896Z" fill-rule="nonzero"/><path fill="#000000" d="M62.01875 125.55L60.971874 125.55L60.971874 118.83125Q60.58125 119.19063 59.95625 119.56563Q59.346874 119.925 58.8625 120.09688L58.8625 119.08125Q59.7375 118.65938 60.39375 118.08125Q61.065624 117.4875 61.346874 116.925L62.01875 116.925L62.01875 125.55ZM65.05 123.3L66.15938 123.20625Q66.28438 124.01875 66.72188 124.425Q67.175 124.83125 67.81563 124.83125Q68.56563 124.83125 69.09688 124.25313Q69.62813 123.675 69.62813 122.7375Q69.62813 121.83125 69.1125 121.31563Q68.6125 120.78438 67.78438 120.78438Q67.28438 120.78438 66.8625 121.01875Q66.45625 121.25313 66.22188 121.6125L65.2375 121.4875L66.06563 117.08125L70.34688 117.08125L70.34688 118.08125L66.90938 118.08125L66.45625 120.39375Q67.22188 119.84688 68.06563 119.84688Q69.19063 119.84688 69.95625 120.62813Q70.7375 121.40938 70.7375 122.64375Q70.7375 123.8 70.06563 124.65938Q69.2375 125.69063 67.81563 125.69063Q66.64375 125.69063 65.89375 125.03438Q65.15938 124.37813 65.05 123.3Z" fill-rule="nonzero"/><path fill="#000000" d="M63.596874 64.90104L63.596874 65.916664L57.909374 65.916664Q57.909374 65.541664 58.034374 65.18229Q58.253124 64.604164 58.721874 64.041664Q59.20625 63.479164 60.1125 62.74479Q61.51875 61.58854 62.003124 60.916664Q62.503124 60.24479 62.503124 59.65104Q62.503124 59.02604 62.05 58.604164Q61.596874 58.166664 60.878124 58.166664Q60.1125 58.166664 59.659374 58.61979Q59.20625 59.072914 59.190624 59.885414L58.1125 59.77604Q58.221874 58.55729 58.940624 57.93229Q59.675 57.291664 60.909374 57.291664Q62.14375 57.291664 62.8625 57.979164Q63.58125 58.666664 63.58125 59.68229Q63.58125 60.197914 63.3625 60.697914Q63.159374 61.18229 62.659374 61.74479Q62.175 62.291664 61.05 63.24479Q60.096874 64.041664 59.815624 64.33854Q59.55 64.61979 59.378124 64.90104L63.596874 64.90104ZM65.05 61.68229Q65.05 60.15104 65.3625 59.229164Q65.675 58.291664 66.28438 57.791664Q66.90938 57.291664 67.84688 57.291664Q68.53438 57.291664 69.05 57.572914Q69.58125 57.854164 69.925 58.385414Q70.26875 58.90104 70.45625 59.65104Q70.64375 60.40104 70.64375 61.68229Q70.64375 63.197914 70.33125 64.11979Q70.03438 65.041664 69.40938 65.55729Q68.8 66.05729 67.84688 66.05729Q66.6125 66.05729 65.89375 65.166664Q65.05 64.104164 65.05 61.68229ZM66.12813 61.68229Q66.12813 63.791664 66.62813 64.49479Q67.12813 65.197914 67.84688 65.197914Q68.58125 65.197914 69.06563 64.49479Q69.56563 63.791664 69.56563 61.68229Q69.56563 59.55729 69.06563 58.86979Q68.58125 58.166664 67.83125 58.166664Q67.1125 58.166664 66.675 58.77604Q66.12813 59.55729 66.12813 61.68229Z" fill-rule="nonzero"/><path fill="#000000" d="M97.454544 313.21564Q97.454544 311.6844 97.767044 310.7625Q98.079544 309.825 98.68892 309.325Q99.31392 308.825 100.25142 308.825Q100.93892 308.825 101.454544 309.10626Q101.985794 309.3875 102.329544 309.91876Q102.673294 310.4344 102.860794 311.1844Q103.048294 311.9344 103.048294 313.21564Q103.048294 314.73126 102.735794 315.65314Q102.43892 316.575 101.81392 317.09064Q101.204544 317.59064 100.25142 317.59064Q99.017044 317.59064 98.298294 316.7Q97.454544 315.6375 97.454544 313.21564ZM98.53267 313.21564Q98.53267 315.325 99.03267 316.02814Q99.53267 316.73126 100.25142 316.73126Q100.985794 316.73126 101.47017 316.02814Q101.97017 315.325 101.97017 313.21564Q101.97017 311.09064 101.47017 310.40314Q100.985794 309.7 100.235794 309.7Q99.517044 309.7 99.079544 310.3094Q98.53267 311.09064 98.53267 313.21564Z" fill-rule="nonzero"/><path fill="#000000" d="M138.26364 313.21564Q138.26364 311.6844 138.57614 310.7625Q138.88864 309.825 139.49802 309.325Q140.12302 308.825 141.06052 308.825Q141.74802 308.825 142.26364 309.10626Q142.79489 309.3875 143.13864 309.91876Q143.48239 310.4344 143.66989 311.1844Q143.85739 311.9344 143.85739 313.21564Q143.85739 314.73126 143.54489 315.65314Q143.24802 316.575 142.62302 317.09064Q142.01364 317.59064 141.06052 317.59064Q139.82614 317.59064 139.10739 316.7Q138.26364 315.6375 138.26364 313.21564ZM139.34177 313.21564Q139.34177 315.325 139.84177 316.02814Q140.34177 316.73126 141.06052 316.73126Q141.79489 316.73126 142.27927 316.02814Q142.77927 315.325 142.77927 313.21564Q142.77927 311.09064 142.27927 310.40314Q141.79489 309.7 141.04489 309.7Q140.32614 309.7 139.88864 310.3094Q139.34177 311.09064 139.34177 313.21564ZM145.82614 317.45L145.82614 316.2469L147.02927 316.2469L147.02927 317.45Q147.02927 318.10626 146.79489 318.5125Q146.56052 318.9344 146.06052 319.15314L145.76364 318.7Q146.09177 318.5594 146.24802 318.2625Q146.40427 317.98126 146.43552 317.45L145.82614 317.45ZM152.23239 317.45L151.18552 317.45L151.18552 310.73126Q150.79489 311.09064 150.16989 311.46564Q149.56052 311.825 149.07614 311.9969L149.07614 310.98126Q149.95114 310.5594 150.60739 309.98126Q151.27927 309.3875 151.56052 308.825L152.23239 308.825L152.23239 317.45Z" fill-rule="nonzero"/><path fill="#000000" d="M184.07272 313.21564Q184.07272 311.6844 184.38522 310.7625Q184.69772 309.825 185.3071 309.325Q185.9321 308.825 186.8696 308.825Q187.5571 308.825 188.07272 309.10626Q188.60397 309.3875 188.94772 309.91876Q189.29147 310.4344 189.47897 311.1844Q189.66647 311.9344 189.66647 313.21564Q189.66647 314.73126 189.35397 315.65314Q189.0571 316.575 188.4321 317.09064Q187.82272 317.59064 186.8696 317.59064Q185.63522 317.59064 184.91647 316.7Q184.07272 315.6375 184.07272 313.21564ZM185.15085 313.21564Q185.15085 315.325 185.65085 316.02814Q186.15085 316.73126 186.8696 316.73126Q187.60397 316.73126 188.08835 316.02814Q188.58835 315.325 188.58835 313.21564Q188.58835 311.09064 188.08835 310.40314Q187.60397 309.7 186.85397 309.7Q186.13522 309.7 185.69772 310.3094Q185.15085 311.09064 185.15085 313.21564ZM191.63522 317.45L191.63522 316.2469L192.83835 316.2469L192.83835 317.45Q192.83835 318.10626 192.60397 318.5125Q192.3696 318.9344 191.8696 319.15314L191.57272 318.7Q191.90085 318.5594 192.0571 318.2625Q192.21335 317.98126 192.2446 317.45L191.63522 317.45ZM199.6196 316.4344L199.6196 317.45L193.9321 317.45Q193.9321 317.075 194.0571 316.71564Q194.27585 316.1375 194.7446 315.575Q195.22897 315.0125 196.13522 314.27814Q197.54147 313.1219 198.02585 312.45Q198.52585 311.77814 198.52585 311.1844Q198.52585 310.5594 198.07272 310.1375Q197.6196 309.7 196.90085 309.7Q196.13522 309.7 195.6821 310.15314Q195.22897 310.60626 195.21335 311.41876L194.13522 311.3094Q194.2446 310.09064 194.96335 309.46564Q195.69772 308.825 196.9321 308.825Q198.16647 308.825 198.88522 309.5125Q199.60397 310.2 199.60397 311.21564Q199.60397 311.73126 199.38522 312.23126Q199.1821 312.71564 198.6821 313.27814Q198.19772 313.825 197.07272 314.77814Q196.1196 315.575 195.83835 315.8719Q195.57272 316.15314 195.40085 316.4344L199.6196 316.4344Z" fill-rule="nonzero"/><path fill="#000000" d="M229.88182 313.21564Q229.88182 311.6844 230.19432 310.7625Q230.50682 309.825 231.1162 309.325Q231.7412 308.825 232.6787 308.825Q233.3662 308.825 233.88182 309.10626Q234.41307 309.3875 234.75682 309.91876Q235.10057 310.4344 235.28807 311.1844Q235.47557 311.9344 235.47557 313.21564Q235.47557 314.73126 235.16307 315.65314Q234.8662 316.575 234.2412 317.09064Q233.63182 317.59064 232.6787 317.59064Q231.44432 317.59064 230.72557 316.7Q229.88182 315.6375 229.88182 313.21564ZM230.95995 313.21564Q230.95995 315.325 231.45995 316.02814Q231.95995 316.73126 232.6787 316.73126Q233.41307 316.73126 233.89745 316.02814Q234.39745 315.325 234.39745 313.21564Q234.39745 311.09064 233.89745 310.40314Q233.41307 309.7 232.66307 309.7Q231.94432 309.7 231.50682 310.3094Q230.95995 311.09064 230.95995 313.21564ZM237.44432 317.45L237.44432 316.2469L238.64745 316.2469L238.64745 317.45Q238.64745 318.10626 238.41307 318.5125Q238.1787 318.9344 237.6787 319.15314L237.38182 318.7Q237.70995 318.5594 237.8662 318.2625Q238.02245 317.98126 238.0537 317.45L237.44432 317.45ZM239.88182 315.1844L240.94432 315.04376Q241.1162 315.9344 241.5537 316.34064Q241.9912 316.73126 242.6162 316.73126Q243.3662 316.73126 243.88182 316.21564Q244.39745 315.7 244.39745 314.9344Q244.39745 314.21564 243.91307 313.7469Q243.44432 313.2625 242.70995 313.2625Q242.41307 313.2625 241.95995 313.3875L242.08495 312.45Q242.19432 312.46564 242.25682 312.46564Q242.9287 312.46564 243.45995 312.1219Q244.00682 311.7625 244.00682 311.02814Q244.00682 310.45 243.6162 310.075Q243.22557 309.6844 242.60057 309.6844Q241.9912 309.6844 241.56932 310.075Q241.16307 310.46564 241.0537 311.23126L239.9912 311.04376Q240.1787 309.9969 240.8662 309.41876Q241.5537 308.825 242.56932 308.825Q243.27245 308.825 243.8662 309.1375Q244.45995 309.4344 244.77245 309.95Q245.08495 310.46564 245.08495 311.0594Q245.08495 311.60626 244.78807 312.075Q244.4912 312.52814 243.91307 312.79376Q244.66307 312.96564 245.08495 313.52814Q245.50682 314.075 245.50682 314.91876Q245.50682 316.04376 244.6787 316.825Q243.8662 317.60626 242.6162 317.60626Q241.4912 317.60626 240.7412 316.9344Q239.9912 316.2469 239.88182 315.1844Z" fill-rule="nonzero"/><path fill="#000000" d="M275.69092 313.21564Q275.69092 311.6844 276.00342 310.7625Q276.31592 309.825 276.9253 309.325Q277.5503 308.825 278.4878 308.825Q279.1753 308.825 279.69092 309.10626Q280.22217 309.3875 280.56592 309.91876Q280.90967 310.4344 281.09717 311.1844Q281.28467 311.9344 281.28467 313.21564Q281.28467 314.73126 280.97217 315.65314Q280.6753 316.575 280.0503 317.09064Q279.44092 317.59064 278.4878 317.59064Q277.25342 317.59064 276.53467 316.7Q275.69092 315.6375 275.69092 313.21564ZM276.76904 313.21564Q276.76904 315.325 277.26904 316.02814Q277.76904 316.73126 278.4878 316.73126Q279.22217 316.73126 279.70654 316.02814Q280.20654 315.325 280.20654 313.21564Q280.20654 311.09064 279.70654 310.40314Q279.22217 309.7 278.47217 309.7Q277.75342 309.7 277.31592 310.3094Q276.76904 311.09064 276.76904 313.21564ZM283.25342 317.45L283.25342 316.2469L284.45654 316.2469L284.45654 317.45Q284.45654 318.10626 284.22217 318.5125Q283.9878 318.9344 283.4878 319.15314L283.19092 318.7Q283.51904 318.5594 283.6753 318.2625Q283.83154 317.98126 283.8628 317.45L283.25342 317.45ZM289.06592 317.45L289.06592 315.3875L285.34717 315.3875L285.34717 314.41876L289.26904 308.85626L290.12842 308.85626L290.12842 314.41876L291.28467 314.41876L291.28467 315.3875L290.12842 315.3875L290.12842 317.45L289.06592 317.45ZM289.06592 314.41876L289.06592 310.5594L286.37842 314.41876L289.06592 314.41876Z" fill-rule="nonzero"/><path fill="#000000" d="M321.5 313.21564Q321.5 311.6844 321.8125 310.7625Q322.125 309.825 322.73438 309.325Q323.35938 308.825 324.29688 308.825Q324.98438 308.825 325.5 309.10626Q326.03125 309.3875 326.375 309.91876Q326.71875 310.4344 326.90625 311.1844Q327.09375 311.9344 327.09375 313.21564Q327.09375 314.73126 326.78125 315.65314Q326.48438 316.575 325.85938 317.09064Q325.25 317.59064 324.29688 317.59064Q323.0625 317.59064 322.34375 316.7Q321.5 315.6375 321.5 313.21564ZM322.57812 313.21564Q322.57812 315.325 323.07812 316.02814Q323.57812 316.73126 324.29688 316.73126Q325.03125 316.73126 325.51562 316.02814Q326.01562 315.325 326.01562 313.21564Q326.01562 311.09064 325.51562 310.40314Q325.03125 309.7 324.28125 309.7Q323.5625 309.7 323.125 310.3094Q322.57812 311.09064 322.57812 313.21564ZM329.0625 317.45L329.0625 316.2469L330.26562 316.2469L330.26562 317.45Q330.26562 318.10626 330.03125 318.5125Q329.79688 318.9344 329.29688 319.15314L329.0 318.7Q329.32812 318.5594 329.48438 318.2625Q329.64062 317.98126 329.67188 317.45L329.0625 317.45ZM331.5 315.2L332.60938 315.10626Q332.73438 315.91876 333.17188 316.325Q333.625 316.73126 334.26562 316.73126Q335.01562 316.73126 335.54688 316.15314Q336.07812 315.575 336.07812 314.6375Q336.07812 313.73126 335.5625 313.21564Q335.0625 312.6844 334.23438 312.6844Q333.73438 312.6844 333.3125 312.91876Q332.90625 313.15314 332.67188 313.5125L331.6875 313.3875L332.51562 308.98126L336.79688 308.98126L336.79688 309.98126L333.35938 309.98126L332.90625 312.29376Q333.67188 311.7469 334.51562 311.7469Q335.64062 311.7469 336.40625 312.52814Q337.1875 313.3094 337.1875 314.54376Q337.1875 315.7 336.51562 316.5594Q335.6875 317.59064 334.26562 317.59064Q333.09375 317.59064 332.34375 316.9344Q331.60938 316.27814 331.5 315.2Z" fill-rule="nonzero"/><path fill="#000000" d="M367.30908 313.21564Q367.30908 311.6844 367.62158 310.7625Q367.93408 309.825 368.54346 309.325Q369.16846 308.825 370.10596 308.825Q370.79346 308.825 371.30908 309.10626Q371.84033 309.3875 372.18408 309.91876Q372.52783 310.4344 372.71533 311.1844Q372.90283 311.9344 372.90283 313.21564Q372.90283 314.73126 372.59033 315.65314Q372.29346 316.575 371.66846 317.09064Q371.05908 317.59064 370.10596 317.59064Q368.87158 317.59064 368.15283 316.7Q367.30908 315.6375 367.30908 313.21564ZM368.3872 313.21564Q368.3872 315.325 368.8872 316.02814Q369.3872 316.73126 370.10596 316.73126Q370.84033 316.73126 371.3247 316.02814Q371.8247 315.325 371.8247 313.21564Q371.8247 311.09064 371.3247 310.40314Q370.84033 309.7 370.09033 309.7Q369.37158 309.7 368.93408 310.3094Q368.3872 311.09064 368.3872 313.21564ZM374.87158 317.45L374.87158 316.2469L376.0747 316.2469L376.0747 317.45Q376.0747 318.10626 375.84033 318.5125Q375.60596 318.9344 375.10596 319.15314L374.80908 318.7Q375.1372 318.5594 375.29346 318.2625Q375.4497 317.98126 375.48096 317.45L374.87158 317.45ZM382.77783 310.96564L381.73096 311.04376Q381.59033 310.41876 381.34033 310.1375Q380.90283 309.6844 380.27783 309.6844Q379.77783 309.6844 379.3872 309.96564Q378.90283 310.34064 378.60596 311.04376Q378.3247 311.73126 378.30908 313.0125Q378.68408 312.4344 379.23096 312.15314Q379.79346 311.8719 380.40283 311.8719Q381.4497 311.8719 382.18408 312.65314Q382.93408 313.4344 382.93408 314.65314Q382.93408 315.46564 382.5747 316.16876Q382.23096 316.85626 381.62158 317.23126Q381.0122 317.59064 380.24658 317.59064Q378.91846 317.59064 378.09033 316.6219Q377.2622 315.65314 377.2622 313.4344Q377.2622 310.9344 378.18408 309.8094Q378.98096 308.825 380.34033 308.825Q381.35596 308.825 381.99658 309.40314Q382.65283 309.96564 382.77783 310.96564ZM378.48096 314.66876Q378.48096 315.21564 378.6997 315.71564Q378.93408 316.2 379.34033 316.46564Q379.7622 316.73126 380.23096 316.73126Q380.8872 316.73126 381.37158 316.2Q381.85596 315.65314 381.85596 314.73126Q381.85596 313.84064 381.37158 313.325Q380.90283 312.8094 380.18408 312.8094Q379.46533 312.8094 378.96533 313.325Q378.48096 313.84064 378.48096 314.66876Z" fill-rule="nonzero"/><path fill="#000000" d="M413.1182 313.21564Q413.1182 311.6844 413.4307 310.7625Q413.7432 309.825 414.35257 309.325Q414.97757 308.825 415.91507 308.825Q416.60257 308.825 417.1182 309.10626Q417.64944 309.3875 417.9932 309.91876Q418.33694 310.4344 418.52444 311.1844Q418.71194 311.9344 418.71194 313.21564Q418.71194 314.73126 418.39944 315.65314Q418.10257 316.575 417.47757 317.09064Q416.8682 317.59064 415.91507 317.59064Q414.6807 317.59064 413.96194 316.7Q413.1182 315.6375 413.1182 313.21564ZM414.19632 313.21564Q414.19632 315.325 414.69632 316.02814Q415.19632 316.73126 415.91507 316.73126Q416.64944 316.73126 417.13382 316.02814Q417.63382 315.325 417.63382 313.21564Q417.63382 311.09064 417.13382 310.40314Q416.64944 309.7 415.89944 309.7Q415.1807 309.7 414.7432 310.3094Q414.19632 311.09064 414.19632 313.21564ZM420.6807 317.45L420.6807 316.2469L421.88382 316.2469L421.88382 317.45Q421.88382 318.10626 421.64944 318.5125Q421.41507 318.9344 420.91507 319.15314L420.6182 318.7Q420.94632 318.5594 421.10257 318.2625Q421.25882 317.98126 421.29007 317.45L420.6807 317.45ZM423.1807 309.98126L423.1807 308.96564L428.7432 308.96564L428.7432 309.79376Q427.9307 310.66876 427.1182 312.1219Q426.32132 313.5594 425.88382 315.09064Q425.5557 316.16876 425.47757 317.45L424.38382 317.45Q424.39944 316.4344 424.77444 314.9969Q425.16507 313.5594 425.8682 312.23126Q426.58694 310.90314 427.39944 309.98126L423.1807 309.98126Z" fill-rule="nonzero"/><path fill="#000000" d="M458.92728 313.21564Q458.92728 311.6844 459.23978 310.7625Q459.55228 309.825 460.16165 309.325Q460.78665 308.825 461.72415 308.825Q462.41165 308.825 462.92728 309.10626Q463.45853 309.3875 463.80228 309.91876Q464.14603 310.4344 464.33353 311.1844Q464.52103 311.9344 464.52103 313.21564Q464.52103 314.73126 464.20853 315.65314Q463.91165 316.575 463.28665 317.09064Q462.67728 317.59064 461.72415 317.59064Q460.48978 317.59064 459.77103 316.7Q458.92728 315.6375 458.92728 313.21564ZM460.0054 313.21564Q460.0054 315.325 460.5054 316.02814Q461.0054 316.73126 461.72415 316.73126Q462.45853 316.73126 462.9429 316.02814Q463.4429 315.325 463.4429 313.21564Q463.4429 311.09064 462.9429 310.40314Q462.45853 309.7 461.70853 309.7Q460.98978 309.7 460.55228 310.3094Q460.0054 311.09064 460.0054 313.21564ZM466.48978 317.45L466.48978 316.2469L467.6929 316.2469L467.6929 317.45Q467.6929 318.10626 467.45853 318.5125Q467.22415 318.9344 466.72415 319.15314L466.42728 318.7Q466.7554 318.5594 466.91165 318.2625Q467.0679 317.98126 467.09915 317.45L466.48978 317.45ZM470.55228 312.79376Q469.89603 312.54376 469.5679 312.10626Q469.2554 311.65314 469.2554 311.04376Q469.2554 310.10626 469.92728 309.46564Q470.61478 308.825 471.72415 308.825Q472.84915 308.825 473.53665 309.48126Q474.22415 310.1375 474.22415 311.075Q474.22415 311.66876 473.91165 312.10626Q473.59915 312.54376 472.95853 312.79376Q473.7554 313.04376 474.16165 313.6219Q474.5679 314.2 474.5679 314.9969Q474.5679 316.09064 473.78665 316.84064Q473.02103 317.59064 471.73978 317.59064Q470.47415 317.59064 469.6929 316.84064Q468.91165 316.09064 468.91165 314.96564Q468.91165 314.1219 469.33353 313.5594Q469.77103 312.9969 470.55228 312.79376ZM470.33353 310.9969Q470.33353 311.60626 470.72415 311.9969Q471.1304 312.3875 471.7554 312.3875Q472.36478 312.3875 472.7554 312.0125Q473.14603 311.6219 473.14603 311.0594Q473.14603 310.48126 472.73978 310.09064Q472.33353 309.6844 471.73978 309.6844Q471.1304 309.6844 470.72415 310.075Q470.33353 310.46564 470.33353 310.9969ZM470.0054 314.96564Q470.0054 315.41876 470.20853 315.84064Q470.42728 316.2625 470.84915 316.4969Q471.27103 316.73126 471.7554 316.73126Q472.5054 316.73126 472.98978 316.2469Q473.48978 315.7625 473.48978 315.0125Q473.48978 314.2469 472.98978 313.7469Q472.48978 313.2469 471.72415 313.2469Q470.97415 313.2469 470.48978 313.7469Q470.0054 314.23126 470.0054 314.96564Z" fill-rule="nonzero"/><path fill="#000000" d="M504.73636 313.21564Q504.73636 311.6844 505.04886 310.7625Q505.36136 309.825 505.97073 309.325Q506.59573 308.825 507.53323 308.825Q508.22073 308.825 508.73636 309.10626Q509.2676 309.3875 509.61136 309.91876Q509.9551 310.4344 510.1426 311.1844Q510.3301 311.9344 510.3301 313.21564Q510.3301 314.73126 510.0176 315.65314Q509.72073 316.575 509.09573 317.09064Q508.48636 317.59064 507.53323 317.59064Q506.29886 317.59064 505.5801 316.7Q504.73636 315.6375 504.73636 313.21564ZM505.81448 313.21564Q505.81448 315.325 506.31448 316.02814Q506.81448 316.73126 507.53323 316.73126Q508.2676 316.73126 508.75198 316.02814Q509.25198 315.325 509.25198 313.21564Q509.25198 311.09064 508.75198 310.40314Q508.2676 309.7 507.5176 309.7Q506.79886 309.7 506.36136 310.3094Q505.81448 311.09064 505.81448 313.21564ZM512.2988 317.45L512.2988 316.2469L513.50195 316.2469L513.50195 317.45Q513.50195 318.10626 513.2676 318.5125Q513.0332 318.9344 512.5332 319.15314L512.2363 318.7Q512.56445 318.5594 512.7207 318.2625Q512.87695 317.98126 512.9082 317.45L512.2988 317.45ZM514.8926 315.46564L515.9082 315.3719Q516.0332 316.09064 516.3926 316.41876Q516.7676 316.73126 517.3301 316.73126Q517.81445 316.73126 518.1738 316.5125Q518.5488 316.27814 518.7832 315.91876Q519.0176 315.54376 519.1738 314.91876Q519.3301 314.27814 519.3301 313.6219Q519.3301 313.54376 519.3301 313.40314Q519.0176 313.90314 518.4707 314.23126Q517.9238 314.54376 517.2832 314.54376Q516.2051 314.54376 515.4707 313.77814Q514.7363 312.9969 514.7363 311.73126Q514.7363 310.41876 515.50195 309.6219Q516.2832 308.825 517.43945 308.825Q518.2676 308.825 518.9551 309.27814Q519.6582 309.73126 520.0176 310.575Q520.37695 311.40314 520.37695 312.98126Q520.37695 314.6219 520.0176 315.60626Q519.6738 316.575 518.9551 317.09064Q518.25195 317.59064 517.31445 317.59064Q516.2988 317.59064 515.6582 317.04376Q515.0176 316.48126 514.8926 315.46564ZM519.2051 311.66876Q519.2051 310.7625 518.7207 310.23126Q518.25195 309.7 517.56445 309.7Q516.8613 309.7 516.3301 310.27814Q515.81445 310.84064 515.81445 311.7625Q515.81445 312.575 516.31445 313.09064Q516.81445 313.60626 517.5332 313.60626Q518.2676 313.60626 518.7363 313.09064Q519.2051 312.575 519.2051 311.66876Z" fill-rule="nonzero"/><path fill="#000000" d="M559.5142 317.45L558.46735 317.45L558.46735 310.73126Q558.0767 311.09064 557.4517 311.46564Q556.84235 311.825 556.358 311.9969L556.358 310.98126Q557.233 310.5594 557.8892 309.98126Q558.5611 309.3875 558.84235 308.825L559.5142 308.825L559.5142 317.45Z" fill-rule="nonzero"/><path fill="#757575" d="M26.8 31.940624L26.8 30.253124L32.8625 30.2375L32.8625 35.55Q31.45625 36.675 29.971874 37.2375Q28.4875 37.8 26.925 37.8Q24.815624 37.8 23.096874 36.89375Q21.378124 35.9875 20.4875 34.284374Q19.6125 32.565624 19.6125 30.45625Q19.6125 28.3625 20.4875 26.565624Q21.3625 24.753124 23.003124 23.878124Q24.64375 22.9875 26.784374 22.9875Q28.33125 22.9875 29.58125 23.4875Q30.846874 23.9875 31.55 24.89375Q32.26875 25.784374 32.64375 27.2375L30.940624 27.70625Q30.6125 26.6125 30.128124 25.9875Q29.659374 25.3625 28.76875 24.9875Q27.878124 24.6125 26.8 24.6125Q25.4875 24.6125 24.534374 25.003124Q23.596874 25.39375 23.01875 26.05Q22.440624 26.690624 22.1125 27.45625Q21.565624 28.784374 21.565624 30.346874Q21.565624 32.253124 22.221874 33.55Q22.89375 34.83125 24.14375 35.45625Q25.409374 36.08125 26.815624 36.08125Q28.05 36.08125 29.221874 35.6125Q30.39375 35.14375 31.003124 34.596874L31.003124 31.940624L26.8 31.940624ZM35.83125 37.55L35.83125 23.2375L37.58125 23.2375L37.58125 37.55L35.83125 37.55ZM39.221874 32.3625Q39.221874 29.4875 40.815624 28.096874Q42.159374 26.940624 44.08125 26.940624Q46.221874 26.940624 47.565624 28.346874Q48.925 29.753124 48.925 32.221874Q48.925 34.221874 48.33125 35.378124Q47.7375 36.51875 46.58125 37.159374Q45.440624 37.784374 44.08125 37.784374Q41.89375 37.784374 40.55 36.39375Q39.221874 34.9875 39.221874 32.3625ZM41.01875 32.3625Q41.01875 34.3625 41.878124 35.346874Q42.753124 36.33125 44.08125 36.33125Q45.39375 36.33125 46.253124 35.346874Q47.128124 34.346874 47.128124 32.3Q47.128124 30.378124 46.253124 29.39375Q45.378124 28.39375 44.08125 28.39375Q42.753124 28.39375 41.878124 29.39375Q41.01875 30.378124 41.01875 32.3625ZM52.4875 37.55L50.8625 37.55L50.8625 23.2375L52.6125 23.2375L52.6125 28.346874Q53.7375 26.940624 55.45625 26.940624Q56.409374 26.940624 57.26875 27.33125Q58.128124 27.721874 58.675 28.425Q59.221874 29.1125 59.534374 30.096874Q59.846874 31.08125 59.846874 32.20625Q59.846874 34.878124 58.534374 36.33125Q57.221874 37.784374 55.378124 37.784374Q53.534374 37.784374 52.4875 36.253124L52.4875 37.55ZM52.471874 32.284374Q52.471874 34.14375 52.971874 34.9875Q53.815624 36.33125 55.221874 36.33125Q56.378124 36.33125 57.20625 35.33125Q58.05 34.33125 58.05 32.346874Q58.05 30.315624 57.2375 29.3625Q56.440624 28.39375 55.3 28.39375Q54.14375 28.39375 53.3 29.39375Q52.471874 30.39375 52.471874 32.284374ZM68.64375 36.26875Q67.65938 37.096874 66.75313 37.440624Q65.84688 37.784374 64.81563 37.784374Q63.1125 37.784374 62.190624 36.95625Q61.26875 36.1125 61.26875 34.815624Q61.26875 34.05 61.6125 33.425Q61.971874 32.8 62.534374 32.425Q63.096874 32.034374 63.8 31.83125Q64.31563 31.70625 65.3625 31.565624Q67.4875 31.315624 68.4875 30.971874Q68.50313 30.6125 68.50313 30.503124Q68.50313 29.440624 68.00313 28.9875Q67.33125 28.39375 66.00313 28.39375Q64.75313 28.39375 64.15938 28.83125Q63.58125 29.26875 63.3 30.378124L61.58125 30.14375Q61.815624 29.034374 62.346874 28.3625Q62.878124 27.675 63.89375 27.315624Q64.90938 26.940624 66.25313 26.940624Q67.58125 26.940624 68.40938 27.253124Q69.2375 27.565624 69.62813 28.05Q70.01875 28.51875 70.175 29.2375Q70.26875 29.690624 70.26875 30.8625L70.26875 33.20625Q70.26875 35.659374 70.37813 36.315624Q70.4875 36.95625 70.83125 37.55L68.9875 37.55Q68.72188 37.003124 68.64375 36.26875ZM68.4875 32.346874Q67.53438 32.7375 65.6125 33.003124Q64.53438 33.159374 64.08125 33.3625Q63.64375 33.55 63.39375 33.925Q63.14375 34.3 63.14375 34.76875Q63.14375 35.471874 63.675 35.940624Q64.20625 36.409374 65.2375 36.409374Q66.25313 36.409374 67.03438 35.971874Q67.83125 35.51875 68.20625 34.753124Q68.4875 34.14375 68.4875 32.9875L68.4875 32.346874ZM72.83125 37.55L72.83125 23.2375L74.58125 23.2375L74.58125 37.55L72.83125 37.55ZM86.7375 37.55L86.7375 24.925L82.01875 24.925L82.01875 23.2375L93.3625 23.2375L93.3625 24.925L88.62813 24.925L88.62813 37.55L86.7375 37.55ZM101.97188 34.20625L103.78438 34.440624Q103.3625 36.01875 102.19063 36.909374Q101.03438 37.784374 99.22188 37.784374Q96.95625 37.784374 95.6125 36.39375Q94.28438 34.9875 94.28438 32.45625Q94.28438 29.83125 95.62813 28.39375Q96.97188 26.940624 99.12813 26.940624Q101.20625 26.940624 102.51875 28.3625Q103.84688 29.76875 103.84688 32.346874Q103.84688 32.503124 103.83125 32.815624L96.09688 32.815624Q96.19063 34.51875 97.06563 35.425Q97.94063 36.33125 99.2375 36.33125Q100.20625 36.33125 100.87813 35.83125Q101.56563 35.315624 101.97188 34.20625ZM96.19063 31.3625L101.9875 31.3625Q101.87813 30.065624 101.33125 29.409374Q100.4875 28.39375 99.14375 28.39375Q97.94063 28.39375 97.1125 29.20625Q96.28438 30.003124 96.19063 31.3625ZM105.8625 37.55L105.8625 27.175L107.44063 27.175L107.44063 28.628124Q107.925 27.878124 108.7375 27.409374Q109.55 26.940624 110.58125 26.940624Q111.7375 26.940624 112.47188 27.425Q113.20625 27.89375 113.51875 28.753124Q114.75313 26.940624 116.72188 26.940624Q118.26875 26.940624 119.09688 27.8Q119.925 28.659374 119.925 30.425L119.925 37.55L118.175 37.55L118.175 31.01875Q118.175 29.95625 118.00313 29.503124Q117.83125 29.034374 117.37813 28.753124Q116.94063 28.471874 116.33125 28.471874Q115.2375 28.471874 114.50313 29.20625Q113.78438 29.925 113.78438 31.51875L113.78438 37.55L112.03438 37.55L112.03438 30.815624Q112.03438 29.64375 111.59688 29.065624Q111.175 28.471874 110.19063 28.471874Q109.45625 28.471874 108.81563 28.8625Q108.19063 29.253124 107.90938 30.003124Q107.62813 30.753124 107.62813 32.175L107.62813 37.55L105.8625 37.55ZM121.8625 41.51875L121.8625 27.175L123.47188 27.175L123.47188 28.51875Q124.03438 27.7375 124.7375 27.346874Q125.45625 26.940624 126.47188 26.940624Q127.8 26.940624 128.81563 27.628124Q129.83125 28.315624 130.34688 29.565624Q130.87813 30.8 130.87813 32.284374Q130.87813 33.878124 130.3 35.159374Q129.7375 36.425 128.64375 37.1125Q127.55 37.784374 126.34688 37.784374Q125.47188 37.784374 124.76875 37.409374Q124.08125 37.034374 123.62813 36.471874L123.62813 41.51875L121.8625 41.51875ZM123.45625 32.425Q123.45625 34.425 124.26875 35.378124Q125.08125 36.33125 126.2375 36.33125Q127.40938 36.33125 128.2375 35.346874Q129.08125 34.3625 129.08125 32.26875Q129.08125 30.3 128.25313 29.315624Q127.44063 28.315624 126.31563 28.315624Q125.19063 28.315624 124.31563 29.378124Q123.45625 30.425 123.45625 32.425ZM139.97188 34.20625L141.78438 34.440624Q141.3625 36.01875 140.19063 36.909374Q139.03438 37.784374 137.22188 37.784374Q134.95625 37.784374 133.6125 36.39375Q132.28438 34.9875 132.28438 32.45625Q132.28438 29.83125 133.62813 28.39375Q134.97188 26.940624 137.12813 26.940624Q139.20625 26.940624 140.51875 28.3625Q141.84688 29.76875 141.84688 32.346874Q141.84688 32.503124 141.83125 32.815624L134.09688 32.815624Q134.19063 34.51875 135.06563 35.425Q135.94063 36.33125 137.2375 36.33125Q138.20625 36.33125 138.87813 35.83125Q139.56563 35.315624 139.97188 34.20625ZM134.19063 31.3625L139.9875 31.3625Q139.87813 30.065624 139.33125 29.409374Q138.4875 28.39375 137.14375 28.39375Q135.94063 28.39375 135.1125 29.20625Q134.28438 30.003124 134.19063 31.3625ZM143.84688 37.55L143.84688 27.175L145.425 27.175L145.425 28.753124Q146.03438 27.64375 146.55 27.3Q147.06563 26.940624 147.675 26.940624Q148.56563 26.940624 149.4875 27.503124L148.87813 29.14375Q148.2375 28.753124 147.59688 28.753124Q147.01875 28.753124 146.55 29.1125Q146.09688 29.45625 145.89375 30.065624Q145.6125 31.003124 145.6125 32.1125L145.6125 37.55L143.84688 37.55ZM157.64375 36.26875Q156.65938 37.096874 155.75313 37.440624Q154.84688 37.784374 153.81563 37.784374Q152.1125 37.784374 151.19063 36.95625Q150.26875 36.1125 150.26875 34.815624Q150.26875 34.05 150.6125 33.425Q150.97188 32.8 151.53438 32.425Q152.09688 32.034374 152.8 31.83125Q153.31563 31.70625 154.3625 31.565624Q156.4875 31.315624 157.4875 30.971874Q157.50313 30.6125 157.50313 30.503124Q157.50313 29.440624 157.00313 28.9875Q156.33125 28.39375 155.00313 28.39375Q153.75313 28.39375 153.15938 28.83125Q152.58125 29.26875 152.3 30.378124L150.58125 30.14375Q150.81563 29.034374 151.34688 28.3625Q151.87813 27.675 152.89375 27.315624Q153.90938 26.940624 155.25313 26.940624Q156.58125 26.940624 157.40938 27.253124Q158.2375 27.565624 158.62813 28.05Q159.01875 28.51875 159.175 29.2375Q159.26875 29.690624 159.26875 30.8625L159.26875 33.20625Q159.26875 35.659374 159.37813 36.315624Q159.4875 36.95625 159.83125 37.55L157.9875 37.55Q157.72188 37.003124 157.64375 36.26875ZM157.4875 32.346874Q156.53438 32.7375 154.6125 33.003124Q153.53438 33.159374 153.08125 33.3625Q152.64375 33.55 152.39375 33.925Q152.14375 34.3 152.14375 34.76875Q152.14375 35.471874 152.675 35.940624Q153.20625 36.409374 154.2375 36.409374Q155.25313 36.409374 156.03438 35.971874Q156.83125 35.51875 157.20625 34.753124Q157.4875 34.14375 157.4875 32.9875L157.4875 32.346874ZM165.70625 35.971874L165.95625 37.534374Q165.22188 37.690624 164.62813 37.690624Q163.675 37.690624 163.14375 37.39375Q162.62813 37.08125 162.40938 36.596874Q162.19063 36.096874 162.19063 34.51875L162.19063 28.55L160.90938 28.55L160.90938 27.175L162.19063 27.175L162.19063 24.6125L163.94063 23.55L163.94063 27.175L165.70625 27.175L165.70625 28.55L163.94063 28.55L163.94063 34.6125Q163.94063 35.3625 164.03438 35.58125Q164.12813 35.784374 164.33125 35.925Q164.55 36.05 164.94063 36.05Q165.22188 36.05 165.70625 35.971874ZM174.65938 37.55L174.65938 36.01875Q173.45625 37.784374 171.37813 37.784374Q170.45625 37.784374 169.65938 37.440624Q168.8625 37.08125 168.47188 36.55Q168.09688 36.01875 167.94063 35.2375Q167.83125 34.721874 167.83125 33.596874L167.83125 27.175L169.58125 27.175L169.58125 32.925Q169.58125 34.3 169.69063 34.784374Q169.8625 35.471874 170.39375 35.878124Q170.94063 36.26875 171.72188 36.26875Q172.51875 36.26875 173.20625 35.8625Q173.90938 35.45625 174.19063 34.76875Q174.4875 34.065624 174.4875 32.7375L174.4875 27.175L176.2375 27.175L176.2375 37.55L174.65938 37.55ZM177.84688 37.55L177.84688 27.175L179.425 27.175L179.425 28.753124Q180.03438 27.64375 180.55 27.3Q181.06563 26.940624 181.675 26.940624Q182.56563 26.940624 183.4875 27.503124L182.87813 29.14375Q182.2375 28.753124 181.59688 28.753124Q181.01875 28.753124 180.55 29.1125Q180.09688 29.45625 179.89375 30.065624Q179.6125 31.003124 179.6125 32.1125L179.6125 37.55L177.84688 37.55ZM191.97188 34.20625L193.78438 34.440624Q193.3625 36.01875 192.19063 36.909374Q191.03438 37.784374 189.22188 37.784374Q186.95625 37.784374 185.6125 36.39375Q184.28438 34.9875 184.28438 32.45625Q184.28438 29.83125 185.62813 28.39375Q186.97188 26.940624 189.12813 26.940624Q191.20625 26.940624 192.51875 28.3625Q193.84688 29.76875 193.84688 32.346874Q193.84688 32.503124 193.83125 32.815624L186.09688 32.815624Q186.19063 34.51875 187.06563 35.425Q187.94063 36.33125 189.2375 36.33125Q190.20625 36.33125 190.87813 35.83125Q191.56563 35.315624 191.97188 34.20625ZM186.19063 31.3625L191.9875 31.3625Q191.87813 30.065624 191.33125 29.409374Q190.4875 28.39375 189.14375 28.39375Q187.94063 28.39375 187.1125 29.20625Q186.28438 30.003124 186.19063 31.3625ZM194.55 37.8L198.70625 22.9875L200.1125 22.9875L195.97188 37.8L194.55 37.8ZM200.51875 37.55L206.01875 23.2375L208.06563 23.2375L213.925 37.55L211.76875 37.55L210.09688 33.20625L204.1125 33.20625L202.53438 37.55L200.51875 37.55ZM204.65938 31.675L209.50313 31.675L208.01875 27.70625Q207.33125 25.89375 207.00313 24.7375Q206.72188 26.1125 206.22188 27.471874L204.65938 31.675ZM214.83125 37.55L214.83125 23.2375L216.58125 23.2375L216.58125 37.55L214.83125 37.55ZM220.4875 37.55L218.8625 37.55L218.8625 23.2375L220.6125 23.2375L220.6125 28.346874Q221.7375 26.940624 223.45625 26.940624Q224.40938 26.940624 225.26875 27.33125Q226.12813 27.721874 226.675 28.425Q227.22188 29.1125 227.53438 30.096874Q227.84688 31.08125 227.84688 32.20625Q227.84688 34.878124 226.53438 36.33125Q225.22188 37.784374 223.37813 37.784374Q221.53438 37.784374 220.4875 36.253124L220.4875 37.55ZM220.47188 32.284374Q220.47188 34.14375 220.97188 34.9875Q221.81563 36.33125 223.22188 36.33125Q224.37813 36.33125 225.20625 35.33125Q226.05 34.33125 226.05 32.346874Q226.05 30.315624 225.2375 29.3625Q224.44063 28.39375 223.3 28.39375Q222.14375 28.39375 221.3 29.39375Q220.47188 30.39375 220.47188 32.284374ZM236.97188 34.20625L238.78438 34.440624Q238.3625 36.01875 237.19063 36.909374Q236.03438 37.784374 234.22188 37.784374Q231.95625 37.784374 230.6125 36.39375Q229.28438 34.9875 229.28438 32.45625Q229.28438 29.83125 230.62813 28.39375Q231.97188 26.940624 234.12813 26.940624Q236.20625 26.940624 237.51875 28.3625Q238.84688 29.76875 238.84688 32.346874Q238.84688 32.503124 238.83125 32.815624L231.09688 32.815624Q231.19063 34.51875 232.06563 35.425Q232.94063 36.33125 234.2375 36.33125Q235.20625 36.33125 235.87813 35.83125Q236.56563 35.315624 236.97188 34.20625ZM231.19063 31.3625L236.9875 31.3625Q236.87813 30.065624 236.33125 29.409374Q235.4875 28.39375 234.14375 28.39375Q232.94063 28.39375 232.1125 29.20625Q231.28438 30.003124 231.19063 31.3625ZM247.59688 37.55L247.59688 36.2375Q246.6125 37.784374 244.69063 37.784374Q243.45625 37.784374 242.40938 37.096874Q241.37813 36.409374 240.8 35.190624Q240.2375 33.971874 240.2375 32.378124Q240.2375 30.815624 240.75313 29.55Q241.26875 28.284374 242.3 27.6125Q243.34688 26.940624 244.6125 26.940624Q245.55 26.940624 246.28438 27.346874Q247.01875 27.7375 247.4875 28.3625L247.4875 23.2375L249.22188 23.2375L249.22188 37.55L247.59688 37.55ZM242.03438 32.378124Q242.03438 34.3625 242.87813 35.346874Q243.72188 36.33125 244.8625 36.33125Q246.01875 36.33125 246.81563 35.39375Q247.62813 34.45625 247.62813 32.51875Q247.62813 30.39375 246.8 29.39375Q245.9875 28.39375 244.78438 28.39375Q243.6125 28.39375 242.81563 29.3625Q242.03438 30.315624 242.03438 32.378124ZM251.22188 32.3625Q251.22188 29.4875 252.81563 28.096874Q254.15938 26.940624 256.08124 26.940624Q258.22186 26.940624 259.5656 28.346874Q260.925 29.753124 260.925 32.221874Q260.925 34.221874 260.33124 35.378124Q259.7375 36.51875 258.58124 37.159374Q257.4406 37.784374 256.08124 37.784374Q253.89375 37.784374 252.55 36.39375Q251.22188 34.9875 251.22188 32.3625ZM253.01875 32.3625Q253.01875 34.3625 253.87813 35.346874Q254.75313 36.33125 256.08124 36.33125Q257.39374 36.33125 258.2531 35.346874Q259.1281 34.346874 259.1281 32.3Q259.1281 30.378124 258.2531 29.39375Q257.3781 28.39375 256.08124 28.39375Q254.75313 28.39375 253.87813 29.39375Q253.01875 30.378124 253.01875 32.3625Z" fill-rule="nonzero"/></svg>