<svg version="1.1" viewBox="0.0 0.0 600.0 371.0" fill="none" stroke="none" stroke-linecap="square" stroke-miterlimit="10" width="600" height="371" xmlns:xlink="http://www.w3.org/1999/xlink" xmlns="http://www.w3.org/2000/svg"><path fill="#ffffff" d="M0 0L600.0 0L600.0 371.0L0 371.0L0 0Z" fill-rule="nonzero"/><path stroke="#333333" stroke-width="1.0" stroke-linecap="butt" d="M77.5 61.5L77.5 300.5" fill-rule="nonzero"/><path stroke="#cccccc" stroke-width="1.0" stroke-linecap="butt" d="M178.5 61.5L178.5 300.5" fill-rule="nonzero"/><path stroke="#cccccc" stroke-width="1.0" stroke-linecap="butt" d="M279.5 61.5L279.5 300.5" fill-rule="nonzero"/><path stroke="#cccccc" stroke-width="1.0" stroke-linecap="butt" d="M379.5 61.5L379.5 300.5" fill-rule="nonzero"/><path stroke="#cccccc" stroke-width="1.0" stroke-linecap="butt" d="M480.5 61.5L480.5 300.5" fill-rule="nonzero"/><path stroke="#cccccc" stroke-width="1.0" stroke-linecap="butt" d="M581.5 61.5L581.5 300.5" fill-rule="nonzero"/><path stroke="#333333" stroke-width="1.0" stroke-linecap="butt" d="M77.5 300.5L581.5 300.5" fill-rule="nonzero"/><path stroke="#cccccc" stroke-width="1.0" stroke-linecap="butt" d="M77.5 240.5L581.5 240.5" fill-rule="nonzero"/><path stroke="#cccccc" stroke-width="1.0" stroke-linecap="butt" d="M77.5 181.5L581.5 181.5" fill-rule="nonzero"/><path stroke="#cccccc" stroke-width="1.0" stroke-linecap="butt" d="M77.5 121.5L581.5 121.5" fill-rule="nonzero"/><path stroke="#cccccc" stroke-width="1.0" stroke-linecap="butt" d="M77.5 61.5L581.5 61.5" fill-rule="nonzero"/><clipPath id="id_0"><path d="M77.55 61.916668L581.45 61.916668L581.45 300.45L77.55 300.45L77.55 61.916668Z" clip-rule="nonzero"/></clipPath><path stroke="#4285f4" stroke-width="2.0" stroke-linecap="butt" clip-path="url(#id_0)" d="M77.55 120.95367L127.94 128.10966L178.33 133.47667L228.72 141.229L279.11 150.174L329.5 138.24733L379.89 149.57767L430.28 150.174L480.67 155.541L531.06 176.41267L581.45 166.87134" fill-rule="nonzero"/><path fill="#000000" fill-opacity="0.0" clip-path="url(#id_0)" d="M80.55 120.95367C80.55 122.61052 79.206856 123.95367 77.55 123.95367C75.89314 123.95367 74.55 122.61052 74.55 120.95367C74.55 119.296814 75.89314 117.95367 77.55 117.95367C79.206856 117.95367 80.55 119.296814 80.55 120.95367Z" fill-rule="nonzero"/><path fill="#000000" fill-opacity="0.0" clip-path="url(#id_0)" d="M130.94 128.10966C130.94 129.76653 129.59685 131.10966 127.94 131.10966C126.28314 131.10966 124.94 129.76653 124.94 128.10966C124.94 126.45281 126.28314 125.109665 127.94 125.109665C129.59685 125.109665 130.94 126.45281 130.94 128.10966Z" fill-rule="nonzero"/><path fill="#000000" fill-opacity="0.0" clip-path="url(#id_0)" d="M181.33 133.47667C181.33 135.13351 179.98685 136.47667 178.33 136.47667C176.67314 136.47667 175.33 135.13351 175.33 133.47667C175.33 131.81981 176.67314 130.47667 178.33 130.47667C179.98685 130.47667 181.33 131.81981 181.33 133.47667Z" fill-rule="nonzero"/><path fill="#000000" fill-opacity="0.0" clip-path="url(#id_0)" d="M231.72 141.229C231.72 142.88585 230.37686 144.229 228.72 144.229C227.06314 144.229 225.72 142.88585 225.72 141.229C225.72 139.57214 227.06314 138.229 228.72 138.229C230.37686 138.229 231.72 139.57214 231.72 141.229Z" fill-rule="nonzero"/><path fill="#000000" fill-opacity="0.0" clip-path="url(#id_0)" d="M282.11 150.174C282.11 151.83086 280.76685 153.174 279.11 153.174C277.45316 153.174 276.11 151.83086 276.11 150.174C276.11 148.51715 277.45316 147.174 279.11 147.174C280.76685 147.174 282.11 148.51715 282.11 150.174Z" fill-rule="nonzero"/><path fill="#000000" fill-opacity="0.0" clip-path="url(#id_0)" d="M332.5 138.24733C332.5 139.90419 331.15686 141.24733 329.5 141.24733C327.84314 141.24733 326.5 139.90419 326.5 138.24733C326.5 136.59048 327.84314 135.24733 329.5 135.24733C331.15686 135.24733 332.5 136.59048 332.5 138.24733Z" fill-rule="nonzero"/><path fill="#000000" fill-opacity="0.0" clip-path="url(#id_0)" d="M382.89 149.57767C382.89 151.23453 381.54684 152.57767 379.89 152.57767C378.23315 152.57767 376.89 151.23453 376.89 149.57767C376.89 147.9208 378.23315 146.57767 379.89 146.57767C381.54684 146.57767 382.89 147.9208 382.89 149.57767Z" fill-rule="nonzero"/><path fill="#000000" fill-opacity="0.0" clip-path="url(#id_0)" d="M433.28 150.174C433.28 151.83086 431.93686 153.174 430.28 153.174C428.62314 153.174 427.28 151.83086 427.28 150.174C427.28 148.51715 428.62314 147.174 430.28 147.174C431.93686 147.174 433.28 148.51715 433.28 150.174Z" fill-rule="nonzero"/><path fill="#000000" fill-opacity="0.0" clip-path="url(#id_0)" d="M483.67 155.541C483.67 157.19786 482.32684 158.541 480.67 158.541C479.01315 158.541 477.67 157.19786 477.67 155.541C477.67 153.88414 479.01315 152.541 480.67 152.541C482.32684 152.541 483.67 153.88414 483.67 155.541Z" fill-rule="nonzero"/><path fill="#000000" fill-opacity="0.0" clip-path="url(#id_0)" d="M534.06 176.41267C534.06 178.06952 532.71686 179.41267 531.06 179.41267C529.40314 179.41267 528.06 178.06952 528.06 176.41267C528.06 174.75581 529.40314 173.41267 531.06 173.41267C532.71686 173.41267 534.06 174.75581 534.06 176.41267Z" fill-rule="nonzero"/><path fill="#000000" fill-opacity="0.0" clip-path="url(#id_0)" d="M584.45 166.87134C584.45 168.52818 583.1069 169.87134 581.45 169.87134C579.79315 169.87134 578.45 168.52818 578.45 166.87134C578.45 165.21448 579.79315 163.87134 581.45 163.87134C583.1069 163.87134 584.45 165.21448 584.45 166.87134Z" fill-rule="nonzero"/><path fill="#000000" d="M289.4375 340.85626L290.57812 340.85626L290.57812 344.6219Q291.35938 344.6219 291.67188 344.325Q292.0 344.0125 292.48438 342.8719Q292.84375 342.02814 293.07812 341.6844Q293.3125 341.325 293.73438 341.09064Q294.15625 340.85626 294.67188 340.85626Q295.32812 340.85626 295.375 340.8719L295.375 341.85626Q295.3125 341.85626 295.14062 341.84064Q294.95312 341.84064 294.90625 341.84064Q294.35938 341.84064 294.10938 342.10626Q293.82812 342.3719 293.48438 343.23126Q293.04688 344.3094 292.75 344.60626Q292.45312 344.8875 292.04688 345.0594Q292.875 345.27814 293.6875 346.59064L295.45312 349.45L294.03125 349.45L292.60938 347.1219Q292.01562 346.15314 291.60938 345.79376Q291.21875 345.4344 290.57812 345.4344L290.57812 349.45L289.4375 349.45L289.4375 340.85626ZM296.29688 342.075L296.29688 340.85626L297.35938 340.85626L297.35938 342.075L296.29688 342.075ZM296.29688 349.45L296.29688 343.23126L297.35938 343.23126L297.35938 349.45L296.29688 349.45ZM299.8125 343.23126L304.70312 343.23126L304.70312 349.45L303.65625 349.45L303.65625 344.10626L300.85938 344.10626L300.85938 347.2Q300.85938 348.27814 300.78125 348.6375Q300.71875 348.98126 300.40625 349.2469Q300.09375 349.4969 299.48438 349.4969Q299.125 349.4969 298.64062 349.45L298.64062 348.5594L299.10938 348.5594Q299.4375 348.5594 299.57812 348.4969Q299.71875 348.4344 299.76562 348.29376Q299.8125 348.1375 299.8125 347.325L299.8125 343.23126ZM306.28125 343.23126L307.32812 343.23126L307.32812 345.65314L308.67188 345.65314Q309.96875 345.65314 310.67188 346.16876Q311.39062 346.66876 311.39062 347.5594Q311.39062 348.34064 310.79688 348.90314Q310.20312 349.45 308.90625 349.45L306.28125 349.45L306.28125 343.23126ZM307.32812 348.575L308.4375 348.575Q309.4375 348.575 309.85938 348.34064Q310.29688 348.09064 310.29688 347.575Q310.29688 347.16876 309.96875 346.85626Q309.65625 346.52814 308.57812 346.52814L307.32812 346.52814L307.32812 348.575ZM313.28125 343.23126L314.34375 343.23126L314.34375 345.91876Q314.84375 345.91876 315.04688 345.73126Q315.25 345.52814 315.64062 344.59064Q315.95312 343.85626 316.14062 343.6219Q316.34375 343.3875 316.59375 343.3094Q316.84375 343.23126 317.40625 343.23126L317.60938 343.23126L317.60938 344.10626L317.3125 344.09064Q316.90625 344.09064 316.78125 344.21564Q316.65625 344.34064 316.40625 344.98126Q316.17188 345.59064 315.96875 345.825Q315.76562 346.0594 315.35938 346.2625Q316.03125 346.4344 316.6875 347.52814L317.84375 349.45L316.6875 349.45L315.5625 347.52814Q315.21875 346.9344 314.95312 346.7625Q314.70312 346.575 314.34375 346.575L314.34375 349.45L313.28125 349.45L313.28125 343.23126ZM319.29688 342.075L319.29688 340.85626L320.35938 340.85626L320.35938 342.075L319.29688 342.075ZM319.29688 349.45L319.29688 343.23126L320.35938 343.23126L320.35938 349.45L319.29688 349.45ZM326.35938 347.16876L327.39062 347.3094Q327.21875 348.3719 326.51562 348.98126Q325.8125 349.59064 324.79688 349.59064Q323.51562 349.59064 322.73438 348.7625Q321.96875 347.91876 321.96875 346.35626Q321.96875 345.35626 322.29688 344.60626Q322.64062 343.84064 323.3125 343.46564Q324.0 343.09064 324.8125 343.09064Q325.8125 343.09064 326.45312 343.60626Q327.10938 344.10626 327.29688 345.0594L326.26562 345.21564Q326.125 344.59064 325.75 344.27814Q325.375 343.95 324.84375 343.95Q324.04688 343.95 323.54688 344.52814Q323.04688 345.09064 323.04688 346.325Q323.04688 347.59064 323.53125 348.15314Q324.01562 348.71564 324.78125 348.71564Q325.40625 348.71564 325.8125 348.34064Q326.23438 347.96564 326.35938 347.16876ZM327.71875 343.23126L332.78125 343.23126L332.78125 344.10626L330.78125 344.10626L330.78125 349.45L329.73438 349.45L329.73438 344.10626L327.71875 344.10626L327.71875 343.23126ZM333.28125 343.23126L334.32812 343.23126L334.32812 345.65314L335.67188 345.65314Q336.96875 345.65314 337.67188 346.16876Q338.39062 346.66876 338.39062 347.5594Q338.39062 348.34064 337.79688 348.90314Q337.20312 349.45 335.90625 349.45L333.28125 349.45L333.28125 343.23126ZM334.32812 348.575L335.4375 348.575Q336.4375 348.575 336.85938 348.34064Q337.29688 348.09064 337.29688 347.575Q337.29688 347.16876 336.96875 346.85626Q336.65625 346.52814 335.57812 346.52814L334.32812 346.52814L334.32812 348.575ZM342.59375 349.45L344.85938 346.21564L342.76562 343.23126L344.07812 343.23126L345.03125 344.6844Q345.29688 345.10626 345.46875 345.3875Q345.71875 344.9969 345.9375 344.7L346.98438 343.23126L348.25 343.23126L346.09375 346.15314L348.40625 349.45L347.125 349.45L345.84375 347.5125L345.5 346.9969L343.85938 349.45L342.59375 349.45ZM348.32812 343.23126L349.96875 343.23126L351.59375 348.2L353.40625 343.23126L354.9375 343.23126L354.9375 349.45L353.875 349.45L353.875 344.4344L352.03125 349.45L351.09375 349.45L349.35938 344.2L349.35938 349.45L348.32812 349.45L348.32812 343.23126ZM361.35938 348.6844Q360.76562 349.1844 360.21875 349.3875Q359.6875 349.59064 359.0625 349.59064Q358.03125 349.59064 357.48438 349.09064Q356.9375 348.59064 356.9375 347.8094Q356.9375 347.35626 357.14062 346.98126Q357.34375 346.59064 357.6875 346.3719Q358.03125 346.1375 358.45312 346.02814Q358.75 345.9344 359.39062 345.85626Q360.65625 345.71564 361.26562 345.4969Q361.26562 345.27814 361.26562 345.23126Q361.26562 344.575 360.96875 344.3094Q360.5625 343.96564 359.76562 343.96564Q359.03125 343.96564 358.67188 344.23126Q358.3125 344.48126 358.14062 345.1375L357.10938 344.9969Q357.25 344.34064 357.57812 343.9344Q357.90625 343.52814 358.51562 343.3094Q359.125 343.09064 359.92188 343.09064Q360.71875 343.09064 361.21875 343.27814Q361.71875 343.46564 361.95312 343.7469Q362.1875 344.02814 362.28125 344.46564Q362.32812 344.73126 362.32812 345.4344L362.32812 346.84064Q362.32812 348.3094 362.39062 348.7Q362.46875 349.09064 362.67188 349.45L361.5625 349.45Q361.40625 349.1219 361.35938 348.6844ZM361.26562 346.325Q360.6875 346.5594 359.54688 346.73126Q358.89062 346.825 358.625 346.95Q358.35938 347.0594 358.20312 347.27814Q358.0625 347.4969 358.0625 347.77814Q358.0625 348.2 358.375 348.48126Q358.70312 348.7625 359.3125 348.7625Q359.92188 348.7625 360.39062 348.4969Q360.875 348.23126 361.09375 347.7625Q361.26562 347.40314 361.26562 346.71564L361.26562 346.325ZM364.29688 351.84064L364.29688 343.23126L365.25 343.23126L365.25 344.02814Q365.59375 343.5594 366.01562 343.325Q366.45312 343.09064 367.0625 343.09064Q367.85938 343.09064 368.46875 343.4969Q369.07812 343.90314 369.375 344.65314Q369.6875 345.40314 369.6875 346.29376Q369.6875 347.2469 369.34375 348.0125Q369.01562 348.77814 368.35938 349.1844Q367.70312 349.59064 366.98438 349.59064Q366.45312 349.59064 366.03125 349.3719Q365.60938 349.1375 365.34375 348.8094L365.34375 351.84064L364.29688 351.84064ZM365.25 346.3719Q365.25 347.575 365.73438 348.15314Q366.21875 348.71564 366.90625 348.71564Q367.60938 348.71564 368.10938 348.1219Q368.60938 347.52814 368.60938 346.27814Q368.60938 345.09064 368.125 344.5125Q367.64062 343.91876 366.95312 343.91876Q366.28125 343.91876 365.76562 344.54376Q365.25 345.16876 365.25 346.3719Z" fill-rule="nonzero"/><path fill="#000000" d="M29.550013 222.07396L21.971888 222.07396L21.971888 224.90208L20.956263 224.90208L20.956263 218.08958L21.971888 218.08958L21.971888 220.93333L29.550013 220.93333L29.550013 222.07396ZM27.550013 213.13646L27.675013 212.04271Q28.628138 212.29271 29.159388 212.99583Q29.690638 213.69896 29.690638 214.77708Q29.690638 216.13646 28.846888 216.94896Q28.003138 217.74583 26.487513 217.74583Q24.925013 217.74583 24.065638 216.93333Q23.190638 216.12083 23.190638 214.83958Q23.190638 213.58958 24.034388 212.80833Q24.878138 212.01146 26.425013 212.01146Q26.518763 212.01146 26.706263 212.01146L26.706263 216.65208Q27.737513 216.58958 28.284388 216.07396Q28.815638 215.55833 28.815638 214.77708Q28.815638 214.19896 28.518763 213.79271Q28.206263 213.37083 27.550013 213.13646ZM25.846888 216.58958L25.846888 213.12083Q25.050013 213.18333 24.659388 213.51146Q24.050013 214.02708 24.050013 214.82396Q24.050013 215.55833 24.534388 216.05833Q25.018763 216.54271 25.846888 216.58958ZM23.331263 210.35521L23.331263 208.71458L28.300013 207.08958L23.331263 205.27708L23.331263 203.74583L29.550013 203.74583L29.550013 204.80833L24.534388 204.80833L29.550013 206.65208L29.550013 207.58958L24.300013 209.32396L29.550013 209.32396L29.550013 210.35521L23.331263 210.35521ZM23.331263 201.38646L23.331263 196.48021L29.550013 196.48021L29.550013 197.52708L24.206263 197.52708L24.206263 200.32396L29.550013 200.32396L29.550013 201.38646L23.331263 201.38646ZM27.550013 190.13646L27.675013 189.04271Q28.628138 189.29271 29.159388 189.99583Q29.690638 190.69896 29.690638 191.77708Q29.690638 193.13646 28.846888 193.94896Q28.003138 194.74583 26.487513 194.74583Q24.925013 194.74583 24.065638 193.93333Q23.190638 193.12083 23.190638 191.83958Q23.190638 190.58958 24.034388 189.80833Q24.878138 189.01146 26.425013 189.01146Q26.518763 189.01146 26.706263 189.01146L26.706263 193.65208Q27.737513 193.58958 28.284388 193.07396Q28.815638 192.55833 28.815638 191.77708Q28.815638 191.19896 28.518763 190.79271Q28.206263 190.37083 27.550013 190.13646ZM25.846888 193.58958L25.846888 190.12083Q25.050013 190.18333 24.659388 190.51146Q24.050013 191.02708 24.050013 191.82396Q24.050013 192.55833 24.534388 193.05833Q25.018763 193.54271 25.846888 193.58958ZM31.940638 187.38646L23.331263 187.38646L23.331263 186.43333L24.128138 186.43333Q23.659388 186.08958 23.425013 185.66771Q23.190638 185.23021 23.190638 184.62083Q23.190638 183.82396 23.596888 183.21458Q24.003138 182.60521 24.753138 182.30833Q25.503138 181.99583 26.393763 181.99583Q27.346888 181.99583 28.112513 182.33958Q28.878138 182.66771 29.284388 183.32396Q29.690638 183.98021 29.690638 184.69896Q29.690638 185.23021 29.471888 185.65208Q29.237513 186.07396 28.909388 186.33958L31.940638 186.33958L31.940638 187.38646ZM26.471888 186.43333Q27.675013 186.43333 28.253138 185.94896Q28.815638 185.46458 28.815638 184.77708Q28.815638 184.07396 28.221888 183.57396Q27.628138 183.07396 26.378138 183.07396Q25.190638 183.07396 24.612513 183.55833Q24.018763 184.04271 24.018763 184.73021Q24.018763 185.40208 24.643763 185.91771Q25.268763 186.43333 26.471888 186.43333ZM28.784388 176.32396Q29.284388 176.91771 29.487513 177.46458Q29.690638 177.99583 29.690638 178.62083Q29.690638 179.65208 29.190638 180.19896Q28.690638 180.74583 27.909388 180.74583Q27.456263 180.74583 27.081263 180.54271Q26.690638 180.33958 26.471888 179.99583Q26.237513 179.65208 26.128138 179.23021Q26.034388 178.93333 25.956263 178.29271Q25.815638 177.02708 25.596888 176.41771Q25.378138 176.41771 25.331263 176.41771Q24.675013 176.41771 24.409388 176.71458Q24.065638 177.12083 24.065638 177.91771Q24.065638 178.65208 24.331263 179.01146Q24.581263 179.37083 25.237513 179.54271L25.096888 180.57396Q24.440638 180.43333 24.034388 180.10521Q23.628138 179.77708 23.409388 179.16771Q23.190638 178.55833 23.190638 177.76146Q23.190638 176.96458 23.378138 176.46458Q23.565638 175.96458 23.846888 175.73021Q24.128138 175.49583 24.565638 175.40208Q24.831263 175.35521 25.534388 175.35521L26.940638 175.35521Q28.409388 175.35521 28.800013 175.29271Q29.190638 175.21458 29.550013 175.01146L29.550013 176.12083Q29.221888 176.27708 28.784388 176.32396ZM26.425013 176.41771Q26.659388 176.99583 26.831263 178.13646Q26.925013 178.79271 27.050013 179.05833Q27.159388 179.32396 27.378138 179.48021Q27.596888 179.62083 27.878138 179.62083Q28.300013 179.62083 28.581263 179.30833Q28.862513 178.98021 28.862513 178.37083Q28.862513 177.76146 28.596888 177.29271Q28.331263 176.80833 27.862513 176.58958Q27.503138 176.41771 26.815638 176.41771L26.425013 176.41771ZM23.331263 173.96458L23.331263 168.90208L24.206263 168.90208L24.206263 170.90208L29.550013 170.90208L29.550013 171.94896L24.206263 171.94896L24.206263 173.96458L23.331263 173.96458ZM31.940638 168.43333L30.956263 168.55833Q31.050013 168.21458 31.050013 167.94896Q31.050013 167.60521 30.925013 167.40208Q30.815638 167.18333 30.612513 167.04271Q30.440638 166.94896 29.815638 166.71458Q29.737513 166.69896 29.565638 166.62083L23.331263 168.99583L23.331263 167.85521L26.925013 166.55833Q27.612513 166.30833 28.378138 166.10521Q27.643763 165.91771 26.956263 165.66771L23.331263 164.33958L23.331263 163.29271L29.659388 165.65208Q30.675013 166.04271 31.065638 166.24583Q31.596888 166.52708 31.831263 166.90208Q32.08126 167.26146 32.08126 167.76146Q32.08126 168.05833 31.940638 168.43333ZM31.940638 163.38646L23.331263 163.38646L23.331263 162.43333L24.128138 162.43333Q23.659388 162.08958 23.425013 161.66771Q23.190638 161.23021 23.190638 160.62083Q23.190638 159.82396 23.596888 159.21458Q24.003138 158.60521 24.753138 158.30833Q25.503138 157.99583 26.393763 157.99583Q27.346888 157.99583 28.112513 158.33958Q28.878138 158.66771 29.284388 159.32396Q29.690638 159.98021 29.690638 160.69896Q29.690638 161.23021 29.471888 161.65208Q29.237513 162.07396 28.909388 162.33958L31.940638 162.33958L31.940638 163.38646ZM26.471888 162.43333Q27.675013 162.43333 28.253138 161.94896Q28.815638 161.46458 28.815638 160.77708Q28.815638 160.07396 28.221888 159.57396Q27.628138 159.07396 26.378138 159.07396Q25.190638 159.07396 24.612513 159.55833Q24.018763 160.04271 24.018763 160.73021Q24.018763 161.40208 24.643763 161.91771Q25.268763 162.43333 26.471888 162.43333ZM28.784388 152.32396Q29.284388 152.91771 29.487513 153.46458Q29.690638 153.99583 29.690638 154.62083Q29.690638 155.65208 29.190638 156.19896Q28.690638 156.74583 27.909388 156.74583Q27.456263 156.74583 27.081263 156.54271Q26.690638 156.33958 26.471888 155.99583Q26.237513 155.65208 26.128138 155.23021Q26.034388 154.93333 25.956263 154.29271Q25.815638 153.02708 25.596888 152.41771Q25.378138 152.41771 25.331263 152.41771Q24.675013 152.41771 24.409388 152.71458Q24.065638 153.12083 24.065638 153.91771Q24.065638 154.65208 24.331263 155.01146Q24.581263 155.37083 25.237513 155.54271L25.096888 156.57396Q24.440638 156.43333 24.034388 156.10521Q23.628138 155.77708 23.409388 155.16771Q23.190638 154.55833 23.190638 153.76146Q23.190638 152.96458 23.378138 152.46458Q23.565638 151.96458 23.846888 151.73021Q24.128138 151.49583 24.565638 151.40208Q24.831263 151.35521 25.534388 151.35521L26.940638 151.35521Q28.409388 151.35521 28.800013 151.29271Q29.190638 151.21458 29.550013 151.01146L29.550013 152.12083Q29.221888 152.27708 28.784388 152.32396ZM26.425013 152.41771Q26.659388 152.99583 26.831263 154.13646Q26.925013 154.79271 27.050013 155.05833Q27.159388 155.32396 27.378138 155.48021Q27.596888 155.62083 27.878138 155.62083Q28.300013 155.62083 28.581263 155.30833Q28.862513 154.98021 28.862513 154.37083Q28.862513 153.76146 28.596888 153.29271Q28.331263 152.80833 27.862513 152.58958Q27.503138 152.41771 26.815638 152.41771L26.425013 152.41771Z" fill-rule="nonzero"/><path fill="#000000" d="M65.05 300.21564Q65.05 298.6844 65.3625 297.7625Q65.675 296.825 66.28438 296.325Q66.90938 295.825 67.84688 295.825Q68.53438 295.825 69.05 296.10626Q69.58125 296.3875 69.925 296.91876Q70.26875 297.4344 70.45625 298.1844Q70.64375 298.9344 70.64375 300.21564Q70.64375 301.73126 70.33125 302.65314Q70.03438 303.575 69.40938 304.09064Q68.8 304.59064 67.84688 304.59064Q66.6125 304.59064 65.89375 303.7Q65.05 302.6375 65.05 300.21564ZM66.12813 300.21564Q66.12813 302.325 66.62813 303.02814Q67.12813 303.73126 67.84688 303.73126Q68.58125 303.73126 69.06563 303.02814Q69.56563 302.325 69.56563 300.21564Q69.56563 298.09064 69.06563 297.40314Q68.58125 296.7 67.83125 296.7Q67.1125 296.7 66.675 297.3094Q66.12813 298.09064 66.12813 300.21564Z" fill-rule="nonzero"/><path fill="#000000" d="M62.01875 244.81667L60.971874 244.81667L60.971874 238.09792Q60.58125 238.45729 59.95625 238.83229Q59.346874 239.19167 58.8625 239.36354L58.8625 238.34792Q59.7375 237.92604 60.39375 237.34792Q61.065624 236.75417 61.346874 236.19167L62.01875 236.19167L62.01875 244.81667ZM65.05 240.58229Q65.05 239.05104 65.3625 238.12917Q65.675 237.19167 66.28438 236.69167Q66.90938 236.19167 67.84688 236.19167Q68.53438 236.19167 69.05 236.47292Q69.58125 236.75417 69.925 237.28542Q70.26875 237.80104 70.45625 238.55104Q70.64375 239.30104 70.64375 240.58229Q70.64375 242.09792 70.33125 243.01979Q70.03438 243.94167 69.40938 244.45729Q68.8 244.95729 67.84688 244.95729Q66.6125 244.95729 65.89375 244.06667Q65.05 243.00417 65.05 240.58229ZM66.12813 240.58229Q66.12813 242.69167 66.62813 243.39479Q67.12813 244.09792 67.84688 244.09792Q68.58125 244.09792 69.06563 243.39479Q69.56563 242.69167 69.56563 240.58229Q69.56563 238.45729 69.06563 237.76979Q68.58125 237.06667 67.83125 237.06667Q67.1125 237.06667 66.675 237.67604Q66.12813 238.45729 66.12813 240.58229Z" fill-rule="nonzero"/><path fill="#000000" d="M63.596874 184.16771L63.596874 185.18333L57.909374 185.18333Q57.909374 184.80833 58.034374 184.44896Q58.253124 183.87083 58.721874 183.30833Q59.20625 182.74583 60.1125 182.01146Q61.51875 180.85521 62.003124 180.18333Q62.503124 179.51146 62.503124 178.91771Q62.503124 178.29271 62.05 177.87083Q61.596874 177.43333 60.878124 177.43333Q60.1125 177.43333 59.659374 177.88646Q59.20625 178.33958 59.190624 179.15208L58.1125 179.04271Q58.221874 177.82396 58.940624 177.19896Q59.675 176.55833 60.909374 176.55833Q62.14375 176.55833 62.8625 177.24583Q63.58125 177.93333 63.58125 178.94896Q63.58125 179.46458 63.3625 179.96458Q63.159374 180.44896 62.659374 181.01146Q62.175 181.55833 61.05 182.51146Q60.096874 183.30833 59.815624 183.60521Q59.55 183.88646 59.378124 184.16771L63.596874 184.16771ZM65.05 180.94896Q65.05 179.41771 65.3625 178.49583Q65.675 177.55833 66.28438 177.05833Q66.90938 176.55833 67.84688 176.55833Q68.53438 176.55833 69.05 176.83958Q69.58125 177.12083 69.925 177.65208Q70.26875 178.16771 70.45625 178.91771Q70.64375 179.66771 70.64375 180.94896Q70.64375 182.46458 70.33125 183.38646Q70.03438 184.30833 69.40938 184.82396Q68.8 185.32396 67.84688 185.32396Q66.6125 185.32396 65.89375 184.43333Q65.05 183.37083 65.05 180.94896ZM66.12813 180.94896Q66.12813 183.05833 66.62813 183.76146Q67.12813 184.46458 67.84688 184.46458Q68.58125 184.46458 69.06563 183.76146Q69.56563 183.05833 69.56563 180.94896Q69.56563 178.82396 69.06563 178.13646Q68.58125 177.43333 67.83125 177.43333Q67.1125 177.43333 66.675 178.04271Q66.12813 178.82396 66.12813 180.94896Z" fill-rule="nonzero"/><path fill="#000000" d="M58.05 123.28438L59.1125 123.14375Q59.284374 124.03438 59.721874 124.44063Q60.159374 124.83125 60.784374 124.83125Q61.534374 124.83125 62.05 124.31563Q62.565624 123.8 62.565624 123.03438Q62.565624 122.31563 62.08125 121.84688Q61.6125 121.3625 60.878124 121.3625Q60.58125 121.3625 60.128124 121.4875L60.253124 120.55Q60.3625 120.56563 60.425 120.56563Q61.096874 120.56563 61.628124 120.22188Q62.175 119.8625 62.175 119.12813Q62.175 118.55 61.784374 118.175Q61.39375 117.78438 60.76875 117.78438Q60.159374 117.78438 59.7375 118.175Q59.33125 118.56563 59.221874 119.33125L58.159374 119.14375Q58.346874 118.09688 59.034374 117.51875Q59.721874 116.925 60.7375 116.925Q61.440624 116.925 62.034374 117.2375Q62.628124 117.53438 62.940624 118.05Q63.253124 118.56563 63.253124 119.15938Q63.253124 119.70625 62.95625 120.175Q62.659374 120.62813 62.08125 120.89375Q62.83125 121.06563 63.253124 121.62813Q63.675 122.175 63.675 123.01875Q63.675 124.14375 62.846874 124.925Q62.034374 125.70625 60.784374 125.70625Q59.659374 125.70625 58.909374 125.03438Q58.159374 124.34688 58.05 123.28438ZM65.05 121.31563Q65.05 119.78438 65.3625 118.8625Q65.675 117.925 66.28438 117.425Q66.90938 116.925 67.84688 116.925Q68.53438 116.925 69.05 117.20625Q69.58125 117.4875 69.925 118.01875Q70.26875 118.53438 70.45625 119.28438Q70.64375 120.03438 70.64375 121.31563Q70.64375 122.83125 70.33125 123.75313Q70.03438 124.675 69.40938 125.19063Q68.8 125.69063 67.84688 125.69063Q66.6125 125.69063 65.89375 124.8Q65.05 123.7375 65.05 121.31563ZM66.12813 121.31563Q66.12813 123.425 66.62813 124.12813Q67.12813 124.83125 67.84688 124.83125Q68.58125 124.83125 69.06563 124.12813Q69.56563 123.425 69.56563 121.31563Q69.56563 119.19063 69.06563 118.50313Q68.58125 117.8 67.83125 117.8Q67.1125 117.8 66.675 118.40938Q66.12813 119.19063 66.12813 121.31563Z" fill-rule="nonzero"/><path fill="#000000" d="M61.425 65.916664L61.425 63.854164L57.70625 63.854164L57.70625 62.885414L61.628124 57.322914L62.4875 57.322914L62.4875 62.885414L63.64375 62.885414L63.64375 63.854164L62.4875 63.854164L62.4875 65.916664L61.425 65.916664ZM61.425 62.885414L61.425 59.02604L58.7375 62.885414L61.425 62.885414ZM65.05 61.68229Q65.05 60.15104 65.3625 59.229164Q65.675 58.291664 66.28438 57.791664Q66.90938 57.291664 67.84688 57.291664Q68.53438 57.291664 69.05 57.572914Q69.58125 57.854164 69.925 58.385414Q70.26875 58.90104 70.45625 59.65104Q70.64375 60.40104 70.64375 61.68229Q70.64375 63.197914 70.33125 64.11979Q70.03438 65.041664 69.40938 65.55729Q68.8 66.05729 67.84688 66.05729Q66.6125 66.05729 65.89375 65.166664Q65.05 64.104164 65.05 61.68229ZM66.12813 61.68229Q66.12813 63.791664 66.62813 64.49479Q67.12813 65.197914 67.84688 65.197914Q68.58125 65.197914 69.06563 64.49479Q69.56563 63.791664 69.56563 61.68229Q69.56563 59.55729 69.06563 58.86979Q68.58125 58.166664 67.83125 58.166664Q67.1125 58.166664 66.675 58.77604Q66.12813 59.55729 66.12813 61.68229Z" fill-rule="nonzero"/><path fill="#000000" d="M74.55 313.21564Q74.55 311.6844 74.8625 310.7625Q75.175 309.825 75.78438 309.325Q76.40938 308.825 77.34688 308.825Q78.03438 308.825 78.55 309.10626Q79.08125 309.3875 79.425 309.91876Q79.76875 310.4344 79.95625 311.1844Q80.14375 311.9344 80.14375 313.21564Q80.14375 314.73126 79.83125 315.65314Q79.53438 316.575 78.90938 317.09064Q78.3 317.59064 77.34688 317.59064Q76.1125 317.59064 75.39375 316.7Q74.55 315.6375 74.55 313.21564ZM75.62813 313.21564Q75.62813 315.325 76.12813 316.02814Q76.62813 316.73126 77.34688 316.73126Q78.08125 316.73126 78.56563 316.02814Q79.06563 315.325 79.06563 313.21564Q79.06563 311.09064 78.56563 310.40314Q78.08125 309.7 77.33125 309.7Q76.6125 309.7 76.175 310.3094Q75.62813 311.09064 75.62813 313.21564Z" fill-rule="nonzero"/><path fill="#000000" d="M180.87688 316.4344L180.87688 317.45L175.18938 317.45Q175.18938 317.075 175.31438 316.71564Q175.53313 316.1375 176.00188 315.575Q176.48625 315.0125 177.3925 314.27814Q178.79875 313.1219 179.28313 312.45Q179.78313 311.77814 179.78313 311.1844Q179.78313 310.5594 179.33 310.1375Q178.87688 309.7 178.15813 309.7Q177.3925 309.7 176.93938 310.15314Q176.48625 310.60626 176.47063 311.41876L175.3925 311.3094Q175.50188 310.09064 176.22063 309.46564Q176.955 308.825 178.18938 308.825Q179.42375 308.825 180.1425 309.5125Q180.86125 310.2 180.86125 311.21564Q180.86125 311.73126 180.6425 312.23126Q180.43938 312.71564 179.93938 313.27814Q179.455 313.825 178.33 314.77814Q177.37688 315.575 177.09563 315.8719Q176.83 316.15314 176.65813 316.4344L180.87688 316.4344Z" fill-rule="nonzero"/><path fill="#000000" d="M279.485 317.45L279.485 315.3875L275.76624 315.3875L275.76624 314.41876L279.6881 308.85626L280.5475 308.85626L280.5475 314.41876L281.70374 314.41876L281.70374 315.3875L280.5475 315.3875L280.5475 317.45L279.485 317.45ZM279.485 314.41876L279.485 310.5594L276.7975 314.41876L279.485 314.41876Z" fill-rule="nonzero"/><path fill="#000000" d="M382.35876 310.96564L381.3119 311.04376Q381.17126 310.41876 380.92126 310.1375Q380.48376 309.6844 379.85876 309.6844Q379.35876 309.6844 378.96814 309.96564Q378.48376 310.34064 378.1869 311.04376Q377.90564 311.73126 377.89 313.0125Q378.265 312.4344 378.8119 312.15314Q379.3744 311.8719 379.98376 311.8719Q381.03064 311.8719 381.765 312.65314Q382.515 313.4344 382.515 314.65314Q382.515 315.46564 382.15564 316.16876Q381.8119 316.85626 381.2025 317.23126Q380.59314 317.59064 379.8275 317.59064Q378.4994 317.59064 377.67126 316.6219Q376.84314 315.65314 376.84314 313.4344Q376.84314 310.9344 377.765 309.8094Q378.5619 308.825 379.92126 308.825Q380.9369 308.825 381.5775 309.40314Q382.23376 309.96564 382.35876 310.96564ZM378.0619 314.66876Q378.0619 315.21564 378.28064 315.71564Q378.515 316.2 378.92126 316.46564Q379.34314 316.73126 379.8119 316.73126Q380.46814 316.73126 380.9525 316.2Q381.4369 315.65314 381.4369 314.73126Q381.4369 313.84064 380.9525 313.325Q380.48376 312.8094 379.765 312.8094Q379.04626 312.8094 378.54626 313.325Q378.0619 313.84064 378.0619 314.66876Z" fill-rule="nonzero"/><path fill="#000000" d="M479.295 312.79376Q478.63876 312.54376 478.31064 312.10626Q477.99814 311.65314 477.99814 311.04376Q477.99814 310.10626 478.67 309.46564Q479.3575 308.825 480.4669 308.825Q481.5919 308.825 482.2794 309.48126Q482.9669 310.1375 482.9669 311.075Q482.9669 311.66876 482.6544 312.10626Q482.3419 312.54376 481.70126 312.79376Q482.49814 313.04376 482.9044 313.6219Q483.31064 314.2 483.31064 314.9969Q483.31064 316.09064 482.5294 316.84064Q481.76376 317.59064 480.4825 317.59064Q479.2169 317.59064 478.43564 316.84064Q477.6544 316.09064 477.6544 314.96564Q477.6544 314.1219 478.07626 313.5594Q478.51376 312.9969 479.295 312.79376ZM479.07626 310.9969Q479.07626 311.60626 479.4669 311.9969Q479.87314 312.3875 480.49814 312.3875Q481.1075 312.3875 481.49814 312.0125Q481.88876 311.6219 481.88876 311.0594Q481.88876 310.48126 481.4825 310.09064Q481.07626 309.6844 480.4825 309.6844Q479.87314 309.6844 479.4669 310.075Q479.07626 310.46564 479.07626 310.9969ZM478.74814 314.96564Q478.74814 315.41876 478.95126 315.84064Q479.17 316.2625 479.5919 316.4969Q480.01376 316.73126 480.49814 316.73126Q481.24814 316.73126 481.7325 316.2469Q482.2325 315.7625 482.2325 315.0125Q482.2325 314.2469 481.7325 313.7469Q481.2325 313.2469 480.4669 313.2469Q479.7169 313.2469 479.2325 313.7469Q478.74814 314.23126 478.74814 314.96564Z" fill-rule="nonzero"/><path fill="#000000" d="M578.91876 317.45L577.8719 317.45L577.8719 310.73126Q577.48126 311.09064 576.85626 311.46564Q576.2469 311.825 575.7625 311.9969L575.7625 310.98126Q576.6375 310.5594 577.29376 309.98126Q577.96564 309.3875 578.2469 308.825L578.91876 308.825L578.91876 317.45ZM581.95 313.21564Q581.95 311.6844 582.2625 310.7625Q582.575 309.825 583.1844 309.325Q583.8094 308.825 584.7469 308.825Q585.4344 308.825 585.95 309.10626Q586.48126 309.3875 586.825 309.91876Q587.16876 310.4344 587.35626 311.1844Q587.54376 311.9344 587.54376 313.21564Q587.54376 314.73126 587.23126 315.65314Q586.9344 316.575 586.3094 317.09064Q585.7 317.59064 584.7469 317.59064Q583.5125 317.59064 582.79376 316.7Q581.95 315.6375 581.95 313.21564ZM583.02814 313.21564Q583.02814 315.325 583.52814 316.02814Q584.02814 316.73126 584.7469 316.73126Q585.48126 316.73126 585.96564 316.02814Q586.46564 315.325 586.46564 313.21564Q586.46564 311.09064 585.96564 310.40314Q585.48126 309.7 584.73126 309.7Q584.0125 309.7 583.575 310.3094Q583.02814 311.09064 583.02814 313.21564Z" fill-rule="nonzero"/><path fill="#757575" d="M23.7375 37.55L23.7375 24.925L19.01875 24.925L19.01875 23.2375L30.3625 23.2375L30.3625 24.925L25.628124 24.925L25.628124 37.55L23.7375 37.55ZM38.971874 34.20625L40.784374 34.440624Q40.3625 36.01875 39.190624 36.909374Q38.034374 37.784374 36.221874 37.784374Q33.95625 37.784374 32.6125 36.39375Q31.284374 34.9875 31.284374 32.45625Q31.284374 29.83125 32.628124 28.39375Q33.971874 26.940624 36.128124 26.940624Q38.20625 26.940624 39.51875 28.3625Q40.846874 29.76875 40.846874 32.346874Q40.846874 32.503124 40.83125 32.815624L33.096874 32.815624Q33.190624 34.51875 34.065624 35.425Q34.940624 36.33125 36.2375 36.33125Q37.20625 36.33125 37.878124 35.83125Q38.565624 35.315624 38.971874 34.20625ZM33.190624 31.3625L38.9875 31.3625Q38.878124 30.065624 38.33125 29.409374Q37.4875 28.39375 36.14375 28.39375Q34.940624 28.39375 34.1125 29.20625Q33.284374 30.003124 33.190624 31.3625ZM42.925 27.175L45.659374 27.175L48.378124 35.471874L51.409374 27.175L53.940624 27.175L53.940624 37.55L52.175 37.55L52.175 29.20625L49.1125 37.55L47.534374 37.55L44.64375 28.8L44.64375 37.55L42.925 37.55L42.925 27.175ZM55.878124 27.175L64.06563 27.175L64.06563 37.55L62.3 37.55L62.3 28.628124L57.64375 28.628124L57.64375 37.55L55.878124 37.55L55.878124 27.175ZM72.97188 34.20625L74.78438 34.440624Q74.3625 36.01875 73.19063 36.909374Q72.03438 37.784374 70.22188 37.784374Q67.95625 37.784374 66.6125 36.39375Q65.28438 34.9875 65.28438 32.45625Q65.28438 29.83125 66.62813 28.39375Q67.97188 26.940624 70.12813 26.940624Q72.20625 26.940624 73.51875 28.3625Q74.84688 29.76875 74.84688 32.346874Q74.84688 32.503124 74.83125 32.815624L67.09688 32.815624Q67.19063 34.51875 68.06563 35.425Q68.94063 36.33125 70.2375 36.33125Q71.20625 36.33125 71.87813 35.83125Q72.56563 35.315624 72.97188 34.20625ZM67.19063 31.3625L72.9875 31.3625Q72.87813 30.065624 72.33125 29.409374Q71.4875 28.39375 70.14375 28.39375Q68.94063 28.39375 68.1125 29.20625Q67.28438 30.003124 67.19063 31.3625ZM76.8625 41.51875L76.8625 27.175L78.47188 27.175L78.47188 28.51875Q79.03438 27.7375 79.7375 27.346874Q80.45625 26.940624 81.47188 26.940624Q82.8 26.940624 83.81563 27.628124Q84.83125 28.315624 85.34688 29.565624Q85.87813 30.8 85.87813 32.284374Q85.87813 33.878124 85.3 35.159374Q84.7375 36.425 83.64375 37.1125Q82.55 37.784374 81.34688 37.784374Q80.47188 37.784374 79.76875 37.409374Q79.08125 37.034374 78.62813 36.471874L78.62813 41.51875L76.8625 41.51875ZM78.45625 32.425Q78.45625 34.425 79.26875 35.378124Q80.08125 36.33125 81.2375 36.33125Q82.40938 36.33125 83.2375 35.346874Q84.08125 34.3625 84.08125 32.26875Q84.08125 30.3 83.25313 29.315624Q82.44063 28.315624 81.31563 28.315624Q80.19063 28.315624 79.31563 29.378124Q78.45625 30.425 78.45625 32.425ZM94.64375 36.26875Q93.65938 37.096874 92.75313 37.440624Q91.84688 37.784374 90.81563 37.784374Q89.1125 37.784374 88.19063 36.95625Q87.26875 36.1125 87.26875 34.815624Q87.26875 34.05 87.6125 33.425Q87.97188 32.8 88.53438 32.425Q89.09688 32.034374 89.8 31.83125Q90.31563 31.70625 91.3625 31.565624Q93.4875 31.315624 94.4875 30.971874Q94.50313 30.6125 94.50313 30.503124Q94.50313 29.440624 94.00313 28.9875Q93.33125 28.39375 92.00313 28.39375Q90.75313 28.39375 90.15938 28.83125Q89.58125 29.26875 89.3 30.378124L87.58125 30.14375Q87.81563 29.034374 88.34688 28.3625Q88.87813 27.675 89.89375 27.315624Q90.90938 26.940624 92.25313 26.940624Q93.58125 26.940624 94.40938 27.253124Q95.2375 27.565624 95.62813 28.05Q96.01875 28.51875 96.175 29.2375Q96.26875 29.690624 96.26875 30.8625L96.26875 33.20625Q96.26875 35.659374 96.37813 36.315624Q96.4875 36.95625 96.83125 37.55L94.9875 37.55Q94.72188 37.003124 94.64375 36.26875ZM94.4875 32.346874Q93.53438 32.7375 91.6125 33.003124Q90.53438 33.159374 90.08125 33.3625Q89.64375 33.55 89.39375 33.925Q89.14375 34.3 89.14375 34.76875Q89.14375 35.471874 89.675 35.940624Q90.20625 36.409374 91.2375 36.409374Q92.25313 36.409374 93.03438 35.971874Q93.83125 35.51875 94.20625 34.753124Q94.4875 34.14375 94.4875 32.9875L94.4875 32.346874ZM97.925 27.175L106.34688 27.175L106.34688 28.628124L103.00313 28.628124L103.00313 37.55L101.26875 37.55L101.26875 28.628124L97.925 28.628124L97.925 27.175ZM107.78438 41.55L107.59688 39.89375Q108.175 40.05 108.59688 40.05Q109.19063 40.05 109.53438 39.846874Q109.89375 39.659374 110.1125 39.315624Q110.28438 39.05 110.65938 38.003124Q110.70625 37.846874 110.81563 37.565624L106.87813 27.175L108.76875 27.175L110.925 33.190624Q111.34688 34.33125 111.675 35.58125Q111.9875 34.378124 112.39375 33.221874L114.6125 27.175L116.37813 27.175L112.425 37.721874Q111.8 39.440624 111.44063 40.08125Q110.97188 40.95625 110.3625 41.346874Q109.76875 41.753124 108.925 41.753124Q108.40938 41.753124 107.78438 41.55ZM117.8625 41.51875L117.8625 27.175L119.47188 27.175L119.47188 28.51875Q120.03438 27.7375 120.7375 27.346874Q121.45625 26.940624 122.47188 26.940624Q123.8 26.940624 124.81563 27.628124Q125.83125 28.315624 126.34688 29.565624Q126.87813 30.8 126.87813 32.284374Q126.87813 33.878124 126.3 35.159374Q125.7375 36.425 124.64375 37.1125Q123.55 37.784374 122.34688 37.784374Q121.47188 37.784374 120.76875 37.409374Q120.08125 37.034374 119.62813 36.471874L119.62813 41.51875L117.8625 41.51875ZM119.45625 32.425Q119.45625 34.425 120.26875 35.378124Q121.08125 36.33125 122.2375 36.33125Q123.40938 36.33125 124.2375 35.346874Q125.08125 34.3625 125.08125 32.26875Q125.08125 30.3 124.25313 29.315624Q123.44063 28.315624 122.31563 28.315624Q121.19063 28.315624 120.31563 29.378124Q119.45625 30.425 119.45625 32.425ZM135.64375 36.26875Q134.65938 37.096874 133.75313 37.440624Q132.84688 37.784374 131.81563 37.784374Q130.1125 37.784374 129.19063 36.95625Q128.26875 36.1125 128.26875 34.815624Q128.26875 34.05 128.6125 33.425Q128.97188 32.8 129.53438 32.425Q130.09688 32.034374 130.8 31.83125Q131.31563 31.70625 132.3625 31.565624Q134.4875 31.315624 135.4875 30.971874Q135.50313 30.6125 135.50313 30.503124Q135.50313 29.440624 135.00313 28.9875Q134.33125 28.39375 133.00313 28.39375Q131.75313 28.39375 131.15938 28.83125Q130.58125 29.26875 130.3 30.378124L128.58125 30.14375Q128.81563 29.034374 129.34688 28.3625Q129.87813 27.675 130.89375 27.315624Q131.90938 26.940624 133.25313 26.940624Q134.58125 26.940624 135.40938 27.253124Q136.2375 27.565624 136.62813 28.05Q137.01875 28.51875 137.175 29.2375Q137.26875 29.690624 137.26875 30.8625L137.26875 33.20625Q137.26875 35.659374 137.37813 36.315624Q137.4875 36.95625 137.83125 37.55L135.9875 37.55Q135.72188 37.003124 135.64375 36.26875ZM135.4875 32.346874Q134.53438 32.7375 132.6125 33.003124Q131.53438 33.159374 131.08125 33.3625Q130.64375 33.55 130.39375 33.925Q130.14375 34.3 130.14375 34.76875Q130.14375 35.471874 130.675 35.940624Q131.20625 36.409374 132.2375 36.409374Q133.25313 36.409374 134.03438 35.971874Q134.83125 35.51875 135.20625 34.753124Q135.4875 34.14375 135.4875 32.9875L135.4875 32.346874ZM138.55 37.8L142.70625 22.9875L144.1125 22.9875L139.97188 37.8L138.55 37.8ZM146.12813 23.2375L148.01875 23.2375L148.01875 29.503124Q149.31563 29.503124 149.84688 29.003124Q150.37813 28.503124 151.19063 26.58125Q151.78438 25.175 152.175 24.596874Q152.56563 24.01875 153.26875 23.628124Q153.9875 23.221874 154.84688 23.221874Q155.94063 23.221874 156.00313 23.2375L156.00313 24.878124Q155.89375 24.878124 155.6125 24.878124Q155.3 24.8625 155.2375 24.8625Q154.33125 24.8625 153.89375 25.3Q153.44063 25.7375 152.8625 27.175Q152.14375 28.9875 151.64375 29.471874Q151.14375 29.940624 150.45625 30.221874Q151.83125 30.6125 153.19063 32.784374L156.12813 37.55L153.78438 37.55L151.39375 33.659374Q150.39375 32.05 149.72188 31.45625Q149.06563 30.846874 148.01875 30.846874L148.01875 37.55L146.12813 37.55L146.12813 23.2375ZM157.87813 25.253124L157.87813 23.2375L159.64375 23.2375L159.64375 25.253124L157.87813 25.253124ZM157.87813 37.55L157.87813 27.175L159.64375 27.175L159.64375 37.55L157.87813 37.55ZM162.72188 27.175L170.89375 27.175L170.89375 37.55L169.14375 37.55L169.14375 28.628124L164.4875 28.628124L164.4875 33.8Q164.4875 35.6125 164.3625 36.190624Q164.25313 36.753124 163.72188 37.190624Q163.19063 37.6125 162.20625 37.6125Q161.58125 37.6125 160.78438 37.534374L160.78438 36.08125L161.55 36.08125Q162.09688 36.08125 162.33125 35.971874Q162.56563 35.846874 162.64375 35.6125Q162.72188 35.3625 162.72188 34.01875L162.72188 27.175ZM172.84688 27.175L174.59688 27.175L174.59688 31.2375L176.83125 31.2375Q179.00313 31.2375 180.175 32.08125Q181.3625 32.925 181.3625 34.409374Q181.3625 35.70625 180.37813 36.628124Q179.39375 37.55 177.2375 37.55L172.84688 37.55L172.84688 27.175ZM174.59688 36.096874L176.44063 36.096874Q178.1125 36.096874 178.81563 35.690624Q179.53438 35.284374 179.53438 34.409374Q179.53438 33.7375 179.00313 33.221874Q178.4875 32.690624 176.675 32.690624L174.59688 32.690624L174.59688 36.096874ZM183.8625 27.175L185.6125 27.175L185.6125 31.659374Q186.45625 31.659374 186.78438 31.346874Q187.12813 31.01875 187.78438 29.45625Q188.3 28.2375 188.6125 27.846874Q188.94063 27.45625 189.3625 27.315624Q189.78438 27.175 190.72188 27.175L191.06563 27.175L191.06563 28.628124L190.58125 28.628124Q189.87813 28.628124 189.69063 28.83125Q189.4875 29.05 189.06563 30.1125Q188.65938 31.128124 188.33125 31.51875Q188.00313 31.909374 187.3 32.221874Q188.44063 32.534374 189.53438 34.33125L191.45625 37.55L189.51875 37.55L187.64375 34.33125Q187.06563 33.3625 186.62813 33.065624Q186.20625 32.753124 185.6125 32.753124L185.6125 37.55L183.8625 37.55L183.8625 27.175ZM192.87813 25.253124L192.87813 23.2375L194.64375 23.2375L194.64375 25.253124L192.87813 25.253124ZM192.87813 37.55L192.87813 27.175L194.64375 27.175L194.64375 37.55L192.87813 37.55ZM203.64375 33.753124L205.3625 33.971874Q205.08125 35.76875 203.90938 36.784374Q202.75313 37.784374 201.05 37.784374Q198.925 37.784374 197.62813 36.39375Q196.33125 35.003124 196.33125 32.409374Q196.33125 30.721874 196.87813 29.471874Q197.44063 28.20625 198.58125 27.58125Q199.72188 26.940624 201.06563 26.940624Q202.75313 26.940624 203.81563 27.8Q204.89375 28.659374 205.20625 30.221874L203.4875 30.4875Q203.25313 29.440624 202.62813 28.925Q202.00313 28.39375 201.12813 28.39375Q199.8 28.39375 198.97188 29.346874Q198.14375 30.3 198.14375 32.346874Q198.14375 34.440624 198.94063 35.39375Q199.7375 36.33125 201.03438 36.33125Q202.06563 36.33125 202.75313 35.70625Q203.45625 35.065624 203.64375 33.753124ZM205.925 27.175L214.34688 27.175L214.34688 28.628124L211.00313 28.628124L211.00313 37.55L209.26875 37.55L209.26875 28.628124L205.925 28.628124L205.925 27.175ZM215.84688 27.175L217.59688 27.175L217.59688 31.2375L219.83125 31.2375Q222.00313 31.2375 223.175 32.08125Q224.3625 32.925 224.3625 34.409374Q224.3625 35.70625 223.37813 36.628124Q222.39375 37.55 220.2375 37.55L215.84688 37.55L215.84688 27.175ZM217.59688 36.096874L219.44063 36.096874Q221.1125 36.096874 221.81563 35.690624Q222.53438 35.284374 222.53438 34.409374Q222.53438 33.7375 222.00313 33.221874Q221.4875 32.690624 219.675 32.690624L217.59688 32.690624L217.59688 36.096874ZM231.69063 37.55L235.4875 32.159374L231.9875 27.175L234.175 27.175L235.76875 29.6125Q236.22188 30.3 236.4875 30.76875Q236.925 30.128124 237.28438 29.628124L239.03438 27.175L241.12813 27.175L237.55 32.065624L241.40938 37.55L239.25313 37.55L237.1125 34.33125L236.55 33.45625L233.83125 37.55L231.69063 37.55ZM241.925 27.175L244.65938 27.175L247.37813 35.471874L250.40938 27.175L252.94063 27.175L252.94063 37.55L251.175 37.55L251.175 29.20625L248.1125 37.55L246.53438 37.55L243.64375 28.8L243.64375 37.55L241.925 37.55L241.925 27.175ZM261.64374 36.26875Q260.65936 37.096874 259.7531 37.440624Q258.84686 37.784374 257.8156 37.784374Q256.1125 37.784374 255.19063 36.95625Q254.26875 36.1125 254.26875 34.815624Q254.26875 34.05 254.6125 33.425Q254.97188 32.8 255.53438 32.425Q256.09686 32.034374 256.8 31.83125Q257.3156 31.70625 258.3625 31.565624Q260.4875 31.315624 261.4875 30.971874Q261.5031 30.6125 261.5031 30.503124Q261.5031 29.440624 261.0031 28.9875Q260.33124 28.39375 259.0031 28.39375Q257.7531 28.39375 257.15936 28.83125Q256.58124 29.26875 256.3 30.378124L254.58125 30.14375Q254.81563 29.034374 255.34688 28.3625Q255.87813 27.675 256.89374 27.315624Q257.90936 26.940624 259.2531 26.940624Q260.58124 26.940624 261.40936 27.253124Q262.2375 27.565624 262.6281 28.05Q263.01874 28.51875 263.175 29.2375Q263.26874 29.690624 263.26874 30.8625L263.26874 33.20625Q263.26874 35.659374 263.3781 36.315624Q263.4875 36.95625 263.83124 37.55L261.9875 37.55Q261.72186 37.003124 261.64374 36.26875ZM261.4875 32.346874Q260.53436 32.7375 258.6125 33.003124Q257.53436 33.159374 257.08124 33.3625Q256.64374 33.55 256.39374 33.925Q256.14374 34.3 256.14374 34.76875Q256.14374 35.471874 256.675 35.940624Q257.20624 36.409374 258.2375 36.409374Q259.2531 36.409374 260.03436 35.971874Q260.83124 35.51875 261.20624 34.753124Q261.4875 34.14375 261.4875 32.9875L261.4875 32.346874ZM265.8625 41.51875L265.8625 27.175L267.47186 27.175L267.47186 28.51875Q268.03436 27.7375 268.7375 27.346874Q269.45624 26.940624 270.47186 26.940624Q271.8 26.940624 272.8156 27.628124Q273.83124 28.315624 274.34686 29.565624Q274.8781 30.8 274.8781 32.284374Q274.8781 33.878124 274.3 35.159374Q273.7375 36.425 272.64374 37.1125Q271.55 37.784374 270.34686 37.784374Q269.47186 37.784374 268.76874 37.409374Q268.08124 37.034374 267.6281 36.471874L267.6281 41.51875L265.8625 41.51875ZM267.45624 32.425Q267.45624 34.425 268.26874 35.378124Q269.08124 36.33125 270.2375 36.33125Q271.40936 36.33125 272.2375 35.346874Q273.08124 34.3625 273.08124 32.26875Q273.08124 30.3 272.2531 29.315624Q271.4406 28.315624 270.3156 28.315624Q269.1906 28.315624 268.3156 29.378124Q267.45624 30.425 267.45624 32.425Z" fill-rule="nonzero"/></svg>