<svg version="1.1" viewBox="0.0 0.0 600.0 371.0" fill="none" stroke="none" stroke-linecap="square" stroke-miterlimit="10" width="600" height="371" xmlns:xlink="http://www.w3.org/1999/xlink" xmlns="http://www.w3.org/2000/svg"><path fill="#ffffff" d="M0 0L600.0 0L600.0 371.0L0 371.0L0 0Z" fill-rule="nonzero"/><path stroke="#333333" stroke-width="1.0" stroke-linecap="butt" d="M77.5 61.5L77.5 300.5" fill-rule="nonzero"/><path stroke="#cccccc" stroke-width="1.0" stroke-linecap="butt" d="M178.5 61.5L178.5 300.5" fill-rule="nonzero"/><path stroke="#cccccc" stroke-width="1.0" stroke-linecap="butt" d="M279.5 61.5L279.5 300.5" fill-rule="nonzero"/><path stroke="#cccccc" stroke-width="1.0" stroke-linecap="butt" d="M379.5 61.5L379.5 300.5" fill-rule="nonzero"/><path stroke="#cccccc" stroke-width="1.0" stroke-linecap="butt" d="M480.5 61.5L480.5 300.5" fill-rule="nonzero"/><path stroke="#cccccc" stroke-width="1.0" stroke-linecap="butt" d="M581.5 61.5L581.5 300.5" fill-rule="nonzero"/><path stroke="#333333" stroke-width="1.0" stroke-linecap="butt" d="M77.5 300.5L581.5 300.5" fill-rule="nonzero"/><path stroke="#cccccc" stroke-width="1.0" stroke-linecap="butt" d="M77.5 252.5L581.5 252.5" fill-rule="nonzero"/><path stroke="#cccccc" stroke-width="1.0" stroke-linecap="butt" d="M77.5 205.5L581.5 205.5" fill-rule="nonzero"/><path stroke="#cccccc" stroke-width="1.0" stroke-linecap="butt" d="M77.5 157.5L581.5 157.5" fill-rule="nonzero"/><path stroke="#cccccc" stroke-width="1.0" stroke-linecap="butt" d="M77.5 109.5L581.5 109.5" fill-rule="nonzero"/><path stroke="#cccccc" stroke-width="1.0" stroke-linecap="butt" d="M77.5 61.5L581.5 61.5" fill-rule="nonzero"/><clipPath id="id_0"><path d="M77.55 61.916668L581.45 61.916668L581.45 300.45L77.55 300.45L77.55 61.916668Z" clip-rule="nonzero"/></clipPath><path stroke="#4285f4" stroke-width="2.0" stroke-linecap="butt" clip-path="url(#id_0)" d="M77.55 186.90813L127.94 174.98146L178.33 158.7612L228.72 148.26573L279.11 136.33907L329.5 134.4308L379.89 134.90787L430.28 126.79774L480.67 119.64173L531.06 118.6876L581.45 107.715065" fill-rule="nonzero"/><path fill="#000000" fill-opacity="0.0" clip-path="url(#id_0)" d="M80.55 186.90813C80.55 188.56499 79.206856 189.90813 77.55 189.90813C75.89314 189.90813 74.55 188.56499 74.55 186.90813C74.55 185.25128 75.89314 183.90813 77.55 183.90813C79.206856 183.90813 80.55 185.25128 80.55 186.90813Z" fill-rule="nonzero"/><path fill="#000000" fill-opacity="0.0" clip-path="url(#id_0)" d="M130.94 174.98146C130.94 176.63832 129.59685 177.98146 127.94 177.98146C126.28314 177.98146 124.94 176.63832 124.94 174.98146C124.94 173.32462 126.28314 171.98146 127.94 171.98146C129.59685 171.98146 130.94 173.32462 130.94 174.98146Z" fill-rule="nonzero"/><path fill="#000000" fill-opacity="0.0" clip-path="url(#id_0)" d="M181.33 158.7612C181.33 160.41806 179.98685 161.7612 178.33 161.7612C176.67314 161.7612 175.33 160.41806 175.33 158.7612C175.33 157.10434 176.67314 155.7612 178.33 155.7612C179.98685 155.7612 181.33 157.10434 181.33 158.7612Z" fill-rule="nonzero"/><path fill="#000000" fill-opacity="0.0" clip-path="url(#id_0)" d="M231.72 148.26573C231.72 149.92259 230.37686 151.26573 228.72 151.26573C227.06314 151.26573 225.72 149.92259 225.72 148.26573C225.72 146.60887 227.06314 145.26573 228.72 145.26573C230.37686 145.26573 231.72 146.60887 231.72 148.26573Z" fill-rule="nonzero"/><path fill="#000000" fill-opacity="0.0" clip-path="url(#id_0)" d="M282.11 136.33907C282.11 137.99593 280.76685 139.33907 279.11 139.33907C277.45316 139.33907 276.11 137.99593 276.11 136.33907C276.11 134.6822 277.45316 133.33907 279.11 133.33907C280.76685 133.33907 282.11 134.6822 282.11 136.33907Z" fill-rule="nonzero"/><path fill="#000000" fill-opacity="0.0" clip-path="url(#id_0)" d="M332.5 134.4308C332.5 136.08766 331.15686 137.4308 329.5 137.4308C327.84314 137.4308 326.5 136.08766 326.5 134.4308C326.5 132.77394 327.84314 131.4308 329.5 131.4308C331.15686 131.4308 332.5 132.77394 332.5 134.4308Z" fill-rule="nonzero"/><path fill="#000000" fill-opacity="0.0" clip-path="url(#id_0)" d="M382.89 134.90787C382.89 136.56473 381.54684 137.90787 379.89 137.90787C378.23315 137.90787 376.89 136.56473 376.89 134.90787C376.89 133.251 378.23315 131.90787 379.89 131.90787C381.54684 131.90787 382.89 133.251 382.89 134.90787Z" fill-rule="nonzero"/><path fill="#000000" fill-opacity="0.0" clip-path="url(#id_0)" d="M433.28 126.79774C433.28 128.45459 431.93686 129.79773 430.28 129.79773C428.62314 129.79773 427.28 128.45459 427.28 126.79774C427.28 125.14088 428.62314 123.79774 430.28 123.79774C431.93686 123.79774 433.28 125.14088 433.28 126.79774Z" fill-rule="nonzero"/><path fill="#000000" fill-opacity="0.0" clip-path="url(#id_0)" d="M483.67 119.64173C483.67 121.298584 482.32684 122.64173 480.67 122.64173C479.01315 122.64173 477.67 121.298584 477.67 119.64173C477.67 117.98488 479.01315 116.64173 480.67 116.64173C482.32684 116.64173 483.67 117.98488 483.67 119.64173Z" fill-rule="nonzero"/><path fill="#000000" fill-opacity="0.0" clip-path="url(#id_0)" d="M534.06 118.6876C534.06 120.34445 532.71686 121.6876 531.06 121.6876C529.40314 121.6876 528.06 120.34445 528.06 118.6876C528.06 117.03075 529.40314 115.6876 531.06 115.6876C532.71686 115.6876 534.06 117.03075 534.06 118.6876Z" fill-rule="nonzero"/><path fill="#000000" fill-opacity="0.0" clip-path="url(#id_0)" d="M584.45 107.715065C584.45 109.37192 583.1069 110.715065 581.45 110.715065C579.79315 110.715065 578.45 109.37192 578.45 107.715065C578.45 106.05821 579.79315 104.715065 581.45 104.715065C583.1069 104.715065 584.45 106.05821 584.45 107.715065Z" fill-rule="nonzero"/><path fill="#000000" d="M255.9375 340.85626L257.07812 340.85626L257.07812 344.6219Q257.85938 344.6219 258.17188 344.325Q258.5 344.0125 258.98438 342.8719Q259.34375 342.02814 259.57812 341.6844Q259.8125 341.325 260.23438 341.09064Q260.65625 340.85626 261.17188 340.85626Q261.82812 340.85626 261.875 340.8719L261.875 341.85626Q261.8125 341.85626 261.64062 341.84064Q261.45312 341.84064 261.40625 341.84064Q260.85938 341.84064 260.60938 342.10626Q260.32812 342.3719 259.98438 343.23126Q259.54688 344.3094 259.25 344.60626Q258.95312 344.8875 258.54688 345.0594Q259.375 345.27814 260.1875 346.59064L261.95312 349.45L260.53125 349.45L259.10938 347.1219Q258.51562 346.15314 258.10938 345.79376Q257.71875 345.4344 257.07812 345.4344L257.07812 349.45L255.9375 349.45L255.9375 340.85626ZM262.79688 342.075L262.79688 340.85626L263.85938 340.85626L263.85938 342.075L262.79688 342.075ZM262.79688 349.45L262.79688 343.23126L263.85938 343.23126L263.85938 349.45L262.79688 349.45ZM266.3125 343.23126L271.20312 343.23126L271.20312 349.45L270.15625 349.45L270.15625 344.10626L267.35938 344.10626L267.35938 347.2Q267.35938 348.27814 267.28125 348.6375Q267.21875 348.98126 266.90625 349.2469Q266.59375 349.4969 265.98438 349.4969Q265.625 349.4969 265.14062 349.45L265.14062 348.5594L265.60938 348.5594Q265.9375 348.5594 266.07812 348.4969Q266.21875 348.4344 266.26562 348.29376Q266.3125 348.1375 266.3125 347.325L266.3125 343.23126ZM272.78125 343.23126L273.82812 343.23126L273.82812 345.65314L275.17188 345.65314Q276.46875 345.65314 277.17188 346.16876Q277.89062 346.66876 277.89062 347.5594Q277.89062 348.34064 277.29688 348.90314Q276.70312 349.45 275.40625 349.45L272.78125 349.45L272.78125 343.23126ZM273.82812 348.575L274.9375 348.575Q275.9375 348.575 276.35938 348.34064Q276.79688 348.09064 276.79688 347.575Q276.79688 347.16876 276.46875 346.85626Q276.15625 346.52814 275.07812 346.52814L273.82812 346.52814L273.82812 348.575ZM279.78125 343.23126L280.84375 343.23126L280.84375 345.91876Q281.34375 345.91876 281.54688 345.73126Q281.75 345.52814 282.14062 344.59064Q282.45312 343.85626 282.64062 343.6219Q282.84375 343.3875 283.09375 343.3094Q283.34375 343.23126 283.90625 343.23126L284.10938 343.23126L284.10938 344.10626L283.8125 344.09064Q283.40625 344.09064 283.28125 344.21564Q283.15625 344.34064 282.90625 344.98126Q282.67188 345.59064 282.46875 345.825Q282.26562 346.0594 281.85938 346.2625Q282.53125 346.4344 283.1875 347.52814L284.34375 349.45L283.1875 349.45L282.0625 347.52814Q281.71875 346.9344 281.45312 346.7625Q281.20312 346.575 280.84375 346.575L280.84375 349.45L279.78125 349.45L279.78125 343.23126ZM285.79688 342.075L285.79688 340.85626L286.85938 340.85626L286.85938 342.075L285.79688 342.075ZM285.79688 349.45L285.79688 343.23126L286.85938 343.23126L286.85938 349.45L285.79688 349.45ZM292.85938 347.16876L293.89062 347.3094Q293.71875 348.3719 293.01562 348.98126Q292.3125 349.59064 291.29688 349.59064Q290.01562 349.59064 289.23438 348.7625Q288.46875 347.91876 288.46875 346.35626Q288.46875 345.35626 288.79688 344.60626Q289.14062 343.84064 289.8125 343.46564Q290.5 343.09064 291.3125 343.09064Q292.3125 343.09064 292.95312 343.60626Q293.60938 344.10626 293.79688 345.0594L292.76562 345.21564Q292.625 344.59064 292.25 344.27814Q291.875 343.95 291.34375 343.95Q290.54688 343.95 290.04688 344.52814Q289.54688 345.09064 289.54688 346.325Q289.54688 347.59064 290.03125 348.15314Q290.51562 348.71564 291.28125 348.71564Q291.90625 348.71564 292.3125 348.34064Q292.73438 347.96564 292.85938 347.16876ZM294.21875 343.23126L299.28125 343.23126L299.28125 344.10626L297.28125 344.10626L297.28125 349.45L296.23438 349.45L296.23438 344.10626L294.21875 344.10626L294.21875 343.23126ZM299.78125 343.23126L300.82812 343.23126L300.82812 345.65314L302.17188 345.65314Q303.46875 345.65314 304.17188 346.16876Q304.89062 346.66876 304.89062 347.5594Q304.89062 348.34064 304.29688 348.90314Q303.70312 349.45 302.40625 349.45L299.78125 349.45L299.78125 343.23126ZM300.82812 348.575L301.9375 348.575Q302.9375 348.575 303.35938 348.34064Q303.79688 348.09064 303.79688 347.575Q303.79688 347.16876 303.46875 346.85626Q303.15625 346.52814 302.07812 346.52814L300.82812 346.52814L300.82812 348.575ZM309.79688 343.23126L314.70312 343.23126L314.70312 349.45L313.65625 349.45L313.65625 344.10626L310.85938 344.10626L310.85938 349.45L309.79688 349.45L309.79688 343.23126ZM320.85938 348.6844Q320.26562 349.1844 319.71875 349.3875Q319.1875 349.59064 318.5625 349.59064Q317.53125 349.59064 316.98438 349.09064Q316.4375 348.59064 316.4375 347.8094Q316.4375 347.35626 316.64062 346.98126Q316.84375 346.59064 317.1875 346.3719Q317.53125 346.1375 317.95312 346.02814Q318.25 345.9344 318.89062 345.85626Q320.15625 345.71564 320.76562 345.4969Q320.76562 345.27814 320.76562 345.23126Q320.76562 344.575 320.46875 344.3094Q320.0625 343.96564 319.26562 343.96564Q318.53125 343.96564 318.17188 344.23126Q317.8125 344.48126 317.64062 345.1375L316.60938 344.9969Q316.75 344.34064 317.07812 343.9344Q317.40625 343.52814 318.01562 343.3094Q318.625 343.09064 319.42188 343.09064Q320.21875 343.09064 320.71875 343.27814Q321.21875 343.46564 321.45312 343.7469Q321.6875 344.02814 321.78125 344.46564Q321.82812 344.73126 321.82812 345.4344L321.82812 346.84064Q321.82812 348.3094 321.89062 348.7Q321.96875 349.09064 322.17188 349.45L321.0625 349.45Q320.90625 349.1219 320.85938 348.6844ZM320.76562 346.325Q320.1875 346.5594 319.04688 346.73126Q318.39062 346.825 318.125 346.95Q317.85938 347.0594 317.70312 347.27814Q317.5625 347.4969 317.5625 347.77814Q317.5625 348.2 317.875 348.48126Q318.20312 348.7625 318.8125 348.7625Q319.42188 348.7625 319.89062 348.4969Q320.375 348.23126 320.59375 347.7625Q320.76562 347.40314 320.76562 346.71564L320.76562 346.325ZM323.79688 351.84064L323.79688 343.23126L324.75 343.23126L324.75 344.02814Q325.09375 343.5594 325.51562 343.325Q325.95312 343.09064 326.5625 343.09064Q327.35938 343.09064 327.96875 343.4969Q328.57812 343.90314 328.875 344.65314Q329.1875 345.40314 329.1875 346.29376Q329.1875 347.2469 328.84375 348.0125Q328.51562 348.77814 327.85938 349.1844Q327.20312 349.59064 326.48438 349.59064Q325.95312 349.59064 325.53125 349.3719Q325.10938 349.1375 324.84375 348.8094L324.84375 351.84064L323.79688 351.84064ZM324.75 346.3719Q324.75 347.575 325.23438 348.15314Q325.71875 348.71564 326.40625 348.71564Q327.10938 348.71564 327.60938 348.1219Q328.10938 347.52814 328.10938 346.27814Q328.10938 345.09064 327.625 344.5125Q327.14062 343.91876 326.45312 343.91876Q325.78125 343.91876 325.26562 344.54376Q324.75 345.16876 324.75 346.3719ZM330.79688 343.23126L331.85938 343.23126L331.85938 345.8094L334.78125 345.8094L334.78125 343.23126L335.82812 343.23126L335.82812 349.45L334.78125 349.45L334.78125 346.6844L331.85938 346.6844L331.85938 349.45L330.79688 349.45L330.79688 343.23126ZM337.79688 343.23126L338.84375 343.23126L338.84375 347.96564L341.76562 343.23126L342.90625 343.23126L342.90625 349.45L341.85938 349.45L341.85938 344.73126L338.92188 349.45L337.79688 349.45L337.79688 343.23126ZM344.78125 343.23126L345.84375 343.23126L345.84375 345.91876Q346.34375 345.91876 346.54688 345.73126Q346.75 345.52814 347.14062 344.59064Q347.45312 343.85626 347.64062 343.6219Q347.84375 343.3875 348.09375 343.3094Q348.34375 343.23126 348.90625 343.23126L349.10938 343.23126L349.10938 344.10626L348.8125 344.09064Q348.40625 344.09064 348.28125 344.21564Q348.15625 344.34064 347.90625 344.98126Q347.67188 345.59064 347.46875 345.825Q347.26562 346.0594 346.85938 346.2625Q347.53125 346.4344 348.1875 347.52814L349.34375 349.45L348.1875 349.45L347.0625 347.52814Q346.71875 346.9344 346.45312 346.7625Q346.20312 346.575 345.84375 346.575L345.84375 349.45L344.78125 349.45L344.78125 343.23126ZM350.40625 346.34064Q350.40625 344.60626 351.35938 343.77814Q352.15625 343.09064 353.3125 343.09064Q354.59375 343.09064 355.40625 343.9344Q356.23438 344.7625 356.23438 346.2469Q356.23438 347.45 355.875 348.1375Q355.51562 348.825 354.8125 349.21564Q354.125 349.59064 353.3125 349.59064Q352.01562 349.59064 351.20312 348.7625Q350.40625 347.91876 350.40625 346.34064ZM351.48438 346.34064Q351.48438 347.52814 352.0 348.1219Q352.53125 348.71564 353.3125 348.71564Q354.10938 348.71564 354.625 348.1219Q355.14062 347.52814 355.14062 346.3094Q355.14062 345.15314 354.60938 344.5594Q354.09375 343.96564 353.3125 343.96564Q352.53125 343.96564 352.0 344.5594Q351.48438 345.1375 351.48438 346.34064ZM357.79688 343.23126L360.23438 343.23126Q361.125 343.23126 361.5625 343.3875Q362.0 343.52814 362.3125 343.9344Q362.625 344.325 362.625 344.8719Q362.625 345.325 362.4375 345.65314Q362.25 345.98126 361.89062 346.21564Q362.32812 346.35626 362.60938 346.7625Q362.90625 347.15314 362.90625 347.71564Q362.84375 348.59064 362.26562 349.02814Q361.70312 349.45 360.60938 349.45L357.79688 349.45L357.79688 343.23126ZM358.85938 345.84064L359.98438 345.84064Q360.65625 345.84064 360.90625 345.77814Q361.15625 345.7 361.34375 345.4969Q361.54688 345.27814 361.54688 344.98126Q361.54688 344.48126 361.20312 344.29376Q360.85938 344.10626 360.01562 344.10626L358.85938 344.10626L358.85938 345.84064ZM358.85938 348.575L360.23438 348.575Q361.14062 348.575 361.46875 348.3719Q361.8125 348.16876 361.82812 347.65314Q361.82812 347.35626 361.625 347.10626Q361.4375 346.84064 361.125 346.77814Q360.8125 346.71564 360.125 346.71564L358.85938 346.71564L358.85938 348.575ZM363.79688 343.23126L364.84375 343.23126L364.84375 347.96564L367.76562 343.23126L368.90625 343.23126L368.90625 349.45L367.85938 349.45L367.85938 344.73126L364.92188 349.45L363.79688 349.45L363.79688 343.23126ZM370.09375 349.45L372.35938 346.21564L370.26562 343.23126L371.57812 343.23126L372.53125 344.6844Q372.79688 345.10626 372.96875 345.3875Q373.21875 344.9969 373.4375 344.7L374.48438 343.23126L375.75 343.23126L373.59375 346.15314L375.90625 349.45L374.625 349.45L373.34375 347.5125L373.0 346.9969L371.35938 349.45L370.09375 349.45ZM378.79688 343.23126L382.375 343.23126L382.375 344.10626L379.85938 344.10626L379.85938 349.45L378.79688 349.45L378.79688 343.23126ZM386.85938 348.6844Q386.26562 349.1844 385.71875 349.3875Q385.1875 349.59064 384.5625 349.59064Q383.53125 349.59064 382.98438 349.09064Q382.4375 348.59064 382.4375 347.8094Q382.4375 347.35626 382.64062 346.98126Q382.84375 346.59064 383.1875 346.3719Q383.53125 346.1375 383.95312 346.02814Q384.25 345.9344 384.89062 345.85626Q386.15625 345.71564 386.76562 345.4969Q386.76562 345.27814 386.76562 345.23126Q386.76562 344.575 386.46875 344.3094Q386.0625 343.96564 385.26562 343.96564Q384.53125 343.96564 384.17188 344.23126Q383.8125 344.48126 383.64062 345.1375L382.60938 344.9969Q382.75 344.34064 383.07812 343.9344Q383.40625 343.52814 384.01562 343.3094Q384.625 343.09064 385.42188 343.09064Q386.21875 343.09064 386.71875 343.27814Q387.21875 343.46564 387.45312 343.7469Q387.6875 344.02814 387.78125 344.46564Q387.82812 344.73126 387.82812 345.4344L387.82812 346.84064Q387.82812 348.3094 387.89062 348.7Q387.96875 349.09064 388.17188 349.45L387.0625 349.45Q386.90625 349.1219 386.85938 348.6844ZM386.76562 346.325Q386.1875 346.5594 385.04688 346.73126Q384.39062 346.825 384.125 346.95Q383.85938 347.0594 383.70312 347.27814Q383.5625 347.4969 383.5625 347.77814Q383.5625 348.2 383.875 348.48126Q384.20312 348.7625 384.8125 348.7625Q385.42188 348.7625 385.89062 348.4969Q386.375 348.23126 386.59375 347.7625Q386.76562 347.40314 386.76562 346.71564L386.76562 346.325ZM391.17188 346.6375L391.17188 345.8094Q391.84375 345.8094 392.07812 345.7625Q392.32812 345.71564 392.53125 345.48126Q392.75 345.2469 392.75 344.8875Q392.75 344.46564 392.46875 344.21564Q392.1875 343.95 391.73438 343.95Q390.84375 343.95 390.48438 344.9969L389.48438 344.84064Q389.95312 343.09064 391.75 343.09064Q392.75 343.09064 393.3125 343.6375Q393.875 344.16876 393.875 344.9344Q393.875 345.7 393.14062 346.1375Q393.60938 346.40314 393.84375 346.79376Q394.07812 347.16876 394.07812 347.71564Q394.07812 348.54376 393.46875 349.075Q392.85938 349.59064 391.76562 349.59064Q389.64062 349.59064 389.29688 347.7L390.28125 347.48126Q390.42188 348.09064 390.82812 348.41876Q391.25 348.7469 391.78125 348.7469Q392.3125 348.7469 392.65625 348.45Q393.01562 348.1375 393.01562 347.66876Q393.01562 347.3094 392.79688 347.04376Q392.57812 346.7625 392.32812 346.7Q392.07812 346.6375 391.40625 346.6375Q391.35938 346.6375 391.17188 346.6375ZM395.79688 342.075L395.79688 340.85626L396.85938 340.85626L396.85938 342.075L395.79688 342.075ZM395.79688 349.45L395.79688 343.23126L396.85938 343.23126L396.85938 349.45L395.79688 349.45ZM398.79688 343.23126L401.23438 343.23126Q402.125 343.23126 402.5625 343.3875Q403.0 343.52814 403.3125 343.9344Q403.625 344.325 403.625 344.8719Q403.625 345.325 403.4375 345.65314Q403.25 345.98126 402.89062 346.21564Q403.32812 346.35626 403.60938 346.7625Q403.90625 347.15314 403.90625 347.71564Q403.84375 348.59064 403.26562 349.02814Q402.70312 349.45 401.60938 349.45L398.79688 349.45L398.79688 343.23126ZM399.85938 345.84064L400.98438 345.84064Q401.65625 345.84064 401.90625 345.77814Q402.15625 345.7 402.34375 345.4969Q402.54688 345.27814 402.54688 344.98126Q402.54688 344.48126 402.20312 344.29376Q401.85938 344.10626 401.01562 344.10626L399.85938 344.10626L399.85938 345.84064ZM399.85938 348.575L401.23438 348.575Q402.14062 348.575 402.46875 348.3719Q402.8125 348.16876 402.82812 347.65314Q402.82812 347.35626 402.625 347.10626Q402.4375 346.84064 402.125 346.77814Q401.8125 346.71564 401.125 346.71564L399.85938 346.71564L399.85938 348.575Z" fill-rule="nonzero"/><path fill="#000000" d="M29.550013 222.07396L21.971888 222.07396L21.971888 224.90208L20.956263 224.90208L20.956263 218.08958L21.971888 218.08958L21.971888 220.93333L29.550013 220.93333L29.550013 222.07396ZM27.550013 213.13646L27.675013 212.04271Q28.628138 212.29271 29.159388 212.99583Q29.690638 213.69896 29.690638 214.77708Q29.690638 216.13646 28.846888 216.94896Q28.003138 217.74583 26.487513 217.74583Q24.925013 217.74583 24.065638 216.93333Q23.190638 216.12083 23.190638 214.83958Q23.190638 213.58958 24.034388 212.80833Q24.878138 212.01146 26.425013 212.01146Q26.518763 212.01146 26.706263 212.01146L26.706263 216.65208Q27.737513 216.58958 28.284388 216.07396Q28.815638 215.55833 28.815638 214.77708Q28.815638 214.19896 28.518763 213.79271Q28.206263 213.37083 27.550013 213.13646ZM25.846888 216.58958L25.846888 213.12083Q25.050013 213.18333 24.659388 213.51146Q24.050013 214.02708 24.050013 214.82396Q24.050013 215.55833 24.534388 216.05833Q25.018763 216.54271 25.846888 216.58958ZM23.331263 210.35521L23.331263 208.71458L28.300013 207.08958L23.331263 205.27708L23.331263 203.74583L29.550013 203.74583L29.550013 204.80833L24.534388 204.80833L29.550013 206.65208L29.550013 207.58958L24.300013 209.32396L29.550013 209.32396L29.550013 210.35521L23.331263 210.35521ZM23.331263 201.38646L23.331263 196.48021L29.550013 196.48021L29.550013 197.52708L24.206263 197.52708L24.206263 200.32396L29.550013 200.32396L29.550013 201.38646L23.331263 201.38646ZM27.550013 190.13646L27.675013 189.04271Q28.628138 189.29271 29.159388 189.99583Q29.690638 190.69896 29.690638 191.77708Q29.690638 193.13646 28.846888 193.94896Q28.003138 194.74583 26.487513 194.74583Q24.925013 194.74583 24.065638 193.93333Q23.190638 193.12083 23.190638 191.83958Q23.190638 190.58958 24.034388 189.80833Q24.878138 189.01146 26.425013 189.01146Q26.518763 189.01146 26.706263 189.01146L26.706263 193.65208Q27.737513 193.58958 28.284388 193.07396Q28.815638 192.55833 28.815638 191.77708Q28.815638 191.19896 28.518763 190.79271Q28.206263 190.37083 27.550013 190.13646ZM25.846888 193.58958L25.846888 190.12083Q25.050013 190.18333 24.659388 190.51146Q24.050013 191.02708 24.050013 191.82396Q24.050013 192.55833 24.534388 193.05833Q25.018763 193.54271 25.846888 193.58958ZM31.940638 187.38646L23.331263 187.38646L23.331263 186.43333L24.128138 186.43333Q23.659388 186.08958 23.425013 185.66771Q23.190638 185.23021 23.190638 184.62083Q23.190638 183.82396 23.596888 183.21458Q24.003138 182.60521 24.753138 182.30833Q25.503138 181.99583 26.393763 181.99583Q27.346888 181.99583 28.112513 182.33958Q28.878138 182.66771 29.284388 183.32396Q29.690638 183.98021 29.690638 184.69896Q29.690638 185.23021 29.471888 185.65208Q29.237513 186.07396 28.909388 186.33958L31.940638 186.33958L31.940638 187.38646ZM26.471888 186.43333Q27.675013 186.43333 28.253138 185.94896Q28.815638 185.46458 28.815638 184.77708Q28.815638 184.07396 28.221888 183.57396Q27.628138 183.07396 26.378138 183.07396Q25.190638 183.07396 24.612513 183.55833Q24.018763 184.04271 24.018763 184.73021Q24.018763 185.40208 24.643763 185.91771Q25.268763 186.43333 26.471888 186.43333ZM28.784388 176.32396Q29.284388 176.91771 29.487513 177.46458Q29.690638 177.99583 29.690638 178.62083Q29.690638 179.65208 29.190638 180.19896Q28.690638 180.74583 27.909388 180.74583Q27.456263 180.74583 27.081263 180.54271Q26.690638 180.33958 26.471888 179.99583Q26.237513 179.65208 26.128138 179.23021Q26.034388 178.93333 25.956263 178.29271Q25.815638 177.02708 25.596888 176.41771Q25.378138 176.41771 25.331263 176.41771Q24.675013 176.41771 24.409388 176.71458Q24.065638 177.12083 24.065638 177.91771Q24.065638 178.65208 24.331263 179.01146Q24.581263 179.37083 25.237513 179.54271L25.096888 180.57396Q24.440638 180.43333 24.034388 180.10521Q23.628138 179.77708 23.409388 179.16771Q23.190638 178.55833 23.190638 177.76146Q23.190638 176.96458 23.378138 176.46458Q23.565638 175.96458 23.846888 175.73021Q24.128138 175.49583 24.565638 175.40208Q24.831263 175.35521 25.534388 175.35521L26.940638 175.35521Q28.409388 175.35521 28.800013 175.29271Q29.190638 175.21458 29.550013 175.01146L29.550013 176.12083Q29.221888 176.27708 28.784388 176.32396ZM26.425013 176.41771Q26.659388 176.99583 26.831263 178.13646Q26.925013 178.79271 27.050013 179.05833Q27.159388 179.32396 27.378138 179.48021Q27.596888 179.62083 27.878138 179.62083Q28.300013 179.62083 28.581263 179.30833Q28.862513 178.98021 28.862513 178.37083Q28.862513 177.76146 28.596888 177.29271Q28.331263 176.80833 27.862513 176.58958Q27.503138 176.41771 26.815638 176.41771L26.425013 176.41771ZM23.331263 173.96458L23.331263 168.90208L24.206263 168.90208L24.206263 170.90208L29.550013 170.90208L29.550013 171.94896L24.206263 171.94896L24.206263 173.96458L23.331263 173.96458ZM31.940638 168.43333L30.956263 168.55833Q31.050013 168.21458 31.050013 167.94896Q31.050013 167.60521 30.925013 167.40208Q30.815638 167.18333 30.612513 167.04271Q30.440638 166.94896 29.815638 166.71458Q29.737513 166.69896 29.565638 166.62083L23.331263 168.99583L23.331263 167.85521L26.925013 166.55833Q27.612513 166.30833 28.378138 166.10521Q27.643763 165.91771 26.956263 165.66771L23.331263 164.33958L23.331263 163.29271L29.659388 165.65208Q30.675013 166.04271 31.065638 166.24583Q31.596888 166.52708 31.831263 166.90208Q32.08126 167.26146 32.08126 167.76146Q32.08126 168.05833 31.940638 168.43333ZM31.940638 163.38646L23.331263 163.38646L23.331263 162.43333L24.128138 162.43333Q23.659388 162.08958 23.425013 161.66771Q23.190638 161.23021 23.190638 160.62083Q23.190638 159.82396 23.596888 159.21458Q24.003138 158.60521 24.753138 158.30833Q25.503138 157.99583 26.393763 157.99583Q27.346888 157.99583 28.112513 158.33958Q28.878138 158.66771 29.284388 159.32396Q29.690638 159.98021 29.690638 160.69896Q29.690638 161.23021 29.471888 161.65208Q29.237513 162.07396 28.909388 162.33958L31.940638 162.33958L31.940638 163.38646ZM26.471888 162.43333Q27.675013 162.43333 28.253138 161.94896Q28.815638 161.46458 28.815638 160.77708Q28.815638 160.07396 28.221888 159.57396Q27.628138 159.07396 26.378138 159.07396Q25.190638 159.07396 24.612513 159.55833Q24.018763 160.04271 24.018763 160.73021Q24.018763 161.40208 24.643763 161.91771Q25.268763 162.43333 26.471888 162.43333ZM28.784388 152.32396Q29.284388 152.91771 29.487513 153.46458Q29.690638 153.99583 29.690638 154.62083Q29.690638 155.65208 29.190638 156.19896Q28.690638 156.74583 27.909388 156.74583Q27.456263 156.74583 27.081263 156.54271Q26.690638 156.33958 26.471888 155.99583Q26.237513 155.65208 26.128138 155.23021Q26.034388 154.93333 25.956263 154.29271Q25.815638 153.02708 25.596888 152.41771Q25.378138 152.41771 25.331263 152.41771Q24.675013 152.41771 24.409388 152.71458Q24.065638 153.12083 24.065638 153.91771Q24.065638 154.65208 24.331263 155.01146Q24.581263 155.37083 25.237513 155.54271L25.096888 156.57396Q24.440638 156.43333 24.034388 156.10521Q23.628138 155.77708 23.409388 155.16771Q23.190638 154.55833 23.190638 153.76146Q23.190638 152.96458 23.378138 152.46458Q23.565638 151.96458 23.846888 151.73021Q24.128138 151.49583 24.565638 151.40208Q24.831263 151.35521 25.534388 151.35521L26.940638 151.35521Q28.409388 151.35521 28.800013 151.29271Q29.190638 151.21458 29.550013 151.01146L29.550013 152.12083Q29.221888 152.27708 28.784388 152.32396ZM26.425013 152.41771Q26.659388 152.99583 26.831263 154.13646Q26.925013 154.79271 27.050013 155.05833Q27.159388 155.32396 27.378138 155.48021Q27.596888 155.62083 27.878138 155.62083Q28.300013 155.62083 28.581263 155.30833Q28.862513 154.98021 28.862513 154.37083Q28.862513 153.76146 28.596888 153.29271Q28.331263 152.80833 27.862513 152.58958Q27.503138 152.41771 26.815638 152.41771L26.425013 152.41771Z" fill-rule="nonzero"/><path fill="#000000" d="M65.05 300.21564Q65.05 298.6844 65.3625 297.7625Q65.675 296.825 66.28438 296.325Q66.90938 295.825 67.84688 295.825Q68.53438 295.825 69.05 296.10626Q69.58125 296.3875 69.925 296.91876Q70.26875 297.4344 70.45625 298.1844Q70.64375 298.9344 70.64375 300.21564Q70.64375 301.73126 70.33125 302.65314Q70.03438 303.575 69.40938 304.09064Q68.8 304.59064 67.84688 304.59064Q66.6125 304.59064 65.89375 303.7Q65.05 302.6375 65.05 300.21564ZM66.12813 300.21564Q66.12813 302.325 66.62813 303.02814Q67.12813 303.73126 67.84688 303.73126Q68.58125 303.73126 69.06563 303.02814Q69.56563 302.325 69.56563 300.21564Q69.56563 298.09064 69.06563 297.40314Q68.58125 296.7 67.83125 296.7Q67.1125 296.7 66.675 297.3094Q66.12813 298.09064 66.12813 300.21564Z" fill-rule="nonzero"/><path fill="#000000" d="M62.01875 256.74335L60.971874 256.74335L60.971874 250.0246Q60.58125 250.38397 59.95625 250.75897Q59.346874 251.11835 58.8625 251.29022L58.8625 250.2746Q59.7375 249.85272 60.39375 249.2746Q61.065624 248.68085 61.346874 248.11835L62.01875 248.11835L62.01875 256.74335ZM65.05 252.50897Q65.05 250.97772 65.3625 250.05585Q65.675 249.11835 66.28438 248.61835Q66.90938 248.11835 67.84688 248.11835Q68.53438 248.11835 69.05 248.3996Q69.58125 248.68085 69.925 249.2121Q70.26875 249.72772 70.45625 250.47772Q70.64375 251.22772 70.64375 252.50897Q70.64375 254.0246 70.33125 254.94647Q70.03438 255.86835 69.40938 256.38397Q68.8 256.88397 67.84688 256.88397Q66.6125 256.88397 65.89375 255.99335Q65.05 254.93085 65.05 252.50897ZM66.12813 252.50897Q66.12813 254.61835 66.62813 255.32147Q67.12813 256.0246 67.84688 256.0246Q68.58125 256.0246 69.06563 255.32147Q69.56563 254.61835 69.56563 252.50897Q69.56563 250.38397 69.06563 249.69647Q68.58125 248.99335 67.83125 248.99335Q67.1125 248.99335 66.675 249.60272Q66.12813 250.38397 66.12813 252.50897Z" fill-rule="nonzero"/><path fill="#000000" d="M63.596874 208.02104L63.596874 209.03667L57.909374 209.03667Q57.909374 208.66167 58.034374 208.30229Q58.253124 207.72417 58.721874 207.16167Q59.20625 206.59917 60.1125 205.86479Q61.51875 204.70854 62.003124 204.03667Q62.503124 203.36479 62.503124 202.77104Q62.503124 202.14604 62.05 201.72417Q61.596874 201.28667 60.878124 201.28667Q60.1125 201.28667 59.659374 201.73979Q59.20625 202.19292 59.190624 203.00542L58.1125 202.89604Q58.221874 201.67729 58.940624 201.05229Q59.675 200.41167 60.909374 200.41167Q62.14375 200.41167 62.8625 201.09917Q63.58125 201.78667 63.58125 202.80229Q63.58125 203.31792 63.3625 203.81792Q63.159374 204.30229 62.659374 204.86479Q62.175 205.41167 61.05 206.36479Q60.096874 207.16167 59.815624 207.45854Q59.55 207.73979 59.378124 208.02104L63.596874 208.02104ZM65.05 204.80229Q65.05 203.27104 65.3625 202.34917Q65.675 201.41167 66.28438 200.91167Q66.90938 200.41167 67.84688 200.41167Q68.53438 200.41167 69.05 200.69292Q69.58125 200.97417 69.925 201.50542Q70.26875 202.02104 70.45625 202.77104Q70.64375 203.52104 70.64375 204.80229Q70.64375 206.31792 70.33125 207.23979Q70.03438 208.16167 69.40938 208.67729Q68.8 209.17729 67.84688 209.17729Q66.6125 209.17729 65.89375 208.28667Q65.05 207.22417 65.05 204.80229ZM66.12813 204.80229Q66.12813 206.91167 66.62813 207.61479Q67.12813 208.31792 67.84688 208.31792Q68.58125 208.31792 69.06563 207.61479Q69.56563 206.91167 69.56563 204.80229Q69.56563 202.67729 69.06563 201.98979Q68.58125 201.28667 67.83125 201.28667Q67.1125 201.28667 66.675 201.89604Q66.12813 202.67729 66.12813 204.80229Z" fill-rule="nonzero"/><path fill="#000000" d="M58.05 159.06438L59.1125 158.92375Q59.284374 159.81438 59.721874 160.22063Q60.159374 160.61125 60.784374 160.61125Q61.534374 160.61125 62.05 160.09563Q62.565624 159.58 62.565624 158.81438Q62.565624 158.09563 62.08125 157.62688Q61.6125 157.1425 60.878124 157.1425Q60.58125 157.1425 60.128124 157.2675L60.253124 156.33Q60.3625 156.34563 60.425 156.34563Q61.096874 156.34563 61.628124 156.00188Q62.175 155.6425 62.175 154.90813Q62.175 154.33 61.784374 153.955Q61.39375 153.56438 60.76875 153.56438Q60.159374 153.56438 59.7375 153.955Q59.33125 154.34563 59.221874 155.11125L58.159374 154.92375Q58.346874 153.87688 59.034374 153.29875Q59.721874 152.705 60.7375 152.705Q61.440624 152.705 62.034374 153.0175Q62.628124 153.31438 62.940624 153.83Q63.253124 154.34563 63.253124 154.93938Q63.253124 155.48625 62.95625 155.955Q62.659374 156.40813 62.08125 156.67375Q62.83125 156.84563 63.253124 157.40813Q63.675 157.955 63.675 158.79875Q63.675 159.92375 62.846874 160.705Q62.034374 161.48625 60.784374 161.48625Q59.659374 161.48625 58.909374 160.81438Q58.159374 160.12688 58.05 159.06438ZM65.05 157.09563Q65.05 155.56438 65.3625 154.6425Q65.675 153.705 66.28438 153.205Q66.90938 152.705 67.84688 152.705Q68.53438 152.705 69.05 152.98625Q69.58125 153.2675 69.925 153.79875Q70.26875 154.31438 70.45625 155.06438Q70.64375 155.81438 70.64375 157.09563Q70.64375 158.61125 70.33125 159.53313Q70.03438 160.455 69.40938 160.97063Q68.8 161.47063 67.84688 161.47063Q66.6125 161.47063 65.89375 160.58Q65.05 159.5175 65.05 157.09563ZM66.12813 157.09563Q66.12813 159.205 66.62813 159.90813Q67.12813 160.61125 67.84688 160.61125Q68.58125 160.61125 69.06563 159.90813Q69.56563 159.205 69.56563 157.09563Q69.56563 154.97063 69.06563 154.28313Q68.58125 153.58 67.83125 153.58Q67.1125 153.58 66.675 154.18938Q66.12813 154.97063 66.12813 157.09563Z" fill-rule="nonzero"/><path fill="#000000" d="M61.425 113.62334L61.425 111.56084L57.70625 111.56084L57.70625 110.59209L61.628124 105.02959L62.4875 105.02959L62.4875 110.59209L63.64375 110.59209L63.64375 111.56084L62.4875 111.56084L62.4875 113.62334L61.425 113.62334ZM61.425 110.59209L61.425 106.73271L58.7375 110.59209L61.425 110.59209ZM65.05 109.38896Q65.05 107.85771 65.3625 106.93584Q65.675 105.99834 66.28438 105.49834Q66.90938 104.99834 67.84688 104.99834Q68.53438 104.99834 69.05 105.27959Q69.58125 105.56084 69.925 106.09209Q70.26875 106.60771 70.45625 107.35771Q70.64375 108.10771 70.64375 109.38896Q70.64375 110.90459 70.33125 111.82646Q70.03438 112.74834 69.40938 113.26396Q68.8 113.76396 67.84688 113.76396Q66.6125 113.76396 65.89375 112.87334Q65.05 111.81084 65.05 109.38896ZM66.12813 109.38896Q66.12813 111.49834 66.62813 112.20146Q67.12813 112.90459 67.84688 112.90459Q68.58125 112.90459 69.06563 112.20146Q69.56563 111.49834 69.56563 109.38896Q69.56563 107.26396 69.06563 106.57646Q68.58125 105.87334 67.83125 105.87334Q67.1125 105.87334 66.675 106.48271Q66.12813 107.26396 66.12813 109.38896Z" fill-rule="nonzero"/><path fill="#000000" d="M58.05 63.666664L59.159374 63.572914Q59.284374 64.385414 59.721874 64.791664Q60.175 65.197914 60.815624 65.197914Q61.565624 65.197914 62.096874 64.61979Q62.628124 64.041664 62.628124 63.104164Q62.628124 62.197914 62.1125 61.68229Q61.6125 61.15104 60.784374 61.15104Q60.284374 61.15104 59.8625 61.385414Q59.45625 61.61979 59.221874 61.979164L58.2375 61.854164L59.065624 57.447914L63.346874 57.447914L63.346874 58.447914L59.909374 58.447914L59.45625 60.760414Q60.221874 60.21354 61.065624 60.21354Q62.190624 60.21354 62.95625 60.99479Q63.7375 61.77604 63.7375 63.010414Q63.7375 64.166664 63.065624 65.02604Q62.2375 66.05729 60.815624 66.05729Q59.64375 66.05729 58.89375 65.40104Q58.159374 64.74479 58.05 63.666664ZM65.05 61.68229Q65.05 60.15104 65.3625 59.229164Q65.675 58.291664 66.28438 57.791664Q66.90938 57.291664 67.84688 57.291664Q68.53438 57.291664 69.05 57.572914Q69.58125 57.854164 69.925 58.385414Q70.26875 58.90104 70.45625 59.65104Q70.64375 60.40104 70.64375 61.68229Q70.64375 63.197914 70.33125 64.11979Q70.03438 65.041664 69.40938 65.55729Q68.8 66.05729 67.84688 66.05729Q66.6125 66.05729 65.89375 65.166664Q65.05 64.104164 65.05 61.68229ZM66.12813 61.68229Q66.12813 63.791664 66.62813 64.49479Q67.12813 65.197914 67.84688 65.197914Q68.58125 65.197914 69.06563 64.49479Q69.56563 63.791664 69.56563 61.68229Q69.56563 59.55729 69.06563 58.86979Q68.58125 58.166664 67.83125 58.166664Q67.1125 58.166664 66.675 58.77604Q66.12813 59.55729 66.12813 61.68229Z" fill-rule="nonzero"/><path fill="#000000" d="M74.55 313.21564Q74.55 311.6844 74.8625 310.7625Q75.175 309.825 75.78438 309.325Q76.40938 308.825 77.34688 308.825Q78.03438 308.825 78.55 309.10626Q79.08125 309.3875 79.425 309.91876Q79.76875 310.4344 79.95625 311.1844Q80.14375 311.9344 80.14375 313.21564Q80.14375 314.73126 79.83125 315.65314Q79.53438 316.575 78.90938 317.09064Q78.3 317.59064 77.34688 317.59064Q76.1125 317.59064 75.39375 316.7Q74.55 315.6375 74.55 313.21564ZM75.62813 313.21564Q75.62813 315.325 76.12813 316.02814Q76.62813 316.73126 77.34688 316.73126Q78.08125 316.73126 78.56563 316.02814Q79.06563 315.325 79.06563 313.21564Q79.06563 311.09064 78.56563 310.40314Q78.08125 309.7 77.33125 309.7Q76.6125 309.7 76.175 310.3094Q75.62813 311.09064 75.62813 313.21564Z" fill-rule="nonzero"/><path fill="#000000" d="M172.29875 317.45L171.25188 317.45L171.25188 310.73126Q170.86125 311.09064 170.23625 311.46564Q169.62688 311.825 169.1425 311.9969L169.1425 310.98126Q170.0175 310.5594 170.67375 309.98126Q171.34563 309.3875 171.62688 308.825L172.29875 308.825L172.29875 317.45ZM175.33 313.21564Q175.33 311.6844 175.6425 310.7625Q175.955 309.825 176.56438 309.325Q177.18938 308.825 178.12688 308.825Q178.81438 308.825 179.33 309.10626Q179.86125 309.3875 180.205 309.91876Q180.54875 310.4344 180.73625 311.1844Q180.92375 311.9344 180.92375 313.21564Q180.92375 314.73126 180.61125 315.65314Q180.31438 316.575 179.68938 317.09064Q179.08 317.59064 178.12688 317.59064Q176.8925 317.59064 176.17375 316.7Q175.33 315.6375 175.33 313.21564ZM176.40813 313.21564Q176.40813 315.325 176.90813 316.02814Q177.40813 316.73126 178.12688 316.73126Q178.86125 316.73126 179.34563 316.02814Q179.84563 315.325 179.84563 313.21564Q179.84563 311.09064 179.34563 310.40314Q178.86125 309.7 178.11125 309.7Q177.3925 309.7 176.955 310.3094Q176.40813 311.09064 176.40813 313.21564ZM182.33 313.21564Q182.33 311.6844 182.6425 310.7625Q182.955 309.825 183.56438 309.325Q184.18938 308.825 185.12688 308.825Q185.81438 308.825 186.33 309.10626Q186.86125 309.3875 187.205 309.91876Q187.54875 310.4344 187.73625 311.1844Q187.92375 311.9344 187.92375 313.21564Q187.92375 314.73126 187.61125 315.65314Q187.31438 316.575 186.68938 317.09064Q186.08 317.59064 185.12688 317.59064Q183.8925 317.59064 183.17375 316.7Q182.33 315.6375 182.33 313.21564ZM183.40813 313.21564Q183.40813 315.325 183.90813 316.02814Q184.40813 316.73126 185.12688 316.73126Q185.86125 316.73126 186.34563 316.02814Q186.84563 315.325 186.84563 313.21564Q186.84563 311.09064 186.34563 310.40314Q185.86125 309.7 185.11125 309.7Q184.3925 309.7 183.955 310.3094Q183.40813 311.09064 183.40813 313.21564Z" fill-rule="nonzero"/><path fill="#000000" d="M274.65686 316.4344L274.65686 317.45L268.96936 317.45Q268.96936 317.075 269.09436 316.71564Q269.3131 316.1375 269.78186 315.575Q270.26624 315.0125 271.1725 314.27814Q272.57874 313.1219 273.0631 312.45Q273.5631 311.77814 273.5631 311.1844Q273.5631 310.5594 273.11 310.1375Q272.65686 309.7 271.9381 309.7Q271.1725 309.7 270.71936 310.15314Q270.26624 310.60626 270.2506 311.41876L269.1725 311.3094Q269.28186 310.09064 270.0006 309.46564Q270.735 308.825 271.96936 308.825Q273.20374 308.825 273.9225 309.5125Q274.64124 310.2 274.64124 311.21564Q274.64124 311.73126 274.4225 312.23126Q274.21936 312.71564 273.71936 313.27814Q273.235 313.825 272.11 314.77814Q271.15686 315.575 270.8756 315.8719Q270.61 316.15314 270.4381 316.4344L274.65686 316.4344ZM276.11 313.21564Q276.11 311.6844 276.4225 310.7625Q276.735 309.825 277.34436 309.325Q277.96936 308.825 278.90686 308.825Q279.59436 308.825 280.11 309.10626Q280.64124 309.3875 280.985 309.91876Q281.32874 310.4344 281.51624 311.1844Q281.70374 311.9344 281.70374 313.21564Q281.70374 314.73126 281.39124 315.65314Q281.09436 316.575 280.46936 317.09064Q279.86 317.59064 278.90686 317.59064Q277.6725 317.59064 276.95374 316.7Q276.11 315.6375 276.11 313.21564ZM277.1881 313.21564Q277.1881 315.325 277.6881 316.02814Q278.1881 316.73126 278.90686 316.73126Q279.64124 316.73126 280.1256 316.02814Q280.6256 315.325 280.6256 313.21564Q280.6256 311.09064 280.1256 310.40314Q279.64124 309.7 278.89124 309.7Q278.1725 309.7 277.735 310.3094Q277.1881 311.09064 277.1881 313.21564ZM283.11 313.21564Q283.11 311.6844 283.4225 310.7625Q283.735 309.825 284.34436 309.325Q284.96936 308.825 285.90686 308.825Q286.59436 308.825 287.11 309.10626Q287.64124 309.3875 287.985 309.91876Q288.32874 310.4344 288.51624 311.1844Q288.70374 311.9344 288.70374 313.21564Q288.70374 314.73126 288.39124 315.65314Q288.09436 316.575 287.46936 317.09064Q286.86 317.59064 285.90686 317.59064Q284.6725 317.59064 283.95374 316.7Q283.11 315.6375 283.11 313.21564ZM284.1881 313.21564Q284.1881 315.325 284.6881 316.02814Q285.1881 316.73126 285.90686 316.73126Q286.64124 316.73126 287.1256 316.02814Q287.6256 315.325 287.6256 313.21564Q287.6256 311.09064 287.1256 310.40314Q286.64124 309.7 285.89124 309.7Q285.1725 309.7 284.735 310.3094Q284.1881 311.09064 284.1881 313.21564Z" fill-rule="nonzero"/><path fill="#000000" d="M369.89 315.1844L370.9525 315.04376Q371.1244 315.9344 371.5619 316.34064Q371.9994 316.73126 372.6244 316.73126Q373.3744 316.73126 373.89 316.21564Q374.40564 315.7 374.40564 314.9344Q374.40564 314.21564 373.92126 313.7469Q373.4525 313.2625 372.71814 313.2625Q372.42126 313.2625 371.96814 313.3875L372.09314 312.45Q372.2025 312.46564 372.265 312.46564Q372.9369 312.46564 373.46814 312.1219Q374.015 311.7625 374.015 311.02814Q374.015 310.45 373.6244 310.075Q373.23376 309.6844 372.60876 309.6844Q371.9994 309.6844 371.5775 310.075Q371.17126 310.46564 371.0619 311.23126L369.9994 311.04376Q370.1869 309.9969 370.8744 309.41876Q371.5619 308.825 372.5775 308.825Q373.28064 308.825 373.8744 309.1375Q374.46814 309.4344 374.78064 309.95Q375.09314 310.46564 375.09314 311.0594Q375.09314 311.60626 374.79626 312.075Q374.4994 312.52814 373.92126 312.79376Q374.67126 312.96564 375.09314 313.52814Q375.515 314.075 375.515 314.91876Q375.515 316.04376 374.6869 316.825Q373.8744 317.60626 372.6244 317.60626Q371.4994 317.60626 370.7494 316.9344Q369.9994 316.2469 369.89 315.1844ZM376.89 313.21564Q376.89 311.6844 377.2025 310.7625Q377.515 309.825 378.1244 309.325Q378.7494 308.825 379.6869 308.825Q380.3744 308.825 380.89 309.10626Q381.42126 309.3875 381.765 309.91876Q382.10876 310.4344 382.29626 311.1844Q382.48376 311.9344 382.48376 313.21564Q382.48376 314.73126 382.17126 315.65314Q381.8744 316.575 381.2494 317.09064Q380.64 317.59064 379.6869 317.59064Q378.4525 317.59064 377.73376 316.7Q376.89 315.6375 376.89 313.21564ZM377.96814 313.21564Q377.96814 315.325 378.46814 316.02814Q378.96814 316.73126 379.6869 316.73126Q380.42126 316.73126 380.90564 316.02814Q381.40564 315.325 381.40564 313.21564Q381.40564 311.09064 380.90564 310.40314Q380.42126 309.7 379.67126 309.7Q378.9525 309.7 378.515 310.3094Q377.96814 311.09064 377.96814 313.21564ZM383.89 313.21564Q383.89 311.6844 384.2025 310.7625Q384.515 309.825 385.1244 309.325Q385.7494 308.825 386.6869 308.825Q387.3744 308.825 387.89 309.10626Q388.42126 309.3875 388.765 309.91876Q389.10876 310.4344 389.29626 311.1844Q389.48376 311.9344 389.48376 313.21564Q389.48376 314.73126 389.17126 315.65314Q388.8744 316.575 388.2494 317.09064Q387.64 317.59064 386.6869 317.59064Q385.4525 317.59064 384.73376 316.7Q383.89 315.6375 383.89 313.21564ZM384.96814 313.21564Q384.96814 315.325 385.46814 316.02814Q385.96814 316.73126 386.6869 316.73126Q387.42126 316.73126 387.90564 316.02814Q388.40564 315.325 388.40564 313.21564Q388.40564 311.09064 387.90564 310.40314Q387.42126 309.7 386.67126 309.7Q385.9525 309.7 385.515 310.3094Q384.96814 311.09064 384.96814 313.21564Z" fill-rule="nonzero"/><path fill="#000000" d="M474.045 317.45L474.045 315.3875L470.32626 315.3875L470.32626 314.41876L474.24814 308.85626L475.1075 308.85626L475.1075 314.41876L476.26376 314.41876L476.26376 315.3875L475.1075 315.3875L475.1075 317.45L474.045 317.45ZM474.045 314.41876L474.045 310.5594L471.3575 314.41876L474.045 314.41876ZM477.67 313.21564Q477.67 311.6844 477.9825 310.7625Q478.295 309.825 478.9044 309.325Q479.5294 308.825 480.4669 308.825Q481.1544 308.825 481.67 309.10626Q482.20126 309.3875 482.545 309.91876Q482.88876 310.4344 483.07626 311.1844Q483.26376 311.9344 483.26376 313.21564Q483.26376 314.73126 482.95126 315.65314Q482.6544 316.575 482.0294 317.09064Q481.42 317.59064 480.4669 317.59064Q479.2325 317.59064 478.51376 316.7Q477.67 315.6375 477.67 313.21564ZM478.74814 313.21564Q478.74814 315.325 479.24814 316.02814Q479.74814 316.73126 480.4669 316.73126Q481.20126 316.73126 481.68564 316.02814Q482.18564 315.325 482.18564 313.21564Q482.18564 311.09064 481.68564 310.40314Q481.20126 309.7 480.45126 309.7Q479.7325 309.7 479.295 310.3094Q478.74814 311.09064 478.74814 313.21564ZM484.67 313.21564Q484.67 311.6844 484.9825 310.7625Q485.295 309.825 485.9044 309.325Q486.5294 308.825 487.4669 308.825Q488.1544 308.825 488.67 309.10626Q489.20126 309.3875 489.545 309.91876Q489.88876 310.4344 490.07626 311.1844Q490.26376 311.9344 490.26376 313.21564Q490.26376 314.73126 489.95126 315.65314Q489.6544 316.575 489.0294 317.09064Q488.42 317.59064 487.4669 317.59064Q486.2325 317.59064 485.51376 316.7Q484.67 315.6375 484.67 313.21564ZM485.74814 313.21564Q485.74814 315.325 486.24814 316.02814Q486.74814 316.73126 487.4669 316.73126Q488.20126 316.73126 488.68564 316.02814Q489.18564 315.325 489.18564 313.21564Q489.18564 311.09064 488.68564 310.40314Q488.20126 309.7 487.45126 309.7Q486.7325 309.7 486.295 310.3094Q485.74814 311.09064 485.74814 313.21564Z" fill-rule="nonzero"/><path fill="#000000" d="M571.45 315.2L572.5594 315.10626Q572.6844 315.91876 573.1219 316.325Q573.575 316.73126 574.21564 316.73126Q574.96564 316.73126 575.4969 316.15314Q576.02814 315.575 576.02814 314.6375Q576.02814 313.73126 575.5125 313.21564Q575.0125 312.6844 574.1844 312.6844Q573.6844 312.6844 573.2625 312.91876Q572.85626 313.15314 572.6219 313.5125L571.6375 313.3875L572.46564 308.98126L576.7469 308.98126L576.7469 309.98126L573.3094 309.98126L572.85626 312.29376Q573.6219 311.7469 574.46564 311.7469Q575.59064 311.7469 576.35626 312.52814Q577.1375 313.3094 577.1375 314.54376Q577.1375 315.7 576.46564 316.5594Q575.6375 317.59064 574.21564 317.59064Q573.04376 317.59064 572.29376 316.9344Q571.5594 316.27814 571.45 315.2ZM578.45 313.21564Q578.45 311.6844 578.7625 310.7625Q579.075 309.825 579.6844 309.325Q580.3094 308.825 581.2469 308.825Q581.9344 308.825 582.45 309.10626Q582.98126 309.3875 583.325 309.91876Q583.66876 310.4344 583.85626 311.1844Q584.04376 311.9344 584.04376 313.21564Q584.04376 314.73126 583.73126 315.65314Q583.4344 316.575 582.8094 317.09064Q582.2 317.59064 581.2469 317.59064Q580.0125 317.59064 579.29376 316.7Q578.45 315.6375 578.45 313.21564ZM579.52814 313.21564Q579.52814 315.325 580.02814 316.02814Q580.52814 316.73126 581.2469 316.73126Q581.98126 316.73126 582.46564 316.02814Q582.96564 315.325 582.96564 313.21564Q582.96564 311.09064 582.46564 310.40314Q581.98126 309.7 581.23126 309.7Q580.5125 309.7 580.075 310.3094Q579.52814 311.09064 579.52814 313.21564ZM585.45 313.21564Q585.45 311.6844 585.7625 310.7625Q586.075 309.825 586.6844 309.325Q587.3094 308.825 588.2469 308.825Q588.9344 308.825 589.45 309.10626Q589.98126 309.3875 590.325 309.91876Q590.66876 310.4344 590.85626 311.1844Q591.04376 311.9344 591.04376 313.21564Q591.04376 314.73126 590.73126 315.65314Q590.4344 316.575 589.8094 317.09064Q589.2 317.59064 588.2469 317.59064Q587.0125 317.59064 586.29376 316.7Q585.45 315.6375 585.45 313.21564ZM586.52814 313.21564Q586.52814 315.325 587.02814 316.02814Q587.52814 316.73126 588.2469 316.73126Q588.98126 316.73126 589.46564 316.02814Q589.96564 315.325 589.96564 313.21564Q589.96564 311.09064 589.46564 310.40314Q588.98126 309.7 588.23126 309.7Q587.5125 309.7 587.075 310.3094Q586.52814 311.09064 586.52814 313.21564Z" fill-rule="nonzero"/><path fill="#757575" d="M23.7375 37.55L23.7375 24.925L19.01875 24.925L19.01875 23.2375L30.3625 23.2375L30.3625 24.925L25.628124 24.925L25.628124 37.55L23.7375 37.55ZM38.971874 34.20625L40.784374 34.440624Q40.3625 36.01875 39.190624 36.909374Q38.034374 37.784374 36.221874 37.784374Q33.95625 37.784374 32.6125 36.39375Q31.284374 34.9875 31.284374 32.45625Q31.284374 29.83125 32.628124 28.39375Q33.971874 26.940624 36.128124 26.940624Q38.20625 26.940624 39.51875 28.3625Q40.846874 29.76875 40.846874 32.346874Q40.846874 32.503124 40.83125 32.815624L33.096874 32.815624Q33.190624 34.51875 34.065624 35.425Q34.940624 36.33125 36.2375 36.33125Q37.20625 36.33125 37.878124 35.83125Q38.565624 35.315624 38.971874 34.20625ZM33.190624 31.3625L38.9875 31.3625Q38.878124 30.065624 38.33125 29.409374Q37.4875 28.39375 36.14375 28.39375Q34.940624 28.39375 34.1125 29.20625Q33.284374 30.003124 33.190624 31.3625ZM42.925 27.175L45.659374 27.175L48.378124 35.471874L51.409374 27.175L53.940624 27.175L53.940624 37.55L52.175 37.55L52.175 29.20625L49.1125 37.55L47.534374 37.55L44.64375 28.8L44.64375 37.55L42.925 37.55L42.925 27.175ZM55.878124 27.175L64.06563 27.175L64.06563 37.55L62.3 37.55L62.3 28.628124L57.64375 28.628124L57.64375 37.55L55.878124 37.55L55.878124 27.175ZM72.97188 34.20625L74.78438 34.440624Q74.3625 36.01875 73.19063 36.909374Q72.03438 37.784374 70.22188 37.784374Q67.95625 37.784374 66.6125 36.39375Q65.28438 34.9875 65.28438 32.45625Q65.28438 29.83125 66.62813 28.39375Q67.97188 26.940624 70.12813 26.940624Q72.20625 26.940624 73.51875 28.3625Q74.84688 29.76875 74.84688 32.346874Q74.84688 32.503124 74.83125 32.815624L67.09688 32.815624Q67.19063 34.51875 68.06563 35.425Q68.94063 36.33125 70.2375 36.33125Q71.20625 36.33125 71.87813 35.83125Q72.56563 35.315624 72.97188 34.20625ZM67.19063 31.3625L72.9875 31.3625Q72.87813 30.065624 72.33125 29.409374Q71.4875 28.39375 70.14375 28.39375Q68.94063 28.39375 68.1125 29.20625Q67.28438 30.003124 67.19063 31.3625ZM76.8625 41.51875L76.8625 27.175L78.47188 27.175L78.47188 28.51875Q79.03438 27.7375 79.7375 27.346874Q80.45625 26.940624 81.47188 26.940624Q82.8 26.940624 83.81563 27.628124Q84.83125 28.315624 85.34688 29.565624Q85.87813 30.8 85.87813 32.284374Q85.87813 33.878124 85.3 35.159374Q84.7375 36.425 83.64375 37.1125Q82.55 37.784374 81.34688 37.784374Q80.47188 37.784374 79.76875 37.409374Q79.08125 37.034374 78.62813 36.471874L78.62813 41.51875L76.8625 41.51875ZM78.45625 32.425Q78.45625 34.425 79.26875 35.378124Q80.08125 36.33125 81.2375 36.33125Q82.40938 36.33125 83.2375 35.346874Q84.08125 34.3625 84.08125 32.26875Q84.08125 30.3 83.25313 29.315624Q82.44063 28.315624 81.31563 28.315624Q80.19063 28.315624 79.31563 29.378124Q78.45625 30.425 78.45625 32.425ZM94.64375 36.26875Q93.65938 37.096874 92.75313 37.440624Q91.84688 37.784374 90.81563 37.784374Q89.1125 37.784374 88.19063 36.95625Q87.26875 36.1125 87.26875 34.815624Q87.26875 34.05 87.6125 33.425Q87.97188 32.8 88.53438 32.425Q89.09688 32.034374 89.8 31.83125Q90.31563 31.70625 91.3625 31.565624Q93.4875 31.315624 94.4875 30.971874Q94.50313 30.6125 94.50313 30.503124Q94.50313 29.440624 94.00313 28.9875Q93.33125 28.39375 92.00313 28.39375Q90.75313 28.39375 90.15938 28.83125Q89.58125 29.26875 89.3 30.378124L87.58125 30.14375Q87.81563 29.034374 88.34688 28.3625Q88.87813 27.675 89.89375 27.315624Q90.90938 26.940624 92.25313 26.940624Q93.58125 26.940624 94.40938 27.253124Q95.2375 27.565624 95.62813 28.05Q96.01875 28.51875 96.175 29.2375Q96.26875 29.690624 96.26875 30.8625L96.26875 33.20625Q96.26875 35.659374 96.37813 36.315624Q96.4875 36.95625 96.83125 37.55L94.9875 37.55Q94.72188 37.003124 94.64375 36.26875ZM94.4875 32.346874Q93.53438 32.7375 91.6125 33.003124Q90.53438 33.159374 90.08125 33.3625Q89.64375 33.55 89.39375 33.925Q89.14375 34.3 89.14375 34.76875Q89.14375 35.471874 89.675 35.940624Q90.20625 36.409374 91.2375 36.409374Q92.25313 36.409374 93.03438 35.971874Q93.83125 35.51875 94.20625 34.753124Q94.4875 34.14375 94.4875 32.9875L94.4875 32.346874ZM97.925 27.175L106.34688 27.175L106.34688 28.628124L103.00313 28.628124L103.00313 37.55L101.26875 37.55L101.26875 28.628124L97.925 28.628124L97.925 27.175ZM107.78438 41.55L107.59688 39.89375Q108.175 40.05 108.59688 40.05Q109.19063 40.05 109.53438 39.846874Q109.89375 39.659374 110.1125 39.315624Q110.28438 39.05 110.65938 38.003124Q110.70625 37.846874 110.81563 37.565624L106.87813 27.175L108.76875 27.175L110.925 33.190624Q111.34688 34.33125 111.675 35.58125Q111.9875 34.378124 112.39375 33.221874L114.6125 27.175L116.37813 27.175L112.425 37.721874Q111.8 39.440624 111.44063 40.08125Q110.97188 40.95625 110.3625 41.346874Q109.76875 41.753124 108.925 41.753124Q108.40938 41.753124 107.78438 41.55ZM117.8625 41.51875L117.8625 27.175L119.47188 27.175L119.47188 28.51875Q120.03438 27.7375 120.7375 27.346874Q121.45625 26.940624 122.47188 26.940624Q123.8 26.940624 124.81563 27.628124Q125.83125 28.315624 126.34688 29.565624Q126.87813 30.8 126.87813 32.284374Q126.87813 33.878124 126.3 35.159374Q125.7375 36.425 124.64375 37.1125Q123.55 37.784374 122.34688 37.784374Q121.47188 37.784374 120.76875 37.409374Q120.08125 37.034374 119.62813 36.471874L119.62813 41.51875L117.8625 41.51875ZM119.45625 32.425Q119.45625 34.425 120.26875 35.378124Q121.08125 36.33125 122.2375 36.33125Q123.40938 36.33125 124.2375 35.346874Q125.08125 34.3625 125.08125 32.26875Q125.08125 30.3 124.25313 29.315624Q123.44063 28.315624 122.31563 28.315624Q121.19063 28.315624 120.31563 29.378124Q119.45625 30.425 119.45625 32.425ZM135.64375 36.26875Q134.65938 37.096874 133.75313 37.440624Q132.84688 37.784374 131.81563 37.784374Q130.1125 37.784374 129.19063 36.95625Q128.26875 36.1125 128.26875 34.815624Q128.26875 34.05 128.6125 33.425Q128.97188 32.8 129.53438 32.425Q130.09688 32.034374 130.8 31.83125Q131.31563 31.70625 132.3625 31.565624Q134.4875 31.315624 135.4875 30.971874Q135.50313 30.6125 135.50313 30.503124Q135.50313 29.440624 135.00313 28.9875Q134.33125 28.39375 133.00313 28.39375Q131.75313 28.39375 131.15938 28.83125Q130.58125 29.26875 130.3 30.378124L128.58125 30.14375Q128.81563 29.034374 129.34688 28.3625Q129.87813 27.675 130.89375 27.315624Q131.90938 26.940624 133.25313 26.940624Q134.58125 26.940624 135.40938 27.253124Q136.2375 27.565624 136.62813 28.05Q137.01875 28.51875 137.175 29.2375Q137.26875 29.690624 137.26875 30.8625L137.26875 33.20625Q137.26875 35.659374 137.37813 36.315624Q137.4875 36.95625 137.83125 37.55L135.9875 37.55Q135.72188 37.003124 135.64375 36.26875ZM135.4875 32.346874Q134.53438 32.7375 132.6125 33.003124Q131.53438 33.159374 131.08125 33.3625Q130.64375 33.55 130.39375 33.925Q130.14375 34.3 130.14375 34.76875Q130.14375 35.471874 130.675 35.940624Q131.20625 36.409374 132.2375 36.409374Q133.25313 36.409374 134.03438 35.971874Q134.83125 35.51875 135.20625 34.753124Q135.4875 34.14375 135.4875 32.9875L135.4875 32.346874ZM138.55 37.8L142.70625 22.9875L144.1125 22.9875L139.97188 37.8L138.55 37.8ZM146.12813 23.2375L148.01875 23.2375L148.01875 29.503124Q149.31563 29.503124 149.84688 29.003124Q150.37813 28.503124 151.19063 26.58125Q151.78438 25.175 152.175 24.596874Q152.56563 24.01875 153.26875 23.628124Q153.9875 23.221874 154.84688 23.221874Q155.94063 23.221874 156.00313 23.2375L156.00313 24.878124Q155.89375 24.878124 155.6125 24.878124Q155.3 24.8625 155.2375 24.8625Q154.33125 24.8625 153.89375 25.3Q153.44063 25.7375 152.8625 27.175Q152.14375 28.9875 151.64375 29.471874Q151.14375 29.940624 150.45625 30.221874Q151.83125 30.6125 153.19063 32.784374L156.12813 37.55L153.78438 37.55L151.39375 33.659374Q150.39375 32.05 149.72188 31.45625Q149.06563 30.846874 148.01875 30.846874L148.01875 37.55L146.12813 37.55L146.12813 23.2375ZM157.87813 25.253124L157.87813 23.2375L159.64375 23.2375L159.64375 25.253124L157.87813 25.253124ZM157.87813 37.55L157.87813 27.175L159.64375 27.175L159.64375 37.55L157.87813 37.55ZM162.72188 27.175L170.89375 27.175L170.89375 37.55L169.14375 37.55L169.14375 28.628124L164.4875 28.628124L164.4875 33.8Q164.4875 35.6125 164.3625 36.190624Q164.25313 36.753124 163.72188 37.190624Q163.19063 37.6125 162.20625 37.6125Q161.58125 37.6125 160.78438 37.534374L160.78438 36.08125L161.55 36.08125Q162.09688 36.08125 162.33125 35.971874Q162.56563 35.846874 162.64375 35.6125Q162.72188 35.3625 162.72188 34.01875L162.72188 27.175ZM172.84688 27.175L174.59688 27.175L174.59688 31.2375L176.83125 31.2375Q179.00313 31.2375 180.175 32.08125Q181.3625 32.925 181.3625 34.409374Q181.3625 35.70625 180.37813 36.628124Q179.39375 37.55 177.2375 37.55L172.84688 37.55L172.84688 27.175ZM174.59688 36.096874L176.44063 36.096874Q178.1125 36.096874 178.81563 35.690624Q179.53438 35.284374 179.53438 34.409374Q179.53438 33.7375 179.00313 33.221874Q178.4875 32.690624 176.675 32.690624L174.59688 32.690624L174.59688 36.096874ZM183.8625 27.175L185.6125 27.175L185.6125 31.659374Q186.45625 31.659374 186.78438 31.346874Q187.12813 31.01875 187.78438 29.45625Q188.3 28.2375 188.6125 27.846874Q188.94063 27.45625 189.3625 27.315624Q189.78438 27.175 190.72188 27.175L191.06563 27.175L191.06563 28.628124L190.58125 28.628124Q189.87813 28.628124 189.69063 28.83125Q189.4875 29.05 189.06563 30.1125Q188.65938 31.128124 188.33125 31.51875Q188.00313 31.909374 187.3 32.221874Q188.44063 32.534374 189.53438 34.33125L191.45625 37.55L189.51875 37.55L187.64375 34.33125Q187.06563 33.3625 186.62813 33.065624Q186.20625 32.753124 185.6125 32.753124L185.6125 37.55L183.8625 37.55L183.8625 27.175ZM192.87813 25.253124L192.87813 23.2375L194.64375 23.2375L194.64375 25.253124L192.87813 25.253124ZM192.87813 37.55L192.87813 27.175L194.64375 27.175L194.64375 37.55L192.87813 37.55ZM203.64375 33.753124L205.3625 33.971874Q205.08125 35.76875 203.90938 36.784374Q202.75313 37.784374 201.05 37.784374Q198.925 37.784374 197.62813 36.39375Q196.33125 35.003124 196.33125 32.409374Q196.33125 30.721874 196.87813 29.471874Q197.44063 28.20625 198.58125 27.58125Q199.72188 26.940624 201.06563 26.940624Q202.75313 26.940624 203.81563 27.8Q204.89375 28.659374 205.20625 30.221874L203.4875 30.4875Q203.25313 29.440624 202.62813 28.925Q202.00313 28.39375 201.12813 28.39375Q199.8 28.39375 198.97188 29.346874Q198.14375 30.3 198.14375 32.346874Q198.14375 34.440624 198.94063 35.39375Q199.7375 36.33125 201.03438 36.33125Q202.06563 36.33125 202.75313 35.70625Q203.45625 35.065624 203.64375 33.753124ZM205.925 27.175L214.34688 27.175L214.34688 28.628124L211.00313 28.628124L211.00313 37.55L209.26875 37.55L209.26875 28.628124L205.925 28.628124L205.925 27.175ZM215.84688 27.175L217.59688 27.175L217.59688 31.2375L219.83125 31.2375Q222.00313 31.2375 223.175 32.08125Q224.3625 32.925 224.3625 34.409374Q224.3625 35.70625 223.37813 36.628124Q222.39375 37.55 220.2375 37.55L215.84688 37.55L215.84688 27.175ZM217.59688 36.096874L219.44063 36.096874Q221.1125 36.096874 221.81563 35.690624Q222.53438 35.284374 222.53438 34.409374Q222.53438 33.7375 222.00313 33.221874Q221.4875 32.690624 219.675 32.690624L217.59688 32.690624L217.59688 36.096874ZM232.87813 27.175L241.06563 27.175L241.06563 37.55L239.3 37.55L239.3 28.628124L234.64375 28.628124L234.64375 37.55L232.87813 37.55L232.87813 27.175ZM249.64375 36.26875Q248.65938 37.096874 247.75313 37.440624Q246.84688 37.784374 245.81563 37.784374Q244.1125 37.784374 243.19063 36.95625Q242.26875 36.1125 242.26875 34.815624Q242.26875 34.05 242.6125 33.425Q242.97188 32.8 243.53438 32.425Q244.09688 32.034374 244.8 31.83125Q245.31563 31.70625 246.3625 31.565624Q248.4875 31.315624 249.4875 30.971874Q249.50313 30.6125 249.50313 30.503124Q249.50313 29.440624 249.00313 28.9875Q248.33125 28.39375 247.00313 28.39375Q245.75313 28.39375 245.15938 28.83125Q244.58125 29.26875 244.3 30.378124L242.58125 30.14375Q242.81563 29.034374 243.34688 28.3625Q243.87813 27.675 244.89375 27.315624Q245.90938 26.940624 247.25313 26.940624Q248.58125 26.940624 249.40938 27.253124Q250.2375 27.565624 250.62813 28.05Q251.01875 28.51875 251.175 29.2375Q251.26875 29.690624 251.26875 30.8625L251.26875 33.20625Q251.26875 35.659374 251.37813 36.315624Q251.4875 36.95625 251.83125 37.55L249.9875 37.55Q249.72188 37.003124 249.64375 36.26875ZM249.4875 32.346874Q248.53438 32.7375 246.6125 33.003124Q245.53438 33.159374 245.08125 33.3625Q244.64375 33.55 244.39375 33.925Q244.14375 34.3 244.14375 34.76875Q244.14375 35.471874 244.675 35.940624Q245.20625 36.409374 246.2375 36.409374Q247.25313 36.409374 248.03438 35.971874Q248.83125 35.51875 249.20625 34.753124Q249.4875 34.14375 249.4875 32.9875L249.4875 32.346874ZM253.8625 41.51875L253.8625 27.175L255.47188 27.175L255.47188 28.51875Q256.03436 27.7375 256.7375 27.346874Q257.45624 26.940624 258.47186 26.940624Q259.8 26.940624 260.8156 27.628124Q261.83124 28.315624 262.34686 29.565624Q262.8781 30.8 262.8781 32.284374Q262.8781 33.878124 262.3 35.159374Q261.7375 36.425 260.64374 37.1125Q259.55 37.784374 258.34686 37.784374Q257.47186 37.784374 256.76874 37.409374Q256.08124 37.034374 255.62813 36.471874L255.62813 41.51875L253.8625 41.51875ZM255.45625 32.425Q255.45625 34.425 256.26874 35.378124Q257.08124 36.33125 258.2375 36.33125Q259.40936 36.33125 260.2375 35.346874Q261.08124 34.3625 261.08124 32.26875Q261.08124 30.3 260.2531 29.315624Q259.4406 28.315624 258.3156 28.315624Q257.1906 28.315624 256.3156 29.378124Q255.45625 30.425 255.45625 32.425ZM264.8781 27.175L266.64374 27.175L266.64374 31.4875L271.5031 31.4875L271.5031 27.175L273.26874 27.175L273.26874 37.55L271.5031 37.55L271.5031 32.95625L266.64374 32.95625L266.64374 37.55L264.8781 37.55L264.8781 27.175ZM274.8625 27.175L276.6281 27.175L276.6281 35.08125L281.5031 27.175L283.39374 27.175L283.39374 37.55L281.64374 37.55L281.64374 29.690624L276.76874 37.55L274.8625 37.55L274.8625 27.175ZM284.8625 27.175L286.6125 27.175L286.6125 31.659374Q287.45624 31.659374 287.78436 31.346874Q288.1281 31.01875 288.78436 29.45625Q289.3 28.2375 289.6125 27.846874Q289.9406 27.45625 290.3625 27.315624Q290.78436 27.175 291.72186 27.175L292.0656 27.175L292.0656 28.628124L291.58124 28.628124Q290.8781 28.628124 290.6906 28.83125Q290.4875 29.05 290.0656 30.1125Q289.65936 31.128124 289.33124 31.51875Q289.0031 31.909374 288.3 32.221874Q289.4406 32.534374 290.53436 34.33125L292.45624 37.55L290.51874 37.55L288.64374 34.33125Q288.0656 33.3625 287.6281 33.065624Q287.20624 32.753124 286.6125 32.753124L286.6125 37.55L284.8625 37.55L284.8625 27.175ZM293.22186 32.3625Q293.22186 29.4875 294.8156 28.096874Q296.15936 26.940624 298.08124 26.940624Q300.22186 26.940624 301.5656 28.346874Q302.925 29.753124 302.925 32.221874Q302.925 34.221874 302.33124 35.378124Q301.7375 36.51875 300.58124 37.159374Q299.4406 37.784374 298.08124 37.784374Q295.89374 37.784374 294.55 36.39375Q293.22186 34.9875 293.22186 32.3625ZM295.01874 32.3625Q295.01874 34.3625 295.8781 35.346874Q296.7531 36.33125 298.08124 36.33125Q299.39374 36.33125 300.2531 35.346874Q301.1281 34.346874 301.1281 32.3Q301.1281 30.378124 300.2531 29.39375Q299.3781 28.39375 298.08124 28.39375Q296.7531 28.39375 295.8781 29.39375Q295.01874 30.378124 295.01874 32.3625ZM304.8781 27.175L308.925 27.175Q310.425 27.175 311.14374 27.425Q311.8781 27.675 312.39374 28.346874Q312.925 29.003124 312.925 29.925Q312.925 30.675 312.6125 31.2375Q312.3156 31.784374 311.6906 32.14375Q312.425 32.39375 312.90936 33.065624Q313.39374 33.7375 313.39374 34.64375Q313.3 36.128124 312.33124 36.846874Q311.3781 37.55 309.55 37.55L304.8781 37.55L304.8781 27.175ZM306.64374 31.55L308.51874 31.55Q309.6281 31.55 310.05 31.440624Q310.47186 31.315624 310.8 30.95625Q311.14374 30.596874 311.14374 30.096874Q311.14374 29.284374 310.55 28.95625Q309.97186 28.628124 308.5656 28.628124L306.64374 28.628124L306.64374 31.55ZM306.64374 36.096874L308.95624 36.096874Q310.4406 36.096874 311.0031 35.753124Q311.5656 35.409374 311.58124 34.565624Q311.58124 34.065624 311.2531 33.64375Q310.9406 33.20625 310.425 33.096874Q309.90936 32.9875 308.76874 32.9875L306.64374 32.9875L306.64374 36.096874ZM315.8625 27.175L317.6281 27.175L317.6281 35.08125L322.5031 27.175L324.39374 27.175L324.39374 37.55L322.64374 37.55L322.64374 29.690624L317.76874 37.55L315.8625 37.55L315.8625 27.175ZM324.6906 37.55L328.4875 32.159374L324.9875 27.175L327.175 27.175L328.76874 29.6125Q329.22186 30.3 329.4875 30.76875Q329.925 30.128124 330.28436 29.628124L332.03436 27.175L334.1281 27.175L330.55 32.065624L334.40936 37.55L332.2531 37.55L330.1125 34.33125L329.55 33.45625L326.83124 37.55L324.6906 37.55ZM340.8781 27.175L346.84686 27.175L346.84686 28.628124L342.64374 28.628124L342.64374 37.55L340.8781 37.55L340.8781 27.175ZM354.64374 36.26875Q353.65936 37.096874 352.7531 37.440624Q351.84686 37.784374 350.8156 37.784374Q349.1125 37.784374 348.1906 36.95625Q347.26874 36.1125 347.26874 34.815624Q347.26874 34.05 347.6125 33.425Q347.97186 32.8 348.53436 32.425Q349.09686 32.034374 349.8 31.83125Q350.3156 31.70625 351.3625 31.565624Q353.4875 31.315624 354.4875 30.971874Q354.5031 30.6125 354.5031 30.503124Q354.5031 29.440624 354.0031 28.9875Q353.33124 28.39375 352.0031 28.39375Q350.7531 28.39375 350.15936 28.83125Q349.58124 29.26875 349.3 30.378124L347.58124 30.14375Q347.8156 29.034374 348.34686 28.3625Q348.8781 27.675 349.89374 27.315624Q350.90936 26.940624 352.2531 26.940624Q353.58124 26.940624 354.40936 27.253124Q355.2375 27.565624 355.6281 28.05Q356.01874 28.51875 356.175 29.2375Q356.26874 29.690624 356.26874 30.8625L356.26874 33.20625Q356.26874 35.659374 356.3781 36.315624Q356.4875 36.95625 356.83124 37.55L354.9875 37.55Q354.72186 37.003124 354.64374 36.26875ZM354.4875 32.346874Q353.53436 32.7375 351.6125 33.003124Q350.53436 33.159374 350.08124 33.3625Q349.64374 33.55 349.39374 33.925Q349.14374 34.3 349.14374 34.76875Q349.14374 35.471874 349.675 35.940624Q350.20624 36.409374 351.2375 36.409374Q352.2531 36.409374 353.03436 35.971874Q353.83124 35.51875 354.20624 34.753124Q354.4875 34.14375 354.4875 32.9875L354.4875 32.346874ZM361.15936 32.8625L361.15936 31.4875Q362.28436 31.471874 362.675 31.39375Q363.08124 31.315624 363.4406 30.925Q363.8156 30.534374 363.8156 29.95625Q363.8156 29.2375 363.33124 28.815624Q362.8625 28.39375 362.1125 28.39375Q360.6281 28.39375 360.03436 30.14375L358.3625 29.8625Q359.14374 26.940624 362.1281 26.940624Q363.78436 26.940624 364.72186 27.846874Q365.675 28.753124 365.675 30.01875Q365.675 31.284374 364.4406 32.034374Q365.22186 32.45625 365.6125 33.1125Q366.0031 33.753124 366.0031 34.64375Q366.0031 36.05 364.9875 36.925Q363.97186 37.784374 362.14374 37.784374Q358.6125 37.784374 358.03436 34.628124L359.6906 34.284374Q359.90936 35.26875 360.59686 35.815624Q361.28436 36.3625 362.175 36.3625Q363.0656 36.3625 363.65936 35.8625Q364.2531 35.3625 364.2531 34.58125Q364.2531 33.971874 363.8781 33.534374Q363.5031 33.08125 363.08124 32.971874Q362.675 32.846874 361.5656 32.846874Q361.47186 32.846874 361.15936 32.8625ZM367.8781 25.253124L367.8781 23.2375L369.64374 23.2375L369.64374 25.253124L367.8781 25.253124ZM367.8781 37.55L367.8781 27.175L369.64374 27.175L369.64374 37.55L367.8781 37.55ZM371.8781 27.175L375.925 27.175Q377.425 27.175 378.14374 27.425Q378.8781 27.675 379.39374 28.346874Q379.925 29.003124 379.925 29.925Q379.925 30.675 379.6125 31.2375Q379.3156 31.784374 378.6906 32.14375Q379.425 32.39375 379.90936 33.065624Q380.39374 33.7375 380.39374 34.64375Q380.3 36.128124 379.33124 36.846874Q378.3781 37.55 376.55 37.55L371.8781 37.55L371.8781 27.175ZM373.64374 31.55L375.51874 31.55Q376.6281 31.55 377.05 31.440624Q377.47186 31.315624 377.8 30.95625Q378.14374 30.596874 378.14374 30.096874Q378.14374 29.284374 377.55 28.95625Q376.97186 28.628124 375.5656 28.628124L373.64374 28.628124L373.64374 31.55ZM373.64374 36.096874L375.95624 36.096874Q377.4406 36.096874 378.0031 35.753124Q378.5656 35.409374 378.58124 34.565624Q378.58124 34.065624 378.2531 33.64375Q377.9406 33.20625 377.425 33.096874Q376.90936 32.9875 375.76874 32.9875L373.64374 32.9875L373.64374 36.096874Z" fill-rule="nonzero"/></svg>