<svg version="1.1" viewBox="0.0 0.0 600.0 371.0" fill="none" stroke="none" stroke-linecap="square" stroke-miterlimit="10" width="600" height="371" xmlns:xlink="http://www.w3.org/1999/xlink" xmlns="http://www.w3.org/2000/svg"><path fill="#ffffff" d="M0 0L600.0 0L600.0 371.0L0 371.0L0 0Z" fill-rule="nonzero"/><path stroke="#333333" stroke-width="1.0" stroke-linecap="butt" d="M77.5 61.5L77.5 300.5" fill-rule="nonzero"/><path stroke="#cccccc" stroke-width="1.0" stroke-linecap="butt" d="M178.5 61.5L178.5 300.5" fill-rule="nonzero"/><path stroke="#cccccc" stroke-width="1.0" stroke-linecap="butt" d="M279.5 61.5L279.5 300.5" fill-rule="nonzero"/><path stroke="#cccccc" stroke-width="1.0" stroke-linecap="butt" d="M379.5 61.5L379.5 300.5" fill-rule="nonzero"/><path stroke="#cccccc" stroke-width="1.0" stroke-linecap="butt" d="M480.5 61.5L480.5 300.5" fill-rule="nonzero"/><path stroke="#cccccc" stroke-width="1.0" stroke-linecap="butt" d="M581.5 61.5L581.5 300.5" fill-rule="nonzero"/><path stroke="#333333" stroke-width="1.0" stroke-linecap="butt" d="M77.5 300.5L581.5 300.5" fill-rule="nonzero"/><path stroke="#cccccc" stroke-width="1.0" stroke-linecap="butt" d="M77.5 252.5L581.5 252.5" fill-rule="nonzero"/><path stroke="#cccccc" stroke-width="1.0" stroke-linecap="butt" d="M77.5 205.5L581.5 205.5" fill-rule="nonzero"/><path stroke="#cccccc" stroke-width="1.0" stroke-linecap="butt" d="M77.5 157.5L581.5 157.5" fill-rule="nonzero"/><path stroke="#cccccc" stroke-width="1.0" stroke-linecap="butt" d="M77.5 109.5L581.5 109.5" fill-rule="nonzero"/><path stroke="#cccccc" stroke-width="1.0" stroke-linecap="butt" d="M77.5 61.5L581.5 61.5" fill-rule="nonzero"/><clipPath id="id_0"><path d="M77.55 61.916668L581.45 61.916668L581.45 300.45L77.55 300.45L77.55 61.916668Z" clip-rule="nonzero"/></clipPath><path stroke="#4285f4" stroke-width="2.0" stroke-linecap="butt" clip-path="url(#id_0)" d="M77.55 63.824932L178.33 101.03613L279.11 122.02707L379.89 146.83453L480.67 155.42174L581.45 169.73373" fill-rule="nonzero"/><path fill="#000000" fill-opacity="0.0" clip-path="url(#id_0)" d="M80.55 63.824932C80.55 65.48179 79.206856 66.824936 77.55 66.824936C75.89314 66.824936 74.55 65.48179 74.55 63.824932C74.55 62.16808 75.89314 60.824932 77.55 60.824932C79.206856 60.824932 80.55 62.16808 80.55 63.824932Z" fill-rule="nonzero"/><path fill="#000000" fill-opacity="0.0" clip-path="url(#id_0)" d="M181.33 101.03613C181.33 102.692986 179.98685 104.03613 178.33 104.03613C176.67314 104.03613 175.33 102.692986 175.33 101.03613C175.33 99.37928 176.67314 98.03613 178.33 98.03613C179.98685 98.03613 181.33 99.37928 181.33 101.03613Z" fill-rule="nonzero"/><path fill="#000000" fill-opacity="0.0" clip-path="url(#id_0)" d="M282.11 122.02707C282.11 123.68392 280.76685 125.02707 279.11 125.02707C277.45316 125.02707 276.11 123.68392 276.11 122.02707C276.11 120.37021 277.45316 119.02707 279.11 119.02707C280.76685 119.02707 282.11 120.37021 282.11 122.02707Z" fill-rule="nonzero"/><path fill="#000000" fill-opacity="0.0" clip-path="url(#id_0)" d="M382.89 146.83453C382.89 148.4914 381.54684 149.83453 379.89 149.83453C378.23315 149.83453 376.89 148.4914 376.89 146.83453C376.89 145.17767 378.23315 143.83453 379.89 143.83453C381.54684 143.83453 382.89 145.17767 382.89 146.83453Z" fill-rule="nonzero"/><path fill="#000000" fill-opacity="0.0" clip-path="url(#id_0)" d="M483.67 155.42174C483.67 157.07858 482.32684 158.42174 480.67 158.42174C479.01315 158.42174 477.67 157.07858 477.67 155.42174C477.67 153.76488 479.01315 152.42174 480.67 152.42174C482.32684 152.42174 483.67 153.76488 483.67 155.42174Z" fill-rule="nonzero"/><path fill="#000000" fill-opacity="0.0" clip-path="url(#id_0)" d="M584.45 169.73373C584.45 171.3906 583.1069 172.73373 581.45 172.73373C579.79315 172.73373 578.45 171.3906 578.45 169.73373C578.45 168.07687 579.79315 166.73373 581.45 166.73373C583.1069 166.73373 584.45 168.07687 584.45 169.73373Z" fill-rule="nonzero"/><path fill="#000000" d="M289.4375 340.85626L290.57812 340.85626L290.57812 344.6219Q291.35938 344.6219 291.67188 344.325Q292.0 344.0125 292.48438 342.8719Q292.84375 342.02814 293.07812 341.6844Q293.3125 341.325 293.73438 341.09064Q294.15625 340.85626 294.67188 340.85626Q295.32812 340.85626 295.375 340.8719L295.375 341.85626Q295.3125 341.85626 295.14062 341.84064Q294.95312 341.84064 294.90625 341.84064Q294.35938 341.84064 294.10938 342.10626Q293.82812 342.3719 293.48438 343.23126Q293.04688 344.3094 292.75 344.60626Q292.45312 344.8875 292.04688 345.0594Q292.875 345.27814 293.6875 346.59064L295.45312 349.45L294.03125 349.45L292.60938 347.1219Q292.01562 346.15314 291.60938 345.79376Q291.21875 345.4344 290.57812 345.4344L290.57812 349.45L289.4375 349.45L289.4375 340.85626ZM296.29688 342.075L296.29688 340.85626L297.35938 340.85626L297.35938 342.075L296.29688 342.075ZM296.29688 349.45L296.29688 343.23126L297.35938 343.23126L297.35938 349.45L296.29688 349.45ZM299.8125 343.23126L304.70312 343.23126L304.70312 349.45L303.65625 349.45L303.65625 344.10626L300.85938 344.10626L300.85938 347.2Q300.85938 348.27814 300.78125 348.6375Q300.71875 348.98126 300.40625 349.2469Q300.09375 349.4969 299.48438 349.4969Q299.125 349.4969 298.64062 349.45L298.64062 348.5594L299.10938 348.5594Q299.4375 348.5594 299.57812 348.4969Q299.71875 348.4344 299.76562 348.29376Q299.8125 348.1375 299.8125 347.325L299.8125 343.23126ZM306.28125 343.23126L307.32812 343.23126L307.32812 345.65314L308.67188 345.65314Q309.96875 345.65314 310.67188 346.16876Q311.39062 346.66876 311.39062 347.5594Q311.39062 348.34064 310.79688 348.90314Q310.20312 349.45 308.90625 349.45L306.28125 349.45L306.28125 343.23126ZM307.32812 348.575L308.4375 348.575Q309.4375 348.575 309.85938 348.34064Q310.29688 348.09064 310.29688 347.575Q310.29688 347.16876 309.96875 346.85626Q309.65625 346.52814 308.57812 346.52814L307.32812 346.52814L307.32812 348.575ZM313.28125 343.23126L314.34375 343.23126L314.34375 345.91876Q314.84375 345.91876 315.04688 345.73126Q315.25 345.52814 315.64062 344.59064Q315.95312 343.85626 316.14062 343.6219Q316.34375 343.3875 316.59375 343.3094Q316.84375 343.23126 317.40625 343.23126L317.60938 343.23126L317.60938 344.10626L317.3125 344.09064Q316.90625 344.09064 316.78125 344.21564Q316.65625 344.34064 316.40625 344.98126Q316.17188 345.59064 315.96875 345.825Q315.76562 346.0594 315.35938 346.2625Q316.03125 346.4344 316.6875 347.52814L317.84375 349.45L316.6875 349.45L315.5625 347.52814Q315.21875 346.9344 314.95312 346.7625Q314.70312 346.575 314.34375 346.575L314.34375 349.45L313.28125 349.45L313.28125 343.23126ZM319.29688 342.075L319.29688 340.85626L320.35938 340.85626L320.35938 342.075L319.29688 342.075ZM319.29688 349.45L319.29688 343.23126L320.35938 343.23126L320.35938 349.45L319.29688 349.45ZM326.35938 347.16876L327.39062 347.3094Q327.21875 348.3719 326.51562 348.98126Q325.8125 349.59064 324.79688 349.59064Q323.51562 349.59064 322.73438 348.7625Q321.96875 347.91876 321.96875 346.35626Q321.96875 345.35626 322.29688 344.60626Q322.64062 343.84064 323.3125 343.46564Q324.0 343.09064 324.8125 343.09064Q325.8125 343.09064 326.45312 343.60626Q327.10938 344.10626 327.29688 345.0594L326.26562 345.21564Q326.125 344.59064 325.75 344.27814Q325.375 343.95 324.84375 343.95Q324.04688 343.95 323.54688 344.52814Q323.04688 345.09064 323.04688 346.325Q323.04688 347.59064 323.53125 348.15314Q324.01562 348.71564 324.78125 348.71564Q325.40625 348.71564 325.8125 348.34064Q326.23438 347.96564 326.35938 347.16876ZM327.71875 343.23126L332.78125 343.23126L332.78125 344.10626L330.78125 344.10626L330.78125 349.45L329.73438 349.45L329.73438 344.10626L327.71875 344.10626L327.71875 343.23126ZM333.28125 343.23126L334.32812 343.23126L334.32812 345.65314L335.67188 345.65314Q336.96875 345.65314 337.67188 346.16876Q338.39062 346.66876 338.39062 347.5594Q338.39062 348.34064 337.79688 348.90314Q337.20312 349.45 335.90625 349.45L333.28125 349.45L333.28125 343.23126ZM334.32812 348.575L335.4375 348.575Q336.4375 348.575 336.85938 348.34064Q337.29688 348.09064 337.29688 347.575Q337.29688 347.16876 336.96875 346.85626Q336.65625 346.52814 335.57812 346.52814L334.32812 346.52814L334.32812 348.575ZM342.59375 349.45L344.85938 346.21564L342.76562 343.23126L344.07812 343.23126L345.03125 344.6844Q345.29688 345.10626 345.46875 345.3875Q345.71875 344.9969 345.9375 344.7L346.98438 343.23126L348.25 343.23126L346.09375 346.15314L348.40625 349.45L347.125 349.45L345.84375 347.5125L345.5 346.9969L343.85938 349.45L342.59375 349.45ZM348.32812 343.23126L349.96875 343.23126L351.59375 348.2L353.40625 343.23126L354.9375 343.23126L354.9375 349.45L353.875 349.45L353.875 344.4344L352.03125 349.45L351.09375 349.45L349.35938 344.2L349.35938 349.45L348.32812 349.45L348.32812 343.23126ZM361.35938 348.6844Q360.76562 349.1844 360.21875 349.3875Q359.6875 349.59064 359.0625 349.59064Q358.03125 349.59064 357.48438 349.09064Q356.9375 348.59064 356.9375 347.8094Q356.9375 347.35626 357.14062 346.98126Q357.34375 346.59064 357.6875 346.3719Q358.03125 346.1375 358.45312 346.02814Q358.75 345.9344 359.39062 345.85626Q360.65625 345.71564 361.26562 345.4969Q361.26562 345.27814 361.26562 345.23126Q361.26562 344.575 360.96875 344.3094Q360.5625 343.96564 359.76562 343.96564Q359.03125 343.96564 358.67188 344.23126Q358.3125 344.48126 358.14062 345.1375L357.10938 344.9969Q357.25 344.34064 357.57812 343.9344Q357.90625 343.52814 358.51562 343.3094Q359.125 343.09064 359.92188 343.09064Q360.71875 343.09064 361.21875 343.27814Q361.71875 343.46564 361.95312 343.7469Q362.1875 344.02814 362.28125 344.46564Q362.32812 344.73126 362.32812 345.4344L362.32812 346.84064Q362.32812 348.3094 362.39062 348.7Q362.46875 349.09064 362.67188 349.45L361.5625 349.45Q361.40625 349.1219 361.35938 348.6844ZM361.26562 346.325Q360.6875 346.5594 359.54688 346.73126Q358.89062 346.825 358.625 346.95Q358.35938 347.0594 358.20312 347.27814Q358.0625 347.4969 358.0625 347.77814Q358.0625 348.2 358.375 348.48126Q358.70312 348.7625 359.3125 348.7625Q359.92188 348.7625 360.39062 348.4969Q360.875 348.23126 361.09375 347.7625Q361.26562 347.40314 361.26562 346.71564L361.26562 346.325ZM364.29688 351.84064L364.29688 343.23126L365.25 343.23126L365.25 344.02814Q365.59375 343.5594 366.01562 343.325Q366.45312 343.09064 367.0625 343.09064Q367.85938 343.09064 368.46875 343.4969Q369.07812 343.90314 369.375 344.65314Q369.6875 345.40314 369.6875 346.29376Q369.6875 347.2469 369.34375 348.0125Q369.01562 348.77814 368.35938 349.1844Q367.70312 349.59064 366.98438 349.59064Q366.45312 349.59064 366.03125 349.3719Q365.60938 349.1375 365.34375 348.8094L365.34375 351.84064L364.29688 351.84064ZM365.25 346.3719Q365.25 347.575 365.73438 348.15314Q366.21875 348.71564 366.90625 348.71564Q367.60938 348.71564 368.10938 348.1219Q368.60938 347.52814 368.60938 346.27814Q368.60938 345.09064 368.125 344.5125Q367.64062 343.91876 366.95312 343.91876Q366.28125 343.91876 365.76562 344.54376Q365.25 345.16876 365.25 346.3719Z" fill-rule="nonzero"/><path fill="#000000" d="M29.550013 222.07396L21.971888 222.07396L21.971888 224.90208L20.956263 224.90208L20.956263 218.08958L21.971888 218.08958L21.971888 220.93333L29.550013 220.93333L29.550013 222.07396ZM27.550013 213.13646L27.675013 212.04271Q28.628138 212.29271 29.159388 212.99583Q29.690638 213.69896 29.690638 214.77708Q29.690638 216.13646 28.846888 216.94896Q28.003138 217.74583 26.487513 217.74583Q24.925013 217.74583 24.065638 216.93333Q23.190638 216.12083 23.190638 214.83958Q23.190638 213.58958 24.034388 212.80833Q24.878138 212.01146 26.425013 212.01146Q26.518763 212.01146 26.706263 212.01146L26.706263 216.65208Q27.737513 216.58958 28.284388 216.07396Q28.815638 215.55833 28.815638 214.77708Q28.815638 214.19896 28.518763 213.79271Q28.206263 213.37083 27.550013 213.13646ZM25.846888 216.58958L25.846888 213.12083Q25.050013 213.18333 24.659388 213.51146Q24.050013 214.02708 24.050013 214.82396Q24.050013 215.55833 24.534388 216.05833Q25.018763 216.54271 25.846888 216.58958ZM23.331263 210.35521L23.331263 208.71458L28.300013 207.08958L23.331263 205.27708L23.331263 203.74583L29.550013 203.74583L29.550013 204.80833L24.534388 204.80833L29.550013 206.65208L29.550013 207.58958L24.300013 209.32396L29.550013 209.32396L29.550013 210.35521L23.331263 210.35521ZM23.331263 201.38646L23.331263 196.48021L29.550013 196.48021L29.550013 197.52708L24.206263 197.52708L24.206263 200.32396L29.550013 200.32396L29.550013 201.38646L23.331263 201.38646ZM27.550013 190.13646L27.675013 189.04271Q28.628138 189.29271 29.159388 189.99583Q29.690638 190.69896 29.690638 191.77708Q29.690638 193.13646 28.846888 193.94896Q28.003138 194.74583 26.487513 194.74583Q24.925013 194.74583 24.065638 193.93333Q23.190638 193.12083 23.190638 191.83958Q23.190638 190.58958 24.034388 189.80833Q24.878138 189.01146 26.425013 189.01146Q26.518763 189.01146 26.706263 189.01146L26.706263 193.65208Q27.737513 193.58958 28.284388 193.07396Q28.815638 192.55833 28.815638 191.77708Q28.815638 191.19896 28.518763 190.79271Q28.206263 190.37083 27.550013 190.13646ZM25.846888 193.58958L25.846888 190.12083Q25.050013 190.18333 24.659388 190.51146Q24.050013 191.02708 24.050013 191.82396Q24.050013 192.55833 24.534388 193.05833Q25.018763 193.54271 25.846888 193.58958ZM31.940638 187.38646L23.331263 187.38646L23.331263 186.43333L24.128138 186.43333Q23.659388 186.08958 23.425013 185.66771Q23.190638 185.23021 23.190638 184.62083Q23.190638 183.82396 23.596888 183.21458Q24.003138 182.60521 24.753138 182.30833Q25.503138 181.99583 26.393763 181.99583Q27.346888 181.99583 28.112513 182.33958Q28.878138 182.66771 29.284388 183.32396Q29.690638 183.98021 29.690638 184.69896Q29.690638 185.23021 29.471888 185.65208Q29.237513 186.07396 28.909388 186.33958L31.940638 186.33958L31.940638 187.38646ZM26.471888 186.43333Q27.675013 186.43333 28.253138 185.94896Q28.815638 185.46458 28.815638 184.77708Q28.815638 184.07396 28.221888 183.57396Q27.628138 183.07396 26.378138 183.07396Q25.190638 183.07396 24.612513 183.55833Q24.018763 184.04271 24.018763 184.73021Q24.018763 185.40208 24.643763 185.91771Q25.268763 186.43333 26.471888 186.43333ZM28.784388 176.32396Q29.284388 176.91771 29.487513 177.46458Q29.690638 177.99583 29.690638 178.62083Q29.690638 179.65208 29.190638 180.19896Q28.690638 180.74583 27.909388 180.74583Q27.456263 180.74583 27.081263 180.54271Q26.690638 180.33958 26.471888 179.99583Q26.237513 179.65208 26.128138 179.23021Q26.034388 178.93333 25.956263 178.29271Q25.815638 177.02708 25.596888 176.41771Q25.378138 176.41771 25.331263 176.41771Q24.675013 176.41771 24.409388 176.71458Q24.065638 177.12083 24.065638 177.91771Q24.065638 178.65208 24.331263 179.01146Q24.581263 179.37083 25.237513 179.54271L25.096888 180.57396Q24.440638 180.43333 24.034388 180.10521Q23.628138 179.77708 23.409388 179.16771Q23.190638 178.55833 23.190638 177.76146Q23.190638 176.96458 23.378138 176.46458Q23.565638 175.96458 23.846888 175.73021Q24.128138 175.49583 24.565638 175.40208Q24.831263 175.35521 25.534388 175.35521L26.940638 175.35521Q28.409388 175.35521 28.800013 175.29271Q29.190638 175.21458 29.550013 175.01146L29.550013 176.12083Q29.221888 176.27708 28.784388 176.32396ZM26.425013 176.41771Q26.659388 176.99583 26.831263 178.13646Q26.925013 178.79271 27.050013 179.05833Q27.159388 179.32396 27.378138 179.48021Q27.596888 179.62083 27.878138 179.62083Q28.300013 179.62083 28.581263 179.30833Q28.862513 178.98021 28.862513 178.37083Q28.862513 177.76146 28.596888 177.29271Q28.331263 176.80833 27.862513 176.58958Q27.503138 176.41771 26.815638 176.41771L26.425013 176.41771ZM23.331263 173.96458L23.331263 168.90208L24.206263 168.90208L24.206263 170.90208L29.550013 170.90208L29.550013 171.94896L24.206263 171.94896L24.206263 173.96458L23.331263 173.96458ZM31.940638 168.43333L30.956263 168.55833Q31.050013 168.21458 31.050013 167.94896Q31.050013 167.60521 30.925013 167.40208Q30.815638 167.18333 30.612513 167.04271Q30.440638 166.94896 29.815638 166.71458Q29.737513 166.69896 29.565638 166.62083L23.331263 168.99583L23.331263 167.85521L26.925013 166.55833Q27.612513 166.30833 28.378138 166.10521Q27.643763 165.91771 26.956263 165.66771L23.331263 164.33958L23.331263 163.29271L29.659388 165.65208Q30.675013 166.04271 31.065638 166.24583Q31.596888 166.52708 31.831263 166.90208Q32.08126 167.26146 32.08126 167.76146Q32.08126 168.05833 31.940638 168.43333ZM31.940638 163.38646L23.331263 163.38646L23.331263 162.43333L24.128138 162.43333Q23.659388 162.08958 23.425013 161.66771Q23.190638 161.23021 23.190638 160.62083Q23.190638 159.82396 23.596888 159.21458Q24.003138 158.60521 24.753138 158.30833Q25.503138 157.99583 26.393763 157.99583Q27.346888 157.99583 28.112513 158.33958Q28.878138 158.66771 29.284388 159.32396Q29.690638 159.98021 29.690638 160.69896Q29.690638 161.23021 29.471888 161.65208Q29.237513 162.07396 28.909388 162.33958L31.940638 162.33958L31.940638 163.38646ZM26.471888 162.43333Q27.675013 162.43333 28.253138 161.94896Q28.815638 161.46458 28.815638 160.77708Q28.815638 160.07396 28.221888 159.57396Q27.628138 159.07396 26.378138 159.07396Q25.190638 159.07396 24.612513 159.55833Q24.018763 160.04271 24.018763 160.73021Q24.018763 161.40208 24.643763 161.91771Q25.268763 162.43333 26.471888 162.43333ZM28.784388 152.32396Q29.284388 152.91771 29.487513 153.46458Q29.690638 153.99583 29.690638 154.62083Q29.690638 155.65208 29.190638 156.19896Q28.690638 156.74583 27.909388 156.74583Q27.456263 156.74583 27.081263 156.54271Q26.690638 156.33958 26.471888 155.99583Q26.237513 155.65208 26.128138 155.23021Q26.034388 154.93333 25.956263 154.29271Q25.815638 153.02708 25.596888 152.41771Q25.378138 152.41771 25.331263 152.41771Q24.675013 152.41771 24.409388 152.71458Q24.065638 153.12083 24.065638 153.91771Q24.065638 154.65208 24.331263 155.01146Q24.581263 155.37083 25.237513 155.54271L25.096888 156.57396Q24.440638 156.43333 24.034388 156.10521Q23.628138 155.77708 23.409388 155.16771Q23.190638 154.55833 23.190638 153.76146Q23.190638 152.96458 23.378138 152.46458Q23.565638 151.96458 23.846888 151.73021Q24.128138 151.49583 24.565638 151.40208Q24.831263 151.35521 25.534388 151.35521L26.940638 151.35521Q28.409388 151.35521 28.800013 151.29271Q29.190638 151.21458 29.550013 151.01146L29.550013 152.12083Q29.221888 152.27708 28.784388 152.32396ZM26.425013 152.41771Q26.659388 152.99583 26.831263 154.13646Q26.925013 154.79271 27.050013 155.05833Q27.159388 155.32396 27.378138 155.48021Q27.596888 155.62083 27.878138 155.62083Q28.300013 155.62083 28.581263 155.30833Q28.862513 154.98021 28.862513 154.37083Q28.862513 153.76146 28.596888 153.29271Q28.331263 152.80833 27.862513 152.58958Q27.503138 152.41771 26.815638 152.41771L26.425013 152.41771Z" fill-rule="nonzero"/><path fill="#000000" d="M65.05 300.21564Q65.05 298.6844 65.3625 297.7625Q65.675 296.825 66.28438 296.325Q66.90938 295.825 67.84688 295.825Q68.53438 295.825 69.05 296.10626Q69.58125 296.3875 69.925 296.91876Q70.26875 297.4344 70.45625 298.1844Q70.64375 298.9344 70.64375 300.21564Q70.64375 301.73126 70.33125 302.65314Q70.03438 303.575 69.40938 304.09064Q68.8 304.59064 67.84688 304.59064Q66.6125 304.59064 65.89375 303.7Q65.05 302.6375 65.05 300.21564ZM66.12813 300.21564Q66.12813 302.325 66.62813 303.02814Q67.12813 303.73126 67.84688 303.73126Q68.58125 303.73126 69.06563 303.02814Q69.56563 302.325 69.56563 300.21564Q69.56563 298.09064 69.06563 297.40314Q68.58125 296.7 67.83125 296.7Q67.1125 296.7 66.675 297.3094Q66.12813 298.09064 66.12813 300.21564Z" fill-rule="nonzero"/><path fill="#000000" d="M65.05 254.49335L66.15938 254.3996Q66.28438 255.2121 66.72188 255.61835Q67.175 256.0246 67.81563 256.0246Q68.56563 256.0246 69.09688 255.44647Q69.62813 254.86835 69.62813 253.93085Q69.62813 253.0246 69.1125 252.50897Q68.6125 251.97772 67.78438 251.97772Q67.28438 251.97772 66.8625 252.2121Q66.45625 252.44647 66.22188 252.80585L65.2375 252.68085L66.06563 248.2746L70.34688 248.2746L70.34688 249.2746L66.90938 249.2746L66.45625 251.5871Q67.22188 251.04022 68.06563 251.04022Q69.19063 251.04022 69.95625 251.82147Q70.7375 252.60272 70.7375 253.8371Q70.7375 254.99335 70.06563 255.85272Q69.2375 256.88397 67.81563 256.88397Q66.64375 256.88397 65.89375 256.22772Q65.15938 255.57147 65.05 254.49335Z" fill-rule="nonzero"/><path fill="#000000" d="M62.01875 209.03667L60.971874 209.03667L60.971874 202.31792Q60.58125 202.67729 59.95625 203.05229Q59.346874 203.41167 58.8625 203.58354L58.8625 202.56792Q59.7375 202.14604 60.39375 201.56792Q61.065624 200.97417 61.346874 200.41167L62.01875 200.41167L62.01875 209.03667ZM65.05 204.80229Q65.05 203.27104 65.3625 202.34917Q65.675 201.41167 66.28438 200.91167Q66.90938 200.41167 67.84688 200.41167Q68.53438 200.41167 69.05 200.69292Q69.58125 200.97417 69.925 201.50542Q70.26875 202.02104 70.45625 202.77104Q70.64375 203.52104 70.64375 204.80229Q70.64375 206.31792 70.33125 207.23979Q70.03438 208.16167 69.40938 208.67729Q68.8 209.17729 67.84688 209.17729Q66.6125 209.17729 65.89375 208.28667Q65.05 207.22417 65.05 204.80229ZM66.12813 204.80229Q66.12813 206.91167 66.62813 207.61479Q67.12813 208.31792 67.84688 208.31792Q68.58125 208.31792 69.06563 207.61479Q69.56563 206.91167 69.56563 204.80229Q69.56563 202.67729 69.06563 201.98979Q68.58125 201.28667 67.83125 201.28667Q67.1125 201.28667 66.675 201.89604Q66.12813 202.67729 66.12813 204.80229Z" fill-rule="nonzero"/><path fill="#000000" d="M62.01875 161.33L60.971874 161.33L60.971874 154.61125Q60.58125 154.97063 59.95625 155.34563Q59.346874 155.705 58.8625 155.87688L58.8625 154.86125Q59.7375 154.43938 60.39375 153.86125Q61.065624 153.2675 61.346874 152.705L62.01875 152.705L62.01875 161.33ZM65.05 159.08L66.15938 158.98625Q66.28438 159.79875 66.72188 160.205Q67.175 160.61125 67.81563 160.61125Q68.56563 160.61125 69.09688 160.03313Q69.62813 159.455 69.62813 158.5175Q69.62813 157.61125 69.1125 157.09563Q68.6125 156.56438 67.78438 156.56438Q67.28438 156.56438 66.8625 156.79875Q66.45625 157.03313 66.22188 157.3925L65.2375 157.2675L66.06563 152.86125L70.34688 152.86125L70.34688 153.86125L66.90938 153.86125L66.45625 156.17375Q67.22188 155.62688 68.06563 155.62688Q69.19063 155.62688 69.95625 156.40813Q70.7375 157.18938 70.7375 158.42375Q70.7375 159.58 70.06563 160.43938Q69.2375 161.47063 67.81563 161.47063Q66.64375 161.47063 65.89375 160.81438Q65.15938 160.15813 65.05 159.08Z" fill-rule="nonzero"/><path fill="#000000" d="M63.596874 112.60771L63.596874 113.62334L57.909374 113.62334Q57.909374 113.24834 58.034374 112.88896Q58.253124 112.31084 58.721874 111.74834Q59.20625 111.18584 60.1125 110.45146Q61.51875 109.29521 62.003124 108.62334Q62.503124 107.95146 62.503124 107.35771Q62.503124 106.73271 62.05 106.31084Q61.596874 105.87334 60.878124 105.87334Q60.1125 105.87334 59.659374 106.32646Q59.20625 106.77959 59.190624 107.59209L58.1125 107.48271Q58.221874 106.26396 58.940624 105.63896Q59.675 104.99834 60.909374 104.99834Q62.14375 104.99834 62.8625 105.68584Q63.58125 106.37334 63.58125 107.38896Q63.58125 107.90459 63.3625 108.40459Q63.159374 108.88896 62.659374 109.45146Q62.175 109.99834 61.05 110.95146Q60.096874 111.74834 59.815624 112.04521Q59.55 112.32646 59.378124 112.60771L63.596874 112.60771ZM65.05 109.38896Q65.05 107.85771 65.3625 106.93584Q65.675 105.99834 66.28438 105.49834Q66.90938 104.99834 67.84688 104.99834Q68.53438 104.99834 69.05 105.27959Q69.58125 105.56084 69.925 106.09209Q70.26875 106.60771 70.45625 107.35771Q70.64375 108.10771 70.64375 109.38896Q70.64375 110.90459 70.33125 111.82646Q70.03438 112.74834 69.40938 113.26396Q68.8 113.76396 67.84688 113.76396Q66.6125 113.76396 65.89375 112.87334Q65.05 111.81084 65.05 109.38896ZM66.12813 109.38896Q66.12813 111.49834 66.62813 112.20146Q67.12813 112.90459 67.84688 112.90459Q68.58125 112.90459 69.06563 112.20146Q69.56563 111.49834 69.56563 109.38896Q69.56563 107.26396 69.06563 106.57646Q68.58125 105.87334 67.83125 105.87334Q67.1125 105.87334 66.675 106.48271Q66.12813 107.26396 66.12813 109.38896Z" fill-rule="nonzero"/><path fill="#000000" d="M63.596874 64.90104L63.596874 65.916664L57.909374 65.916664Q57.909374 65.541664 58.034374 65.18229Q58.253124 64.604164 58.721874 64.041664Q59.20625 63.479164 60.1125 62.74479Q61.51875 61.58854 62.003124 60.916664Q62.503124 60.24479 62.503124 59.65104Q62.503124 59.02604 62.05 58.604164Q61.596874 58.166664 60.878124 58.166664Q60.1125 58.166664 59.659374 58.61979Q59.20625 59.072914 59.190624 59.885414L58.1125 59.77604Q58.221874 58.55729 58.940624 57.93229Q59.675 57.291664 60.909374 57.291664Q62.14375 57.291664 62.8625 57.979164Q63.58125 58.666664 63.58125 59.68229Q63.58125 60.197914 63.3625 60.697914Q63.159374 61.18229 62.659374 61.74479Q62.175 62.291664 61.05 63.24479Q60.096874 64.041664 59.815624 64.33854Q59.55 64.61979 59.378124 64.90104L63.596874 64.90104ZM65.05 63.666664L66.15938 63.572914Q66.28438 64.385414 66.72188 64.791664Q67.175 65.197914 67.81563 65.197914Q68.56563 65.197914 69.09688 64.61979Q69.62813 64.041664 69.62813 63.104164Q69.62813 62.197914 69.1125 61.68229Q68.6125 61.15104 67.78438 61.15104Q67.28438 61.15104 66.8625 61.385414Q66.45625 61.61979 66.22188 61.979164L65.2375 61.854164L66.06563 57.447914L70.34688 57.447914L70.34688 58.447914L66.90938 58.447914L66.45625 60.760414Q67.22188 60.21354 68.06563 60.21354Q69.19063 60.21354 69.95625 60.99479Q70.7375 61.77604 70.7375 63.010414Q70.7375 64.166664 70.06563 65.02604Q69.2375 66.05729 67.81563 66.05729Q66.64375 66.05729 65.89375 65.40104Q65.15938 64.74479 65.05 63.666664Z" fill-rule="nonzero"/><path fill="#000000" d="M74.55 313.21564Q74.55 311.6844 74.8625 310.7625Q75.175 309.825 75.78438 309.325Q76.40938 308.825 77.34688 308.825Q78.03438 308.825 78.55 309.10626Q79.08125 309.3875 79.425 309.91876Q79.76875 310.4344 79.95625 311.1844Q80.14375 311.9344 80.14375 313.21564Q80.14375 314.73126 79.83125 315.65314Q79.53438 316.575 78.90938 317.09064Q78.3 317.59064 77.34688 317.59064Q76.1125 317.59064 75.39375 316.7Q74.55 315.6375 74.55 313.21564ZM75.62813 313.21564Q75.62813 315.325 76.12813 316.02814Q76.62813 316.73126 77.34688 316.73126Q78.08125 316.73126 78.56563 316.02814Q79.06563 315.325 79.06563 313.21564Q79.06563 311.09064 78.56563 310.40314Q78.08125 309.7 77.33125 309.7Q76.6125 309.7 76.175 310.3094Q75.62813 311.09064 75.62813 313.21564Z" fill-rule="nonzero"/><path fill="#000000" d="M175.33 315.2L176.43938 315.10626Q176.56438 315.91876 177.00188 316.325Q177.455 316.73126 178.09563 316.73126Q178.84563 316.73126 179.37688 316.15314Q179.90813 315.575 179.90813 314.6375Q179.90813 313.73126 179.3925 313.21564Q178.8925 312.6844 178.06438 312.6844Q177.56438 312.6844 177.1425 312.91876Q176.73625 313.15314 176.50188 313.5125L175.5175 313.3875L176.34563 308.98126L180.62688 308.98126L180.62688 309.98126L177.18938 309.98126L176.73625 312.29376Q177.50188 311.7469 178.34563 311.7469Q179.47063 311.7469 180.23625 312.52814Q181.0175 313.3094 181.0175 314.54376Q181.0175 315.7 180.34563 316.5594Q179.5175 317.59064 178.09563 317.59064Q176.92375 317.59064 176.17375 316.9344Q175.43938 316.27814 175.33 315.2Z" fill-rule="nonzero"/><path fill="#000000" d="M276.57874 317.45L275.53186 317.45L275.53186 310.73126Q275.14124 311.09064 274.51624 311.46564Q273.90686 311.825 273.4225 311.9969L273.4225 310.98126Q274.2975 310.5594 274.95374 309.98126Q275.6256 309.3875 275.90686 308.825L276.57874 308.825L276.57874 317.45ZM279.61 313.21564Q279.61 311.6844 279.9225 310.7625Q280.235 309.825 280.84436 309.325Q281.46936 308.825 282.40686 308.825Q283.09436 308.825 283.61 309.10626Q284.14124 309.3875 284.485 309.91876Q284.82874 310.4344 285.01624 311.1844Q285.20374 311.9344 285.20374 313.21564Q285.20374 314.73126 284.89124 315.65314Q284.59436 316.575 283.96936 317.09064Q283.36 317.59064 282.40686 317.59064Q281.1725 317.59064 280.45374 316.7Q279.61 315.6375 279.61 313.21564ZM280.6881 313.21564Q280.6881 315.325 281.1881 316.02814Q281.6881 316.73126 282.40686 316.73126Q283.14124 316.73126 283.6256 316.02814Q284.1256 315.325 284.1256 313.21564Q284.1256 311.09064 283.6256 310.40314Q283.14124 309.7 282.39124 309.7Q281.6725 309.7 281.235 310.3094Q280.6881 311.09064 280.6881 313.21564Z" fill-rule="nonzero"/><path fill="#000000" d="M377.35876 317.45L376.3119 317.45L376.3119 310.73126Q375.92126 311.09064 375.29626 311.46564Q374.6869 311.825 374.2025 311.9969L374.2025 310.98126Q375.0775 310.5594 375.73376 309.98126Q376.40564 309.3875 376.6869 308.825L377.35876 308.825L377.35876 317.45ZM380.39 315.2L381.4994 315.10626Q381.6244 315.91876 382.0619 316.325Q382.515 316.73126 383.15564 316.73126Q383.90564 316.73126 384.4369 316.15314Q384.96814 315.575 384.96814 314.6375Q384.96814 313.73126 384.4525 313.21564Q383.9525 312.6844 383.1244 312.6844Q382.6244 312.6844 382.2025 312.91876Q381.79626 313.15314 381.5619 313.5125L380.5775 313.3875L381.40564 308.98126L385.6869 308.98126L385.6869 309.98126L382.2494 309.98126L381.79626 312.29376Q382.5619 311.7469 383.40564 311.7469Q384.53064 311.7469 385.29626 312.52814Q386.0775 313.3094 386.0775 314.54376Q386.0775 315.7 385.40564 316.5594Q384.5775 317.59064 383.15564 317.59064Q381.98376 317.59064 381.23376 316.9344Q380.4994 316.27814 380.39 315.2Z" fill-rule="nonzero"/><path fill="#000000" d="M479.7169 316.4344L479.7169 317.45L474.0294 317.45Q474.0294 317.075 474.1544 316.71564Q474.37314 316.1375 474.8419 315.575Q475.32626 315.0125 476.2325 314.27814Q477.63876 313.1219 478.12314 312.45Q478.62314 311.77814 478.62314 311.1844Q478.62314 310.5594 478.17 310.1375Q477.7169 309.7 476.99814 309.7Q476.2325 309.7 475.7794 310.15314Q475.32626 310.60626 475.31064 311.41876L474.2325 311.3094Q474.3419 310.09064 475.06064 309.46564Q475.795 308.825 477.0294 308.825Q478.26376 308.825 478.9825 309.5125Q479.70126 310.2 479.70126 311.21564Q479.70126 311.73126 479.4825 312.23126Q479.2794 312.71564 478.7794 313.27814Q478.295 313.825 477.17 314.77814Q476.2169 315.575 475.93564 315.8719Q475.67 316.15314 475.49814 316.4344L479.7169 316.4344ZM481.17 313.21564Q481.17 311.6844 481.4825 310.7625Q481.795 309.825 482.4044 309.325Q483.0294 308.825 483.9669 308.825Q484.6544 308.825 485.17 309.10626Q485.70126 309.3875 486.045 309.91876Q486.38876 310.4344 486.57626 311.1844Q486.76376 311.9344 486.76376 313.21564Q486.76376 314.73126 486.45126 315.65314Q486.1544 316.575 485.5294 317.09064Q484.92 317.59064 483.9669 317.59064Q482.7325 317.59064 482.01376 316.7Q481.17 315.6375 481.17 313.21564ZM482.24814 313.21564Q482.24814 315.325 482.74814 316.02814Q483.24814 316.73126 483.9669 316.73126Q484.70126 316.73126 485.18564 316.02814Q485.68564 315.325 485.68564 313.21564Q485.68564 311.09064 485.18564 310.40314Q484.70126 309.7 483.95126 309.7Q483.2325 309.7 482.795 310.3094Q482.24814 311.09064 482.24814 313.21564Z" fill-rule="nonzero"/><path fill="#000000" d="M580.4969 316.4344L580.4969 317.45L574.8094 317.45Q574.8094 317.075 574.9344 316.71564Q575.15314 316.1375 575.6219 315.575Q576.10626 315.0125 577.0125 314.27814Q578.41876 313.1219 578.90314 312.45Q579.40314 311.77814 579.40314 311.1844Q579.40314 310.5594 578.95 310.1375Q578.4969 309.7 577.77814 309.7Q577.0125 309.7 576.5594 310.15314Q576.10626 310.60626 576.09064 311.41876L575.0125 311.3094Q575.1219 310.09064 575.84064 309.46564Q576.575 308.825 577.8094 308.825Q579.04376 308.825 579.7625 309.5125Q580.48126 310.2 580.48126 311.21564Q580.48126 311.73126 580.2625 312.23126Q580.0594 312.71564 579.5594 313.27814Q579.075 313.825 577.95 314.77814Q576.9969 315.575 576.71564 315.8719Q576.45 316.15314 576.27814 316.4344L580.4969 316.4344ZM581.95 315.2L583.0594 315.10626Q583.1844 315.91876 583.6219 316.325Q584.075 316.73126 584.71564 316.73126Q585.46564 316.73126 585.9969 316.15314Q586.52814 315.575 586.52814 314.6375Q586.52814 313.73126 586.0125 313.21564Q585.5125 312.6844 584.6844 312.6844Q584.1844 312.6844 583.7625 312.91876Q583.35626 313.15314 583.1219 313.5125L582.1375 313.3875L582.96564 308.98126L587.2469 308.98126L587.2469 309.98126L583.8094 309.98126L583.35626 312.29376Q584.1219 311.7469 584.96564 311.7469Q586.09064 311.7469 586.85626 312.52814Q587.6375 313.3094 587.6375 314.54376Q587.6375 315.7 586.96564 316.5594Q586.1375 317.59064 584.71564 317.59064Q583.54376 317.59064 582.79376 316.9344Q582.0594 316.27814 581.95 315.2Z" fill-rule="nonzero"/><path fill="#757575" d="M23.7375 37.55L23.7375 24.925L19.01875 24.925L19.01875 23.2375L30.3625 23.2375L30.3625 24.925L25.628124 24.925L25.628124 37.55L23.7375 37.55ZM38.971874 34.20625L40.784374 34.440624Q40.3625 36.01875 39.190624 36.909374Q38.034374 37.784374 36.221874 37.784374Q33.95625 37.784374 32.6125 36.39375Q31.284374 34.9875 31.284374 32.45625Q31.284374 29.83125 32.628124 28.39375Q33.971874 26.940624 36.128124 26.940624Q38.20625 26.940624 39.51875 28.3625Q40.846874 29.76875 40.846874 32.346874Q40.846874 32.503124 40.83125 32.815624L33.096874 32.815624Q33.190624 34.51875 34.065624 35.425Q34.940624 36.33125 36.2375 36.33125Q37.20625 36.33125 37.878124 35.83125Q38.565624 35.315624 38.971874 34.20625ZM33.190624 31.3625L38.9875 31.3625Q38.878124 30.065624 38.33125 29.409374Q37.4875 28.39375 36.14375 28.39375Q34.940624 28.39375 34.1125 29.20625Q33.284374 30.003124 33.190624 31.3625ZM42.925 27.175L45.659374 27.175L48.378124 35.471874L51.409374 27.175L53.940624 27.175L53.940624 37.55L52.175 37.55L52.175 29.20625L49.1125 37.55L47.534374 37.55L44.64375 28.8L44.64375 37.55L42.925 37.55L42.925 27.175ZM55.878124 27.175L64.06563 27.175L64.06563 37.55L62.3 37.55L62.3 28.628124L57.64375 28.628124L57.64375 37.55L55.878124 37.55L55.878124 27.175ZM72.97188 34.20625L74.78438 34.440624Q74.3625 36.01875 73.19063 36.909374Q72.03438 37.784374 70.22188 37.784374Q67.95625 37.784374 66.6125 36.39375Q65.28438 34.9875 65.28438 32.45625Q65.28438 29.83125 66.62813 28.39375Q67.97188 26.940624 70.12813 26.940624Q72.20625 26.940624 73.51875 28.3625Q74.84688 29.76875 74.84688 32.346874Q74.84688 32.503124 74.83125 32.815624L67.09688 32.815624Q67.19063 34.51875 68.06563 35.425Q68.94063 36.33125 70.2375 36.33125Q71.20625 36.33125 71.87813 35.83125Q72.56563 35.315624 72.97188 34.20625ZM67.19063 31.3625L72.9875 31.3625Q72.87813 30.065624 72.33125 29.409374Q71.4875 28.39375 70.14375 28.39375Q68.94063 28.39375 68.1125 29.20625Q67.28438 30.003124 67.19063 31.3625ZM76.8625 41.51875L76.8625 27.175L78.47188 27.175L78.47188 28.51875Q79.03438 27.7375 79.7375 27.346874Q80.45625 26.940624 81.47188 26.940624Q82.8 26.940624 83.81563 27.628124Q84.83125 28.315624 85.34688 29.565624Q85.87813 30.8 85.87813 32.284374Q85.87813 33.878124 85.3 35.159374Q84.7375 36.425 83.64375 37.1125Q82.55 37.784374 81.34688 37.784374Q80.47188 37.784374 79.76875 37.409374Q79.08125 37.034374 78.62813 36.471874L78.62813 41.51875L76.8625 41.51875ZM78.45625 32.425Q78.45625 34.425 79.26875 35.378124Q80.08125 36.33125 81.2375 36.33125Q82.40938 36.33125 83.2375 35.346874Q84.08125 34.3625 84.08125 32.26875Q84.08125 30.3 83.25313 29.315624Q82.44063 28.315624 81.31563 28.315624Q80.19063 28.315624 79.31563 29.378124Q78.45625 30.425 78.45625 32.425ZM94.64375 36.26875Q93.65938 37.096874 92.75313 37.440624Q91.84688 37.784374 90.81563 37.784374Q89.1125 37.784374 88.19063 36.95625Q87.26875 36.1125 87.26875 34.815624Q87.26875 34.05 87.6125 33.425Q87.97188 32.8 88.53438 32.425Q89.09688 32.034374 89.8 31.83125Q90.31563 31.70625 91.3625 31.565624Q93.4875 31.315624 94.4875 30.971874Q94.50313 30.6125 94.50313 30.503124Q94.50313 29.440624 94.00313 28.9875Q93.33125 28.39375 92.00313 28.39375Q90.75313 28.39375 90.15938 28.83125Q89.58125 29.26875 89.3 30.378124L87.58125 30.14375Q87.81563 29.034374 88.34688 28.3625Q88.87813 27.675 89.89375 27.315624Q90.90938 26.940624 92.25313 26.940624Q93.58125 26.940624 94.40938 27.253124Q95.2375 27.565624 95.62813 28.05Q96.01875 28.51875 96.175 29.2375Q96.26875 29.690624 96.26875 30.8625L96.26875 33.20625Q96.26875 35.659374 96.37813 36.315624Q96.4875 36.95625 96.83125 37.55L94.9875 37.55Q94.72188 37.003124 94.64375 36.26875ZM94.4875 32.346874Q93.53438 32.7375 91.6125 33.003124Q90.53438 33.159374 90.08125 33.3625Q89.64375 33.55 89.39375 33.925Q89.14375 34.3 89.14375 34.76875Q89.14375 35.471874 89.675 35.940624Q90.20625 36.409374 91.2375 36.409374Q92.25313 36.409374 93.03438 35.971874Q93.83125 35.51875 94.20625 34.753124Q94.4875 34.14375 94.4875 32.9875L94.4875 32.346874ZM97.925 27.175L106.34688 27.175L106.34688 28.628124L103.00313 28.628124L103.00313 37.55L101.26875 37.55L101.26875 28.628124L97.925 28.628124L97.925 27.175ZM107.78438 41.55L107.59688 39.89375Q108.175 40.05 108.59688 40.05Q109.19063 40.05 109.53438 39.846874Q109.89375 39.659374 110.1125 39.315624Q110.28438 39.05 110.65938 38.003124Q110.70625 37.846874 110.81563 37.565624L106.87813 27.175L108.76875 27.175L110.925 33.190624Q111.34688 34.33125 111.675 35.58125Q111.9875 34.378124 112.39375 33.221874L114.6125 27.175L116.37813 27.175L112.425 37.721874Q111.8 39.440624 111.44063 40.08125Q110.97188 40.95625 110.3625 41.346874Q109.76875 41.753124 108.925 41.753124Q108.40938 41.753124 107.78438 41.55ZM117.8625 41.51875L117.8625 27.175L119.47188 27.175L119.47188 28.51875Q120.03438 27.7375 120.7375 27.346874Q121.45625 26.940624 122.47188 26.940624Q123.8 26.940624 124.81563 27.628124Q125.83125 28.315624 126.34688 29.565624Q126.87813 30.8 126.87813 32.284374Q126.87813 33.878124 126.3 35.159374Q125.7375 36.425 124.64375 37.1125Q123.55 37.784374 122.34688 37.784374Q121.47188 37.784374 120.76875 37.409374Q120.08125 37.034374 119.62813 36.471874L119.62813 41.51875L117.8625 41.51875ZM119.45625 32.425Q119.45625 34.425 120.26875 35.378124Q121.08125 36.33125 122.2375 36.33125Q123.40938 36.33125 124.2375 35.346874Q125.08125 34.3625 125.08125 32.26875Q125.08125 30.3 124.25313 29.315624Q123.44063 28.315624 122.31563 28.315624Q121.19063 28.315624 120.31563 29.378124Q119.45625 30.425 119.45625 32.425ZM135.64375 36.26875Q134.65938 37.096874 133.75313 37.440624Q132.84688 37.784374 131.81563 37.784374Q130.1125 37.784374 129.19063 36.95625Q128.26875 36.1125 128.26875 34.815624Q128.26875 34.05 128.6125 33.425Q128.97188 32.8 129.53438 32.425Q130.09688 32.034374 130.8 31.83125Q131.31563 31.70625 132.3625 31.565624Q134.4875 31.315624 135.4875 30.971874Q135.50313 30.6125 135.50313 30.503124Q135.50313 29.440624 135.00313 28.9875Q134.33125 28.39375 133.00313 28.39375Q131.75313 28.39375 131.15938 28.83125Q130.58125 29.26875 130.3 30.378124L128.58125 30.14375Q128.81563 29.034374 129.34688 28.3625Q129.87813 27.675 130.89375 27.315624Q131.90938 26.940624 133.25313 26.940624Q134.58125 26.940624 135.40938 27.253124Q136.2375 27.565624 136.62813 28.05Q137.01875 28.51875 137.175 29.2375Q137.26875 29.690624 137.26875 30.8625L137.26875 33.20625Q137.26875 35.659374 137.37813 36.315624Q137.4875 36.95625 137.83125 37.55L135.9875 37.55Q135.72188 37.003124 135.64375 36.26875ZM135.4875 32.346874Q134.53438 32.7375 132.6125 33.003124Q131.53438 33.159374 131.08125 33.3625Q130.64375 33.55 130.39375 33.925Q130.14375 34.3 130.14375 34.76875Q130.14375 35.471874 130.675 35.940624Q131.20625 36.409374 132.2375 36.409374Q133.25313 36.409374 134.03438 35.971874Q134.83125 35.51875 135.20625 34.753124Q135.4875 34.14375 135.4875 32.9875L135.4875 32.346874ZM138.55 37.8L142.70625 22.9875L144.1125 22.9875L139.97188 37.8L138.55 37.8ZM146.12813 23.2375L148.01875 23.2375L148.01875 29.503124Q149.31563 29.503124 149.84688 29.003124Q150.37813 28.503124 151.19063 26.58125Q151.78438 25.175 152.175 24.596874Q152.56563 24.01875 153.26875 23.628124Q153.9875 23.221874 154.84688 23.221874Q155.94063 23.221874 156.00313 23.2375L156.00313 24.878124Q155.89375 24.878124 155.6125 24.878124Q155.3 24.8625 155.2375 24.8625Q154.33125 24.8625 153.89375 25.3Q153.44063 25.7375 152.8625 27.175Q152.14375 28.9875 151.64375 29.471874Q151.14375 29.940624 150.45625 30.221874Q151.83125 30.6125 153.19063 32.784374L156.12813 37.55L153.78438 37.55L151.39375 33.659374Q150.39375 32.05 149.72188 31.45625Q149.06563 30.846874 148.01875 30.846874L148.01875 37.55L146.12813 37.55L146.12813 23.2375ZM157.87813 25.253124L157.87813 23.2375L159.64375 23.2375L159.64375 25.253124L157.87813 25.253124ZM157.87813 37.55L157.87813 27.175L159.64375 27.175L159.64375 37.55L157.87813 37.55ZM162.72188 27.175L170.89375 27.175L170.89375 37.55L169.14375 37.55L169.14375 28.628124L164.4875 28.628124L164.4875 33.8Q164.4875 35.6125 164.3625 36.190624Q164.25313 36.753124 163.72188 37.190624Q163.19063 37.6125 162.20625 37.6125Q161.58125 37.6125 160.78438 37.534374L160.78438 36.08125L161.55 36.08125Q162.09688 36.08125 162.33125 35.971874Q162.56563 35.846874 162.64375 35.6125Q162.72188 35.3625 162.72188 34.01875L162.72188 27.175ZM172.84688 27.175L174.59688 27.175L174.59688 31.2375L176.83125 31.2375Q179.00313 31.2375 180.175 32.08125Q181.3625 32.925 181.3625 34.409374Q181.3625 35.70625 180.37813 36.628124Q179.39375 37.55 177.2375 37.55L172.84688 37.55L172.84688 27.175ZM174.59688 36.096874L176.44063 36.096874Q178.1125 36.096874 178.81563 35.690624Q179.53438 35.284374 179.53438 34.409374Q179.53438 33.7375 179.00313 33.221874Q178.4875 32.690624 176.675 32.690624L174.59688 32.690624L174.59688 36.096874ZM183.8625 27.175L185.6125 27.175L185.6125 31.659374Q186.45625 31.659374 186.78438 31.346874Q187.12813 31.01875 187.78438 29.45625Q188.3 28.2375 188.6125 27.846874Q188.94063 27.45625 189.3625 27.315624Q189.78438 27.175 190.72188 27.175L191.06563 27.175L191.06563 28.628124L190.58125 28.628124Q189.87813 28.628124 189.69063 28.83125Q189.4875 29.05 189.06563 30.1125Q188.65938 31.128124 188.33125 31.51875Q188.00313 31.909374 187.3 32.221874Q188.44063 32.534374 189.53438 34.33125L191.45625 37.55L189.51875 37.55L187.64375 34.33125Q187.06563 33.3625 186.62813 33.065624Q186.20625 32.753124 185.6125 32.753124L185.6125 37.55L183.8625 37.55L183.8625 27.175ZM192.87813 25.253124L192.87813 23.2375L194.64375 23.2375L194.64375 25.253124L192.87813 25.253124ZM192.87813 37.55L192.87813 27.175L194.64375 27.175L194.64375 37.55L192.87813 37.55ZM203.64375 33.753124L205.3625 33.971874Q205.08125 35.76875 203.90938 36.784374Q202.75313 37.784374 201.05 37.784374Q198.925 37.784374 197.62813 36.39375Q196.33125 35.003124 196.33125 32.409374Q196.33125 30.721874 196.87813 29.471874Q197.44063 28.20625 198.58125 27.58125Q199.72188 26.940624 201.06563 26.940624Q202.75313 26.940624 203.81563 27.8Q204.89375 28.659374 205.20625 30.221874L203.4875 30.4875Q203.25313 29.440624 202.62813 28.925Q202.00313 28.39375 201.12813 28.39375Q199.8 28.39375 198.97188 29.346874Q198.14375 30.3 198.14375 32.346874Q198.14375 34.440624 198.94063 35.39375Q199.7375 36.33125 201.03438 36.33125Q202.06563 36.33125 202.75313 35.70625Q203.45625 35.065624 203.64375 33.753124ZM205.925 27.175L214.34688 27.175L214.34688 28.628124L211.00313 28.628124L211.00313 37.55L209.26875 37.55L209.26875 28.628124L205.925 28.628124L205.925 27.175ZM215.84688 27.175L217.59688 27.175L217.59688 31.2375L219.83125 31.2375Q222.00313 31.2375 223.175 32.08125Q224.3625 32.925 224.3625 34.409374Q224.3625 35.70625 223.37813 36.628124Q222.39375 37.55 220.2375 37.55L215.84688 37.55L215.84688 27.175ZM217.59688 36.096874L219.44063 36.096874Q221.1125 36.096874 221.81563 35.690624Q222.53438 35.284374 222.53438 34.409374Q222.53438 33.7375 222.00313 33.221874Q221.4875 32.690624 219.675 32.690624L217.59688 32.690624L217.59688 36.096874ZM231.69063 37.55L235.4875 32.159374L231.9875 27.175L234.175 27.175L235.76875 29.6125Q236.22188 30.3 236.4875 30.76875Q236.925 30.128124 237.28438 29.628124L239.03438 27.175L241.12813 27.175L237.55 32.065624L241.40938 37.55L239.25313 37.55L237.1125 34.33125L236.55 33.45625L233.83125 37.55L231.69063 37.55ZM241.925 27.175L244.65938 27.175L247.37813 35.471874L250.40938 27.175L252.94063 27.175L252.94063 37.55L251.175 37.55L251.175 29.20625L248.1125 37.55L246.53438 37.55L243.64375 28.8L243.64375 37.55L241.925 37.55L241.925 27.175ZM261.64374 36.26875Q260.65936 37.096874 259.7531 37.440624Q258.84686 37.784374 257.8156 37.784374Q256.1125 37.784374 255.19063 36.95625Q254.26875 36.1125 254.26875 34.815624Q254.26875 34.05 254.6125 33.425Q254.97188 32.8 255.53438 32.425Q256.09686 32.034374 256.8 31.83125Q257.3156 31.70625 258.3625 31.565624Q260.4875 31.315624 261.4875 30.971874Q261.5031 30.6125 261.5031 30.503124Q261.5031 29.440624 261.0031 28.9875Q260.33124 28.39375 259.0031 28.39375Q257.7531 28.39375 257.15936 28.83125Q256.58124 29.26875 256.3 30.378124L254.58125 30.14375Q254.81563 29.034374 255.34688 28.3625Q255.87813 27.675 256.89374 27.315624Q257.90936 26.940624 259.2531 26.940624Q260.58124 26.940624 261.40936 27.253124Q262.2375 27.565624 262.6281 28.05Q263.01874 28.51875 263.175 29.2375Q263.26874 29.690624 263.26874 30.8625L263.26874 33.20625Q263.26874 35.659374 263.3781 36.315624Q263.4875 36.95625 263.83124 37.55L261.9875 37.55Q261.72186 37.003124 261.64374 36.26875ZM261.4875 32.346874Q260.53436 32.7375 258.6125 33.003124Q257.53436 33.159374 257.08124 33.3625Q256.64374 33.55 256.39374 33.925Q256.14374 34.3 256.14374 34.76875Q256.14374 35.471874 256.675 35.940624Q257.20624 36.409374 258.2375 36.409374Q259.2531 36.409374 260.03436 35.971874Q260.83124 35.51875 261.20624 34.753124Q261.4875 34.14375 261.4875 32.9875L261.4875 32.346874ZM265.8625 41.51875L265.8625 27.175L267.47186 27.175L267.47186 28.51875Q268.03436 27.7375 268.7375 27.346874Q269.45624 26.940624 270.47186 26.940624Q271.8 26.940624 272.8156 27.628124Q273.83124 28.315624 274.34686 29.565624Q274.8781 30.8 274.8781 32.284374Q274.8781 33.878124 274.3 35.159374Q273.7375 36.425 272.64374 37.1125Q271.55 37.784374 270.34686 37.784374Q269.47186 37.784374 268.76874 37.409374Q268.08124 37.034374 267.6281 36.471874L267.6281 41.51875L265.8625 41.51875ZM267.45624 32.425Q267.45624 34.425 268.26874 35.378124Q269.08124 36.33125 270.2375 36.33125Q271.40936 36.33125 272.2375 35.346874Q273.08124 34.3625 273.08124 32.26875Q273.08124 30.3 272.2531 29.315624Q271.4406 28.315624 270.3156 28.315624Q269.1906 28.315624 268.3156 29.378124Q267.45624 30.425 267.45624 32.425Z" fill-rule="nonzero"/></svg>